<?xml version="1.0" encoding="UTF-8"?>
<!DOCTYPE svg PUBLIC "-//W3C//DTD SVG 1.1//EN" "http://www.w3.org/Graphics/SVG/1.1/DTD/svg11.dtd">
<!-- Creator: CorelDRAW 2019 (64-Bit) -->
<svg xmlns="http://www.w3.org/2000/svg" xml:space="preserve" width="117.849mm" height="153.013mm" version="1.1" style="shape-rendering:geometricPrecision; text-rendering:geometricPrecision; image-rendering:optimizeQuality; fill-rule:evenodd; clip-rule:evenodd"
viewBox="0 0 3760.39 4882.44"
 xmlns:xlink="http://www.w3.org/1999/xlink">
 <defs>
  <style type="text/css">
   <![CDATA[
    .fil0 {fill:#D3A77C}
   ]]>
  </style>
 </defs>
 <g id="Capa_x0020_1">
  <metadata id="CorelCorpID_0Corel-Layer"/>
  <g id="_2189161190336">
   <path class="fil0" d="M2450.74 1952.62c103.96,10.56 203.58,35.09 288.78,76.87 190.52,93.46 263.91,215.36 316.98,425.7 56.3,223.15 -54.63,736.13 -148.14,920.47 -43.61,85.96 -87.29,159.34 -135.17,235.8 -53.82,85.95 -236.04,354.78 -302.84,432.87 -84.57,98.88 -164.88,205.44 -262.61,293.97l-69.52 64.67c-10.42,9.99 -17.02,12.68 -28.39,23.01 -35.38,32.16 -64.34,57.79 -102.31,83.25l-107.64 77.74c-137.98,104.04 -337.17,187.6 -512.9,223.1 -271.39,54.83 -526.67,0.5 -710.85,-173.28 -253.79,-239.48 -299.37,-675.8 -206.35,-993.87 27.6,-94.36 53.72,-185.63 89.2,-275.27 65.06,-164.4 235.97,-435.79 358.95,-568.77 28.52,-30.84 59.51,-71.15 93.43,-91.9 374.71,-229.27 646.65,-119.12 1092.95,-385.01 177.86,-105.96 250.93,-200.82 335.45,-406.91 69.82,-170.25 125.1,-445.13 111.67,-631.16 -15.58,21.13 -59.19,130.53 -81.49,168.88 -72.75,125.12 -74.66,130 -174.92,208.77 -25.33,19.9 -50.53,35.26 -77.12,50.89 -51.11,30.04 -112.97,59.75 -171.11,84.78 -245.69,105.8 -494.46,127.02 -743.6,280.05 -109.28,67.12 -178.6,147.12 -246.32,259.4 -63.75,105.7 -113.15,228.29 -150.92,360.76 -12.65,44.38 -12.8,59.04 -37.65,90.34 -11.58,14.59 -16.73,24.06 -27.66,36.47 -99.79,113.35 -286.16,463.09 -324.07,505.56 5.86,-198.98 425.68,-969.99 560.08,-1210.32 64.28,-114.94 143.27,-213.57 222.43,-314.92l237.55 -299.91c100.59,-118.1 195.65,-249.6 302.92,-362.59 36.72,-38.68 66.93,-80.24 107.04,-116.69 62.6,-56.9 118.45,-125.61 182.17,-176.32 52.67,-41.91 121.27,-112.58 187.26,-164.27 20.58,-16.12 28.31,-16.37 51.63,-38.02 61.93,-57.47 186.96,-140.88 256.83,-191.03 203.88,-146.35 464.87,-273.68 729.06,-339.75 90.88,-22.73 349.62,-14.82 393.88,-47.71 21.17,-15.73 15.27,-42.59 -9.28,-54.99 -88.65,-44.82 -371.22,35.94 -459.14,60.62 -183.1,51.38 -344.22,130.05 -500.88,208.82 -194.82,97.96 -811.5,423.14 -1007.48,598.5 -33.83,30.27 -68.39,54.34 -100.15,79.23l-311.31 264.55c-9.72,8.84 -11.98,13.78 -21.63,22.84 -18.86,17.71 -28.61,20.17 -48.17,41.45l-188.25 170.28c-17.88,16.32 -25.3,29.06 -44.19,45.16 -17.99,15.34 -30.87,25.87 -48.57,41.21 -64.58,55.96 -121.44,117.4 -172.39,186 -23.65,31.84 -54.97,61.07 -84.08,94.81 -27.84,32.27 -47.66,62.62 -76.6,96.29 -17.76,20.67 -23.79,30.01 -39.93,49.6 -16.68,20.25 -24.69,34.12 -37.9,51.82 -26.22,35.12 -51.31,64.5 -78.26,100.56l-210.39 320.92c-41.04,71.91 -85.46,152.17 -120.81,237.42 -139.04,335.38 -240.71,814.35 -158.61,1205.9 51.35,244.92 158.14,421.9 298.34,590.19 31.56,37.88 47.4,61.07 86.7,92.65 17.52,14.08 29.92,26.64 48.34,41.26 15.2,12.06 35.94,25.8 51.46,38.28 334.93,269.5 870.85,276.49 1292.5,155.87 282.74,-80.88 640.74,-265.17 876.71,-460.65l400.16 -399.5c86.63,-96.49 154.18,-203.45 223.71,-313.9 22.81,-36.23 44.77,-75.44 64.17,-114.81 231.11,-469 132.56,-966.2 -199.86,-1326.17 -114.79,-124.31 -284.5,-212.87 -459.73,-257.43 -46.32,-11.78 -182.19,-43.58 -231.24,-34.85 -21.27,3.78 -30.61,29.73 -29.92,52.39z"/>
   <path class="fil0" d="M2455.04 2228.11c-230.6,44.13 -150.71,327.12 83.4,284.9 232.06,-41.85 158.46,-331.19 -83.4,-284.9z"/>
  </g>
 </g>
</svg>
