<?xml version="1.0" encoding="UTF-8"?>
<!DOCTYPE svg PUBLIC "-//W3C//DTD SVG 1.1//EN" "http://www.w3.org/Graphics/SVG/1.1/DTD/svg11.dtd">
<!-- Creator: CorelDRAW 2019 (64-Bit) -->
<svg xmlns="http://www.w3.org/2000/svg" xml:space="preserve" width="32.9413mm" height="33.8533mm" version="1.1" style="shape-rendering:geometricPrecision; text-rendering:geometricPrecision; image-rendering:optimizeQuality; fill-rule:evenodd; clip-rule:evenodd"
viewBox="0 0 524.2 538.71"
 xmlns:xlink="http://www.w3.org/1999/xlink">
 <defs>
  <style type="text/css">
   <![CDATA[
    .fil0 {fill:#FEFEFE;fill-rule:nonzero}
   ]]>
  </style>
 </defs>
 <g id="Capa_x0020_1">
  <metadata id="CorelCorpID_0Corel-Layer"/>
  <path class="fil0" d="M521.26 53.92c-0.41,4.75 -0.37,5.93 -0.29,8.07 0.08,2.75 0.21,6.91 -0.43,21.91 -0.41,9.15 -1.15,26.18 -2.89,44.98 -2.93,31.43 -4.7,50.4 -11.28,74.14 -7.49,26.97 -12,43.25 -22.96,59.36 -3.1,4.57 -7.82,14.8 -17.25,35.21 -0.92,1.99 -1.62,4 -2.11,6.02 0.2,-3.54 0.57,-6.55 0.9,-9 1.27,-8.82 2.95,-15.18 4.58,-21.34 0.84,-3.16 1.62,-6.16 2.36,-9.45 1.91,-8.55 1.97,-12.66 2.03,-17.87 0.06,-4.9 0.14,-11 1.89,-22.95 0.7,-4.88 1.13,-6.91 2.07,-11.37 0.78,-3.74 1.85,-8.87 3.71,-18.57l0.02 -0.07c2.3,-12.05 4.7,-24.52 6.63,-37.12 2.5,-16.03 2.96,-24.02 3.36,-30.44 0.39,-6.56 0.7,-11.74 2.87,-22.5 3.06,-15.11 7.49,-29.8 12.86,-42.47 3.65,-8.64 7.94,-17.1 12.72,-25.15 0.41,-0.05 0.78,-0 1.11,0.16 1.82,0.88 1.39,5.17 0.68,12.28 -0.2,1.86 -0.39,3.92 -0.59,6.17zm-58.02 256.7c0,0.42 0.02,0.82 0.04,1.2 0.16,3.99 0.57,7.4 0.98,10.98 0.12,0.91 0.23,1.77 0.41,2.83 -0.31,-0.48 -0.66,-0.93 -1.02,-1.37 -0.35,-0.45 -0.72,-0.91 -1.05,-1.41 -1.64,-2.44 -1.91,-4.81 -2.4,-9.96 -1.83,-19.57 0.12,-32.77 0.14,-32.9 1.15,-7.46 1.97,-15.09 2.75,-22.46 0.76,-7.07 1.54,-14.38 2.61,-21.52 1.89,-12.71 2.36,-17.87 3.03,-25.01 0.68,-7.21 1.5,-16.18 4.06,-36.49 2.2,-17.63 2.87,-21.12 3.96,-26.9 1.09,-5.77 2.6,-13.67 6.46,-40.08 0.14,-1 3.71,-24.68 13.13,-44.75 0.64,-1.38 4.23,-8.66 11.08,-16.56 2.61,-2.99 8.06,-9.26 11.65,-10.66 -4.64,7.89 -9.75,15.23 -13.32,23.68 -5.38,12.71 -9.79,26.59 -12.86,41.75 -2.19,10.8 -1.6,17.8 -1.99,24.39 -0.39,6.4 -1.81,14.5 -4.27,30.5 -1.95,12.59 -3.39,24.92 -5.7,36.97l-0.02 0.07c-1.85,9.69 -3.65,14.61 -4.43,18.35 -0.96,4.47 -1.7,6.27 -2.42,11.16 -1.76,12 -0.76,18.58 -0.82,23.5 -0.08,5.17 -0.14,9.25 -2.03,17.73 -0.72,3.28 -2.15,6.56 -2.99,9.72 -1.64,6.18 -3.86,11.29 -5.11,20.14 -0.53,3.65 -0.04,10.28 0.14,17.09zm5.85 15.68c1.21,1.71 2.22,2.97 3.02,3.98 1.68,2.1 2.36,2.96 2.26,4.48 -0.12,2.08 -1.72,4.25 -3.12,4.29 -1.33,0.04 -2.03,-1.83 -2.77,-2.99 -1.03,-1.65 -1.81,-3.03 -2.5,-6.97 -0.04,-0.31 -0.1,-0.6 -0.16,-0.88 -0.45,-2.52 -0.68,-3.92 -0.88,-5.48 -0.18,-1.51 -0.33,-2.98 -0.49,-4.48 1.03,2.97 2.46,5 4.62,8.06zm11.51 14.99c4.94,3.76 10.71,7.06 16.25,9.67 7.67,3.61 11.67,4.75 14.14,5.14l0.41 0.06c1.66,0.25 4.41,0.67 4.8,2 0.16,0.49 -0.43,1.76 -1.29,3.66 -0.58,1.32 -1.01,2.27 -1.31,2.45 -0.96,0.6 -2.48,-0.18 -4.76,-1.34 -0.53,-0.27 -1.09,-0.55 -1.7,-0.84 -1.21,-0.59 -2.48,-1.08 -3.71,-1.56 -1.07,-0.42 -2.18,-0.85 -3.24,-1.34 -2.73,-1.27 -5.48,-2.52 -8.23,-3.77 -4.08,-1.87 -8.33,-3.8 -12.45,-5.77 -5.66,-2.7 -11.45,-5.44 -17.31,-8.18 -1.93,-3.02 -4.08,-5.73 -6.2,-8.08 0.8,0.42 1.64,0.78 2.48,1.03 4.1,1.22 5.95,0.78 6.67,0.21 0.51,-0.41 0.41,-1.88 0.63,-2.63 0.45,2.09 0.9,3.29 1.7,4.56 0.8,1.28 2.57,4.47 4.27,4.47 0.02,0 0.04,0 0.06,0 1.72,-0.06 3.59,-2.39 4.18,-4.46 1.48,1.63 2.91,3.42 4.6,4.72zm-14.07 13.56c1.31,4.98 4.72,21.92 -6.46,30.92 -18.32,14.75 -51.11,2.56 -56.4,-0.29 -6.11,-3.3 -22.32,-12.08 -24.99,-28.71 -0.7,-4.36 -0.74,-11.2 2.98,-19.11 6.79,-14.39 21.58,-19.16 27.61,-20.55 16.93,-3.88 29.6,4.51 33.75,7.26 0.27,0.18 0.51,0.34 0.72,0.47 0.74,0.48 18.24,11.9 22.75,29.84l0.04 0.16zm-86.11 23.89c-2.69,-5.83 -4.41,-9.65 -5.58,-13.29l4.57 -2.99c1.23,3.45 2.97,6.53 4.96,9.25l-3.94 7.02zm-1.07 -41.39c-0.16,0.36 -0.31,0.72 -0.47,1.08 -0.7,-0.15 -1.48,-0.45 -2.24,-0.99 -0.27,-0.2 -1.25,-0.96 -1.87,-2.21 -1.19,-2.34 -0.45,-4.98 0.14,-7.12l0.02 -0.07c2.09,-7.53 3.14,-11.32 3.49,-12.7 0.31,-1.16 0.59,-2.23 0.82,-3.2 0.98,-3.96 1.56,-6.35 3.14,-6.73 0.43,-0.11 0.8,-0.03 1.35,0.11 3.9,1.02 5.17,2.75 7.76,4.34 2.99,1.83 8.84,3.23 16.74,6.32 -6.38,1.51 -22.07,6.75 -28.87,21.17zm-2.32 8.88l-4.15 2.52c0.16,-2.4 0.49,-4.84 0.99,-7.32 0.57,0.29 1.15,0.54 1.76,0.73 0.62,0.21 1.29,0.36 1.93,0.46 -0.27,1.24 -0.43,2.45 -0.53,3.6zm0.96 10.64c0.27,1.7 0.68,3.33 1.19,4.89l-4.57 2.98c-0.27,-0.94 -0.53,-1.88 -0.76,-2.85 -0.9,-3.91 -1.25,-8 -1.03,-12.23l4.18 -1.98c-0.06,3.65 0.6,6.79 0.99,9.19zm-147.2 -112.07c4.21,1.49 6.91,2.53 9.09,3.36 2.97,1.15 5.13,1.97 9.05,3.15 5.01,1.49 7.65,1.99 9.99,2.42 2.54,0.47 4.72,0.88 9.27,2.45 2.77,0.96 4.54,1.71 6.28,2.43 1.74,0.73 3.41,1.44 6.01,2.32 -7.94,-1.59 -15.86,-3.45 -23.9,-4.61 -16.12,-2.32 -21.75,-3.55 -32.8,-4.52 -10.24,-0.9 -19.55,-0.05 -25.89,-0.21 -6.71,-0.16 -13.64,-0.33 -24.97,-1.37 -6.89,-0.63 -13.77,-1.44 -20.54,-2.4 4.12,-0.72 8.84,-1.55 13.7,-2.4 8.99,-1.59 18.32,-3.23 24.85,-4.32 0.86,-0.14 8.49,-1.38 17.56,-1.96 1.64,-0.11 2.95,-0.16 4.35,-0.2 5.93,1.77 11.98,3.74 17.95,5.86zm52.64 16.33c-4.25,-1.32 -5.97,-2.54 -8.25,-3.5 -1.72,-0.73 -3.47,-1.91 -6.28,-2.88 -4.58,-1.59 -7.28,-1.24 -9.85,-1.72 -2.3,-0.43 -4.92,-0.92 -9.89,-2.4 -3.9,-1.16 -6.05,-1.99 -9.01,-3.13 -2.18,-0.84 -4.78,-2.79 -9.01,-4.28 -5.27,-1.87 -10.69,-2.71 -15.94,-4.32 2.93,-0.03 6.79,0.05 10.67,0.66 2.4,0.38 3.36,0.74 4.7,1.23 1.44,0.53 3.55,1.85 7.84,2.81 5.64,1.26 7.04,1.13 9.25,0.81 1.09,-0.16 2.42,-0.84 3.08,-1.02 0.9,-0.24 1.6,-0.43 2.83,-0.45 3.34,-0.07 5.81,1.33 7.78,2.43l0.27 0.16c3.41,1.88 4.84,2.36 6.48,2.92 1.78,0.6 3.79,1.28 8.94,3.96 4.25,2.23 6.42,3.61 7.98,4.62 1.83,1.16 3.02,1.94 5.93,3.03 3.57,1.34 5.17,2.14 8.35,3.74 4.96,2.48 5.19,3.12 5.19,3.23 -0.08,0.35 -1.89,0.71 -4.12,0.48 -2.5,-0.26 -4.15,-1.26 -5.93,-2.31 -0.51,-0.3 -1.02,-0.6 -1.56,-0.9 -1.81,-0.99 -2.85,-1.27 -4.88,-1.83 -1.13,-0.31 -2.54,-0.69 -4.57,-1.32zm99.24 128.12c-1.21,0.49 -2.4,1.1 -3.53,1.79 -0.25,-2.52 -0.35,-5 -1.09,-7.45 -1.5,-4.89 -3.8,-7.79 -5.27,-10.54 -1,-1.88 -1.95,-3.65 -2.79,-5.95 -1.95,-5.27 -1.78,-10.63 -1.39,-21.29 0.14,-4.05 0.7,-12.41 2.91,-22.89 1.35,-6.33 3.1,-12.62 5.27,-18.69 0.04,-0.13 0,-0.28 -0.1,-0.38 -0.1,-0.1 -0.25,-0.13 -0.37,-0.07 -2.32,0.93 -4.68,1.35 -7,1.26 -1.93,-0.08 -3.02,-0.48 -5.19,-1.28 -1.4,-0.52 -3.16,-1.16 -5.83,-1.98 -5.29,-1.62 -7.47,-1.86 -8.9,-1.89 -1.21,-0.03 -2.46,0.06 -3.67,0.25 -0.62,-0.34 -1.25,-0.66 -1.89,-0.96 -0.96,-0.44 -2.05,-0.83 -3.26,-1.16 0.76,-0.17 1.29,-0.45 1.46,-0.9 0.29,-0.81 -0.35,-2.14 -0.51,-2.41 -1.95,-3.32 -13.69,-4.01 -22.22,-3.27 -12.27,1.05 -19.1,1.88 -27.04,4.45 -5.54,1.79 -10.34,4.56 -15.32,7.51 -1.27,-1.13 -2.46,-2.02 -3.41,-2.69 3.67,-2.02 7.45,-3.81 11.33,-5.3 7.61,-2.91 13.79,-4.05 17.5,-4.72 4.9,-0.9 14.01,-2.57 25.67,-1.79 6.95,0.47 11.98,0.8 18.22,3.18 2.21,0.85 3.77,1.63 5.4,2.47 2.01,1.03 4.31,2.2 8.31,3.68 1.29,0.48 14.4,5.04 15.1,3.41 0.33,-0.77 -1.89,-3.16 -9.68,-7.5 -6.16,-3.45 -11.59,-4.62 -16.99,-6.85l-0.86 -0.36c-13.64,-5.65 -20.46,-8.48 -21.87,-9.33 -0.92,-0.55 -1.78,-1.1 -2.61,-1.63 -3.98,-2.52 -7.39,-4.7 -12.78,-5.34 -1.05,-0.13 -1.78,-0.14 -2.65,-0.16 -0.94,-0.02 -2.13,-0.05 -4.15,-0.23 -5.5,-0.49 -9.52,-1.42 -11.92,-1.98l-0.84 -0.19c-7.88,-1.78 -15.16,-2.91 -21.29,-2.74 -9.15,0.25 -16.37,2.29 -28.03,4.78 -2.99,0.63 -5.72,1.75 -8.55,2.7 -11.36,-1.42 -26.49,-2.95 -44.23,-3.51 -18.48,-0.58 -37.24,-0.8 -53.08,0.45 -2.03,0.16 -10.54,1.3 -22.26,3.4 -3.3,-0.42 -6.59,-0.92 -9.87,-1.52 -5.58,-1.02 -8.55,-1.82 -12.62,-2.93 -2.93,-0.79 -6.59,-1.78 -12.21,-3.1 -5.25,-1.23 -8.72,-1.94 -11.51,-2.51 -4.47,-0.91 -6.95,-1.41 -11.72,-3.09 -6.32,-2.21 -9.72,-4.34 -16.45,-8.59 -4.61,-2.89 -6.4,-4.49 -6.19,-5.51 0.18,-0.78 1.44,-1.43 3.51,-1.86 0.55,0.13 1.07,0.26 1.6,0.39 23.18,5.48 34.98,7.67 44.25,8.43 26.88,2.19 49.46,-1.63 60.25,-3.34 1.99,-0.32 4.66,-0.77 7.77,-1.3 7.47,1.11 14.73,3.45 22.36,4.15 11.36,1.04 18.73,-0.22 25.44,-0.05 6.34,0.15 12.88,0.31 23.12,1.21 11,0.96 19.08,2.13 35.18,4.45 10.16,1.47 20.41,3.1 30.45,4.85 0.43,0.12 0.8,0.23 1.17,0.32 2.05,0.56 2.99,0.81 4.72,1.77 0.55,0.29 1.05,0.59 1.54,0.89 1.85,1.09 3.59,2.12 6.22,2.4 0.02,0 0.68,0.07 1.52,0.07 1.35,0 6.09,0.48 6.3,-0.44 0.16,-0.61 -2.28,-2.31 -7.67,-5.01 -3.2,-1.61 -5.64,-2.08 -9.25,-3.44 -2.83,-1.07 -3.94,-1.78 -5.79,-2.97 -1.58,-1.02 -3.1,-2.89 -7.39,-5.13 -5.19,-2.71 -7.88,-2.91 -9.68,-3.52 -1.6,-0.55 -3.01,-1.02 -6.36,-2.87l-0.27 -0.16c-1.93,-1.06 -4.1,-3.35 -7.55,-3.35 -0.04,0 -0.1,0 -0.16,0 -1.31,0.02 -2.53,1.06 -3.43,1.31 -0.66,0.18 -1.39,0.37 -2.44,0.53 -2.13,0.31 -4.33,0.24 -9.87,-0.99 -4.25,-0.95 -6.01,-1.59 -7.43,-2.11 -1.33,-0.49 -2.38,-0.87 -4.86,-1.27 -5.03,-0.8 -9.38,-1.11 -12.39,-1.04 0,0 0,0 0,0 -1.42,0.03 -4.74,0.02 -6.42,0.13 -9.09,0.58 -15.55,1.37 -16.41,1.51 -6.55,1.09 -14.79,2.64 -23.8,4.23 -9.68,1.71 -19.78,4.34 -24.74,5.13 -10.75,1.71 -32.77,4.25 -59.58,2.06 -9.21,-0.75 -20.82,-3.5 -43.99,-8.98 -4.94,-1.17 -12.27,-2.91 -12.99,-4.98 17.79,-2.08 35.84,-3.46 53.59,-4.09 25.01,-0.89 45.48,-0.2 55.43,0.29 13.34,0.65 20.58,2.59 25.91,3.17 6.54,0.71 10.52,-0.01 19.53,-0.44 1.5,-0.07 3.04,-0.16 4.64,-0.26 8.04,-0.48 18.03,-1.06 31.37,0.26 5.31,0.52 10.61,1.3 15.8,2.3 2.05,0.84 3.96,1.9 6.69,2.28 3.22,0.45 12,0.47 12.35,-1.29 0.16,-0.84 -2.85,-1.63 -5.93,-3.18 -1,-0.5 -2.18,-1.1 -3.61,-1.85 -2.34,-1.23 -4.68,-2.6 -6.93,-3.92 -1.25,-0.73 -2.5,-1.46 -3.77,-2.18 -5.64,-3.19 -8.27,-4.73 -9.68,-5.56 -1.44,-0.84 -1.6,-0.93 -2.32,-1.25 -2.52,-1.12 -6.05,-2.54 -13.87,-4.73 -3.14,-0.88 -5.93,-1.19 -7.61,-1.63 -2.17,-0.58 -3.75,-1 -6.54,-1.83 -4.6,-1.36 -7.86,-2.46 -9.81,-3.12 -0.55,-0.19 -0.99,-0.34 -1.35,-0.45 -10.24,-3.31 -21.3,-1.87 -28.64,-0.92l-1.68 0.22c-21.69,2.74 -36.95,2.01 -45.94,0.92 -11.86,-1.44 -22.49,-5.06 -43.66,-12.27 -9.25,-3.16 -12.9,-4.76 -15.55,-5.94 -2.56,-1.13 -4.23,-1.87 -9.15,-3.19 -0.92,-0.25 -1.83,-0.48 -2.75,-0.72 -6.75,-1.75 -13.76,-3.55 -21.03,-9.12 -2.01,-1.54 -6.71,-5.15 -6.01,-7.3 0.98,-2.89 11.36,-2.18 16.93,-1.8 23.84,1.63 42.41,5.39 44.46,5.81 20.56,4.27 30.88,6.41 44.62,10.22 7.41,2.05 11.39,3.34 15.26,4.58 4.41,1.42 8.56,2.76 17.3,5.01 2.32,0.6 4.45,1.13 6.44,1.63 6.97,1.73 12.45,3.1 20.25,5.91 9.33,3.36 14.03,5.05 16.06,6.2 0.2,0.11 4.9,3.04 11.43,5.12 4.82,1.54 7.16,1.65 7.43,1.16 0.25,-0.45 -1.52,-2.09 -4.12,-4.31 -2.03,-1.71 -3.55,-2.28 -5.31,-2.94 -1.07,-0.4 -2.28,-0.85 -3.75,-1.62 -2.36,-1.25 -2.89,-2.28 -3.77,-3.12 -0.96,-0.93 -1.29,-1.88 -3.24,-2.32 -1.19,-0.27 -3.26,-0.11 -4.19,-0.15 -1.46,-0.06 -2.52,-0.11 -3.06,-0.92 -0.31,-0.46 -0.29,-0.91 -0.27,-1.43 0.02,-0.58 0.57,-1.77 0.12,-2.5 -0.94,-1.52 -3.51,-1.19 -5.15,-1.35 -0.29,-0.03 -0.56,-0.05 -0.84,-0.09 -2.85,-0.36 -5.19,-1.98 -9.87,-5.22 -4.97,-3.45 -10.26,-9.05 -10.65,-11.3 -0.04,-0.16 -0.04,-0.37 0.04,-0.49 0.66,-0.94 6.42,0.64 11.12,3.93 1.81,1.28 2.79,2.32 4.14,3.78 1.41,1.5 3.14,3.37 6.54,6.23 2.3,1.93 6.36,5 7.63,3.92 0.35,-0.29 0.39,-0.76 0.43,-1.14 0.02,-0.15 0.04,-0.41 0.08,-0.46 0.14,-0.03 0.51,0.15 1.68,1.61l0.1 0.15c1.38,1.73 2.57,3.61 5.68,5.85 2.38,1.72 5.42,2.9 9.25,3.73 0.25,0.06 0.49,0.1 0.72,0.15 0.82,0.15 1.52,0.29 2.46,0.76 1.72,0.86 2.73,2.1 3.34,2.84 0.45,0.54 1.31,1.95 1.66,1.74 1.05,-0.61 -2.75,-7.4 -2.89,-7.64 -2.32,-4.07 -4.8,-6.95 -6.13,-8.35 -3.39,-3.62 -5.68,-9.92 -6.81,-18.71 1.33,3.7 2.91,7.32 4.76,10.8 1.17,3.75 3,6.6 3.71,7.68 3.08,4.81 7.22,8.73 7.28,8.76 0.35,0.34 0.68,0.64 1.02,0.94 1.29,1.19 2.24,2.05 3.16,3.7 0.57,0.99 0.78,1.69 1.02,2.42 0.19,0.63 0.41,1.27 0.84,2.1 0.99,1.96 2.11,4.14 4.86,6.09 3.36,2.35 5.99,2.53 8.35,3.35 2.13,0.74 4.33,1.5 7.65,3.48 1.17,0.7 2.09,1.32 2.98,1.92 1.83,1.23 3.41,2.3 6.15,3.29 1,0.37 2.61,0.8 5.85,1.68 2.71,0.73 5.35,2.83 5.99,2.83 0.43,0 0.6,-0.12 0.76,-0.31 0.66,-0.88 -1.93,-4.29 -4.37,-7.47 -0.53,-0.69 -1.11,-1.45 -1.72,-2.27 -1.76,-2.35 -2.32,-3.25 -3.02,-4.38 -0.72,-1.16 -1.7,-2.82 -3.82,-6.66 -0.35,-0.63 -3.86,-6.08 -8.55,-11.86 -9.91,-12.21 -20.11,-21.17 -30.24,-30.82l-0.16 -0.15c-2.11,-2.01 -4.47,-3.65 -6.55,-5.59 0.12,-0.79 0.25,-1.52 0.37,-2.28 0.33,-1.79 1.38,-3.72 1.85,-7.28 0.41,-3.16 0.76,-5.84 1.05,-8.53 0.39,0.25 0.78,0.49 1.17,0.74 7.98,12.92 14.26,24.64 22.26,36.06 1.52,2.13 4.57,5.64 5.93,7.55 3.53,4.98 7.04,8.75 11.65,15.73 3.26,4.96 5.31,8.25 6.81,10.66 2.15,3.44 3.12,5.01 4.86,6.96l0.14 0.16c0.9,0.98 2.71,3.03 4.14,6.19 0.53,1.21 0.76,1.98 0.96,2.67 0.2,0.69 -0.12,2.14 0.31,2.91 1.72,3.07 5.42,3.31 8.56,4.36 0.37,0.13 0.76,0.26 1.15,0.39 3.43,1.2 6.67,3.04 9.81,4.82 1.7,0.96 3.47,1.96 5.25,2.84l0.14 0.07c8.86,4.43 13.29,6.65 14.57,7.35 1.83,1.01 3.41,1.92 4.8,2.72 3.43,1.98 5.27,3.62 6.28,3.62 0.31,0 1.97,0.3 2.15,0.11 0.55,-0.59 -1.41,-2.44 -2.38,-4.09 -0.78,-1.3 -1.83,-3.08 -2.79,-5.41 -1.29,-3.11 -1.64,-5.35 -2.01,-7.72 -0.14,-0.84 -0.27,-1.69 -0.45,-2.61 -1.29,-6.68 -2.03,-11.02 -6.57,-19.15 -1.91,-3.44 -3.71,-4.94 -5.23,-7.03 -1.27,-1.75 -3.8,-3.95 -6.58,-8.24 -3.77,-5.87 -5.74,-9.41 -7.3,-12.26 -1.76,-3.19 -2.34,-5.66 -4.88,-8.82 -1.56,-1.95 -3.36,-3.76 -5.31,-5.48 1.27,0.98 2.54,2.01 3.82,3.13 2.3,2 2.83,2.66 4.78,5.11 2.09,2.63 5.99,7.54 15.74,18.63l1.83 2.08c6.63,7.52 9.13,10.33 10.85,15.61 0.14,0.42 0.16,0.56 1.72,7.9l1.74 8.16c1.29,6.03 1.31,10.2 2.44,12.92 1.03,2.49 3.41,7.49 8.23,11.95 2.42,2.23 5.17,2.9 8.82,4.72 6.32,3.14 10.59,4.76 16,6.83 2.42,0.92 4.92,1.88 7.94,3.09 9.07,3.65 13.62,5.49 17.66,7.54 1.5,0.77 2.91,1.51 4.19,2.19 3.63,1.93 6.38,3.96 7.74,3.96 0.43,0 1.52,-0.09 1.78,-0.35 0.47,-0.53 -0.55,-2.49 -3.34,-7.16 -3.92,-6.57 -7.8,-11 -9.03,-12.21 -2.79,-2.73 -3.28,-4.06 -4.23,-5.3 -1.21,-1.55 -2.97,-3.69 -9.48,-10.48 -3.9,-4.07 -6.59,-5.69 -13.6,-12.52 -1.89,-1.85 -4.16,-4.05 -6.93,-6.74 -8.17,-8 -11.28,-11.04 -13.11,-12.86 -1.56,-1.55 -2.09,-2.07 -4.1,-3.98 -3.77,-3.61 -6.67,-6.32 -9.01,-8.5 -4.62,-4.3 -7.41,-6.89 -11.63,-11.41 -2.95,-3.13 -5.79,-6.37 -8.53,-9.66 -0.62,-1.33 -1.25,-2.65 -1.93,-3.96 -4.76,-9.11 -9.48,-15.01 -16,-26.06 -7.16,-12.15 -9.56,-18.7 -13.09,-23.29 -3.49,-4.53 -8.43,-9.72 -17.68,-19.58 -0.88,-0.93 -1.68,-1.77 -2.46,-2.53 -3.9,-8.38 -7.45,-16.94 -10.56,-25.5 -3.08,-8.48 -4.7,-14.81 -7.9,-27.41 -1.97,-7.73 -2.56,-10.92 -2.13,-12.07 0.02,0.01 0,0.01 0.02,0.02 3.73,6.65 7.12,13.45 10.1,20.23 1.95,4.43 3.24,7.73 4.27,10.39 1.79,4.6 2.99,7.64 5.89,12.31 2.38,3.83 3.8,5.37 5.62,7.32 1.68,1.78 3.73,3.99 7.2,8.74 3.82,5.26 5.7,8.58 7.51,11.79 1.81,3.2 3.53,6.22 6.98,10.74 3.41,4.45 5.79,6.78 8.55,9.48 1.46,1.43 3.12,3.05 5.13,5.18 6.81,7.25 9.42,11.54 12.7,16.97 2.52,4.16 4.88,10.25 10.3,17.31 3.9,5.09 6.09,6.5 9.42,9.91 3.49,3.59 8.9,8.12 20.19,21.09 12.18,13.96 14.65,17.54 17.13,21.89 2.91,5.11 4.17,8.51 5.31,11.52 1.41,3.76 2.61,7.01 6.54,12.3 1.89,2.56 3.86,4.84 6.12,7.47 2.38,2.76 5.09,5.89 8.55,10.28 0.51,0.64 0.94,1.19 1.31,1.68 1.44,1.85 2.22,2.87 3.77,4.43 0.98,1.01 1.76,1.73 2.44,2.36 1.31,1.21 2.11,1.94 3,3.54 0.57,1.02 0.8,1.75 1.03,2.41 0.27,0.85 0.53,1.58 1.33,2.57 1.79,2.2 4.19,2.98 5.33,3.36l0.12 0.04c0.06,0.02 0.1,0.03 0.14,0.04 0.25,0.35 1.5,2.48 18.73,11.01 3.59,1.78 7.37,3.12 11.1,4.62 -4.21,-0.5 -8.86,-0.44 -13.77,0.57 -8.33,-3.41 -13.87,-6 -16.95,-7.88 -2.69,-1.65 -4.68,-2.17 -8.64,-3.2 -0.6,-0.16 -1.09,-0.26 -1.7,-0.12 -1.99,0.48 -2.61,3.03 -3.67,7.25 -0.23,0.97 -0.51,2.03 -0.8,3.19 -0.37,1.37 -1.99,4.96 -4.08,12.49l-0.02 0.1c-0.62,2.24 -1.52,5.74 -0.21,8.32 0.68,1.36 2.05,2.07 2.46,2.36 0.84,0.6 1.79,0.79 2.67,0.86 -0.33,0.9 -0.63,1.78 -0.84,2.65 -0.62,-0.09 -1.27,-0.24 -1.87,-0.44 -0.7,-0.23 -1.39,-0.54 -2.05,-0.91 -0.1,-0.06 -0.21,-0.07 -0.31,-0.02 -0.1,0.05 -0.18,0.14 -0.2,0.25 -1.62,7.44 -2.22,14.53 -0.68,21.19 1.23,5.33 3.53,10.63 7.63,19.53 1.23,2.64 2.71,4.76 4.1,7.12 -0.55,0.18 -1.11,0.38 -1.66,0.6zm33.44 5.76c17.87,10.34 21.21,31.39 22.48,39.32 1.46,9.38 5.4,34.31 -11.49,47.41 -11.14,8.64 -25.73,7.93 -34.84,4.7 -15.88,-5.63 -22.1,-20.21 -26.24,-29.86 -2.98,-6.97 -12.06,-28.2 -1.54,-47.63 4.57,-8.41 10.77,-14.24 18.48,-17.34 14.92,-6.01 29.17,1.09 33.17,3.4zm-62.88 18.87c-11.82,13.83 -21.79,23.35 -30.57,31.75 -10.11,9.66 -18.85,18.01 -31.74,28.04 -16.27,12.66 -29.56,20.51 -38.36,25.71 -16.54,9.77 -34.16,18.41 -52.4,25.7 -16.21,6.5 -31.6,12.65 -36.44,9.89 8.62,-9.24 18.07,-17.95 28.04,-25.85 6.75,-5.34 11.24,-8.33 18.03,-12.85 3.77,-2.51 8.47,-5.64 14.71,-9.94 10.4,-7.18 25.67,-15.95 40.6,-27.81 6.95,-5.52 9.87,-8.19 14.77,-12.68 4.74,-4.34 10.01,-11.16 24,-23.28 16.25,-14.1 29.81,-25.44 40.33,-33.71 8.27,-6.51 16.76,-12.92 25.19,-19.07 0.92,1.28 2.07,2.26 2.79,3.6 1.42,2.68 2.91,5.46 4.35,10.17 -7.16,10.43 -14.98,20.63 -23.27,30.31zm-178.94 94.18c2.97,-4.79 5.58,-8.52 12.66,-18.11 12.53,-16.97 18.83,-25.49 22.57,-29.39 5.11,-5.31 12.7,-10.75 26.45,-20.62 12.56,-9 21.79,-15.23 31.57,-21.83 1.81,-1.22 3.63,-2.45 5.46,-3.7 12.08,-8.18 24.46,-16.71 36.78,-25.36 4.12,1.27 8.49,1.91 12.8,1.91 1.5,0 3.02,-0.09 4.53,-0.28 18.26,-2.29 30.18,-16.96 32.41,-23.03 1.52,-4.13 2.59,-8.25 3.3,-12.26l4.74 -2.81c-0.39,6.75 -0.68,11.28 0.86,15.43 0.16,0.43 0.35,0.8 0.56,1.16 -8.53,6.06 -17.66,11.29 -25.95,17.82 -10.52,8.28 -22.98,18.19 -39.25,32.3 -13.99,12.13 -20.89,20.83 -25.64,25.18 -4.9,4.48 -7.57,6.95 -14.51,12.45 -14.91,11.84 -29.15,21.66 -39.55,28.84 -6.24,4.29 -11.33,6.43 -15.1,8.94 -6.83,4.54 -12.66,7.32 -19.41,12.68 -10.03,7.95 -17.81,17.88 -26.44,27.19 -0.14,-0.12 -0.25,-0.25 -0.35,-0.39 -2.56,-3.44 3.04,-12.45 11.51,-26.11zm193.59 -162.27c-0.08,1.89 -0.16,3.64 -0.25,5.26l-4.6 3.11c2.44,-15.16 -0.08,-28.31 -1.48,-32.2 -2.15,-5.97 -6.09,-15.77 -14.87,-21.23 0.92,-0.1 1.79,-0.15 2.69,-0.13 0.84,0.01 2.81,0.05 8.7,1.86 2.65,0.81 4.39,1.45 5.79,1.97 2.17,0.8 3.36,1.24 5.42,1.32 2.17,0.09 4.37,-0.26 6.56,-1.04 -2.05,5.88 -4.88,11.81 -6.17,17.91 -2.22,10.54 -1.66,19.08 -1.79,23.16zm-73.08 30.81c-8.52,-12.42 -6.54,-31.26 -4.02,-40.43 1.58,-5.79 6.42,-23.42 22.92,-32.01 7.12,-3.7 13.19,-4.99 18.16,-4.99 4.47,0 8.06,1.03 10.79,2.27 10.54,4.81 14.28,15.23 16.76,22.13 1.77,4.95 4.76,22.18 -2.65,42.25 -2.2,5.95 -11.84,21.89 -29.73,24.14 -5.74,0.72 -11.51,0.01 -16.74,-1.86 -0.04,-0.04 -0.1,-0.05 -0.16,-0.06 -6.28,-2.28 -11.75,-6.24 -15.34,-11.45zm32.06 -79.53c0.39,0.16 0.78,0.3 1.19,0.41 -4.45,0.65 -9.46,2.18 -14.9,5.01 -0.45,0.23 -0.88,0.48 -1.31,0.73 -4.45,-0.74 -8.91,-1.82 -13.36,-2.21 -4.96,-0.43 -10.01,-0.12 -14.98,-0.17 3.14,-1.46 6.36,-2.74 9.64,-3.8 6.48,-2.1 11.78,-2.83 20.25,-3.6 5.27,0.39 9.46,1.96 13.48,3.64zm13.17 -0.81c-0.21,0.57 -1.13,0.96 -2.57,1.13 -1.74,-0.24 -3.63,-0.35 -5.7,-0.26 -1.25,-0.23 -2.67,-0.61 -4.15,-1.24 -3.12,-1.3 -6.65,-2.24 -10.54,-2.78 0.74,-0.06 1.5,-0.13 2.28,-0.2 11.61,-0.99 19.02,-0.25 20.39,2.06 0.12,0.2 0.47,0.79 0.29,1.29zm-47.54 18.74c-2.32,0.38 -4.68,0.68 -7.04,0.91 -0.04,-0.14 -0.08,-0.28 -0.14,-0.42 -1.87,-5.18 -4.98,-8.95 -7.78,-11.57 1.48,-0.84 2.99,-1.64 4.51,-2.38 5.44,0.15 10.96,0.46 16.39,0.94 4.1,0.36 8.25,0.82 12.37,1.36 -4.53,2.75 -8.19,6.16 -11.16,9.74 -2.36,0.55 -4.76,1.03 -7.14,1.42zm-9.31 23.32c-1.52,5.75 -5.6,21.04 -20.45,31.57 -8.64,6.14 -25.42,15.26 -40.64,7.43 -12.97,-6.69 -16.31,-21.87 -17.03,-26.36 -1.6,-10.07 1.15,-18.71 4.68,-25.34 0.04,-0.04 0.06,-0.1 0.08,-0.15 2.69,-5.02 5.79,-8.88 7.76,-11.33 4.47,-5.52 14.91,-18.45 31.53,-19.21 0.51,-0.02 1.03,-0.04 1.54,-0.04 9.95,0 17.54,4.4 20.43,6.36 2.58,1.76 9.42,6.42 12.64,15.27 3.02,8.37 1.05,15.81 -0.55,21.8zm-109.12 -15.02c-8.68,-0.78 -24.52,-3.41 -53.28,-8.2 -15.92,-2.65 -23.35,-4.02 -32.83,-8.81 -14.34,-7.24 -18.55,-12.28 -19.14,-15.53 7.74,1.7 15.12,4.19 23.06,5.13 14.16,1.68 25.3,0.51 38.59,0.57 18.86,0.09 29.22,0.08 36.07,0.07 6.26,-0.01 10.03,-0.02 15.18,0.06 15.96,0.24 32.37,1.12 48.77,2.59 -7.28,4.93 -12.54,11.29 -15.16,14.54 -1.93,2.39 -4.88,6.27 -7.47,11.28 -11.28,-0.12 -22.63,-0.69 -33.79,-1.69zm128.37 -34.18c-0.45,0.09 -0.98,0.18 -1.52,0.29 -5.83,-2.28 -11.36,-4.75 -17.44,-6.5 -4.17,-1.21 -16.62,-5.36 -40.11,-8.68 -2.38,-0.34 -5.09,-0.71 -8.1,-1.1 2.24,-0.53 4.51,-1.05 6.77,-1.53 11.63,-2.48 18.65,-3.97 27.74,-4.22 6.09,-0.17 12.99,-0.35 20.8,1.4l0.84 0.19c2.4,0.56 6.46,1.5 12.02,2 2.05,0.18 3.24,0.21 4.19,0.23 0.88,0.02 1.56,0.03 2.6,0.15 5.21,0.62 7.82,2.77 11.72,5.25 0.84,0.54 4.02,2.71 4.92,3.26 1.46,0.88 6.77,2.09 20.43,7.75l0.86 0.36c5.38,2.22 10.01,4.14 16.15,7.57 6.38,3.56 8.12,4.92 8.37,5.42 -0.98,0.28 -6.75,-1.28 -12.43,-3.38 -3.96,-1.46 -6.15,-2.57 -8.23,-3.65 -1.68,-0.84 -2.69,-2.08 -4.94,-2.94 -6.34,-2.42 -11.47,-3.13 -18.5,-3.6 -11.76,-0.78 -21.21,0.84 -26.14,1.74zm-233.64 0.13c0.59,-3.44 10.46,-7.17 29.32,-11.12 19.49,-4.07 34.77,-5.41 37.63,-5.63 15.8,-1.25 33.93,-1.6 52.36,-1.03 16.7,0.53 30.88,1.71 41.85,2.93 0.02,0 0.02,0 0.02,0 4.72,0.53 8.84,1.06 12.31,1.55 7.96,1.13 14.69,2.3 20.25,3.39l31.59 8.43c1.79,0.62 3.59,1.25 5.38,1.9 -3.98,0.82 -9.64,2.2 -15.61,4.48 -4.04,1.54 -7.39,3.85 -11.04,6.05 -0.18,-0.12 -0.35,-0.23 -0.49,-0.34 -3.1,-2.11 -12.31,-7.92 -23.23,-7.41 -6.67,0.31 -12.62,2.8 -17.68,6.05 -16.64,-1.66 -32.41,-4.11 -48.68,-4.36 -5.17,-0.08 -8.99,0.71 -15.24,0.72 -6.85,0.01 -18.22,0.95 -37.09,0.86 -13.27,-0.06 -23.74,-0.12 -37.89,-1.79 -8,-0.95 -16.02,-2.28 -23.84,-3.95 0,-0.27 0.02,-0.52 0.06,-0.76zm-25.67 -59.54c15.76,-3.67 28.85,-4.67 35.27,-4.94 23.92,-1 38.36,-1.6 58.53,0.92 3.55,0.44 6.69,0.91 10.01,1.41 6.54,0.97 13.03,2.68 23.92,3.67 13.54,1.23 20.13,0.91 20.19,0.91 3.69,0.22 6.52,0.35 9.03,0.46 5.99,0.27 9.29,0.41 14.77,1.5 4.56,0.91 7.49,1.49 10.38,2.29 -3.04,-0.7 -6.11,-1.37 -9.15,-1.67 -13.4,-1.32 -23.31,0.15 -31.37,0.63 -1.6,0.09 -3.14,0.19 -4.64,0.26 -8.96,0.43 -12.88,0 -19.39,-0.7 -5.33,-0.58 -12.62,-1.37 -25.97,-2.03 -9.97,-0.49 -30.53,-2.78 -55.56,-1.89 -17.75,0.63 -35.7,3.57 -53.49,5.68 0.99,-2.64 11.63,-5.12 17.48,-6.49zm126.42 -52.09c-2.24,-3.06 -3.67,-5.29 -5.03,-7.45 -0.72,-1.14 -1.41,-2.22 -2.18,-3.39 -3.45,-5.14 -6.26,-8.23 -8.97,-11.23 -0.84,-0.94 -1.68,-1.86 -2.5,-2.81 -5.44,-6.31 -9.23,-13.58 -16.76,-28.06 -7.1,-13.65 -11.26,-24.15 -13.75,-30.43 -2.48,-6.24 -5.76,-15.01 -7.24,-21.31 -2.16,-9.31 -2.61,-16.45 -2.89,-21.18 -0.8,-12.95 -0.29,-17.22 0.41,-18.26 1.33,10.21 2.17,20.86 4.88,30.84 3.92,14.58 9.4,24.26 16.43,41.03 8.27,19.75 12.41,29.67 18.48,39.03 1.38,2.16 2.71,4.09 4,5.96 3.04,4.41 5.91,8.59 9.64,15.61 0.59,1.13 1.17,2.25 1.74,3.38 1.83,3.56 3.73,7.24 6.79,12.16 0.04,0.05 0.06,0.1 0.1,0.14 -1.07,-1.33 -2.13,-2.68 -3.12,-4.05zm-54.55 -136.93c0.68,1.6 1.46,3.42 2.34,5.41 1.87,4.19 2.73,5.7 4.57,9.01 1.58,2.83 3.96,7.11 8.41,15.64 8.23,15.77 12.37,23.69 16.56,33.24 5.31,12.12 7.98,18.21 10.59,27.73 0.88,3.2 1.46,5.7 2.07,8.36 0.96,4.11 1.93,8.35 4.12,15.35 0.68,2.18 2.6,8.08 5.38,15.66 1.09,2.99 2.26,5.98 3.45,8.95 -2.65,-4.34 -4.39,-7.72 -6.07,-10.99 -0.59,-1.14 -1.15,-2.25 -1.76,-3.39 -3.73,-7.06 -5.21,-11.24 -8.25,-15.67 -1.29,-1.86 -4.55,-8.01 -5.95,-10.16 -6.01,-9.31 -9.62,-14.99 -17.87,-34.71 -7,-16.74 -11.24,-26.85 -15.16,-41.39 -2.69,-9.96 -4.74,-20.16 -6.11,-30.34 0.84,0.7 2.17,3.8 3.67,7.31zm43.97 47.76c5.01,-0.94 10.14,-1.47 15.26,-1.59 0.51,3.91 1.19,8.88 2.26,16.27 -4.86,-1.8 -9.73,-3.98 -14.75,-5.12 -5.19,-1.18 -10.61,-1.32 -15.94,-1.79 -0.59,-1.21 -1.17,-2.43 -1.79,-3.69 4.86,-1.76 9.89,-3.13 14.96,-4.08zm-13.07 -7.54c-0.76,-3.5 -0.94,-5.75 -1.29,-10.69l-0.16 -2.14c-0.23,-3.4 -0.47,-6.12 -0.64,-8.29 -0.45,-5.56 -0.6,-7.51 -0.2,-8.21 2.36,4.56 4.72,9.13 7.1,13.71 3.61,6.97 7.3,14.03 10.96,21.03 -0.92,0.1 -1.85,0.22 -2.77,0.39 -3.45,0.64 -6.89,1.85 -10.28,3.17 -1.13,-2.91 -2.07,-5.92 -2.73,-8.97zm7.71 -22.43c1.07,1.03 2.24,2.15 3.51,3.36 5.29,4.98 10.73,9.83 16.21,14.45 0.16,3.39 0.27,5.41 0.29,5.65 0.16,1.3 0.33,2.66 0.51,4.18 -3.9,-0.03 -7.8,-0.2 -11.67,0.13 -3.63,-7.09 -6.61,-14.35 -10.28,-21.4 -2.38,-4.59 -5.54,-9.07 -7.94,-13.64 1.58,-0.2 4.58,2.69 9.36,7.26zm23.9 -42.7c1.11,-3.08 3.96,-11 6.81,-11.56 -0.88,5.63 -2.52,11.55 -3.03,17.24 -1.15,13.24 -0.31,27.35 0.45,43.55 0.49,10.72 0.08,15.14 0.64,19.34 0.53,3.96 2.01,7.61 2.36,16.54 0.23,5.95 0.23,10.12 0.25,15.9 0,6.43 0.02,14.44 0.35,28.64 0.02,1.24 0.06,2.53 0.1,3.87 -1.33,-8.4 -2.65,-16.86 -3.94,-25.26 -4.02,-26.21 -5.17,-35.39 -6.01,-42.55 -0.04,-0.22 -0.21,-1.83 -0.47,-4.56 0,-0.01 0,-0.02 0,-0.03 -0.64,-7 -1.76,-21.31 -1.76,-38.21 0,-1.85 0.2,-11.66 4.23,-22.92zm7.98 138.46c-3.9,-3.86 -7.53,-8.02 -10.81,-12.42 -4.31,-5.82 -8.06,-12.1 -11.14,-18.69 1.15,0.97 2.24,1.9 3.2,2.66 2.42,1.92 4.57,3.41 7.69,5.65 2.4,1.73 4.9,2.95 7.37,4.43 1.25,6.12 2.6,12.22 3.69,18.37zm-5.76 -29.72c0.53,3.47 1.17,6.91 1.87,10.34 -2.26,-1.47 -4.51,-3 -6.71,-4.58 -3.12,-2.23 -5.19,-3.89 -7.61,-5.81 -1.48,-1.18 -3.03,-2.4 -4.98,-3.91 -2.95,-2.26 -6.01,-4.51 -9.13,-6.72 -1.07,-3.13 -2.36,-6.52 -4.1,-10.48 -0.94,-2.16 -1.89,-4.23 -2.89,-6.32 5.11,0.64 10.22,1.51 15.24,2.65 5.11,1.16 10.2,2.61 15.2,4.28 0.8,5.42 1.79,12.09 3.1,20.54zm6.17 72.57c-0.96,-0.78 -1.68,-1.48 -2.36,-2.32l-0.1 -0.14c-0.9,-1.13 -1.97,-2.8 -2.69,-2.52 -2.15,-2.81 -4.19,-5.74 -6.15,-8.73 -1.7,-4.13 -3.34,-8.35 -4.9,-12.55 -2.79,-7.56 -3.82,-13.52 -4.51,-15.69 -2.18,-6.97 -4.02,-11.13 -4.96,-15.22 -0.59,-2.54 -1.19,-5.17 -2.07,-8.38 -1.64,-5.91 -2.75,-10.78 -4.58,-16.41 2.71,2.11 5.27,4.36 7.92,6.41 0.25,0.2 0.49,0.39 0.74,0.59 3.18,7.22 6.73,14.99 11.37,21.24 3.49,4.7 7.86,8.09 12.08,12.13 0.1,0.57 0.2,1.14 0.29,1.71 0.49,4.56 1.41,9.62 3.18,15.22 0.98,10.66 1.54,18.01 5.48,22.22 1.27,1.34 5.62,4.35 7.9,8.36 1.31,2.31 2.03,4.03 2.3,4.97 -0.62,-0.75 -1.72,-2.02 -3.47,-2.9 -1.01,-0.51 -1.79,-0.66 -2.63,-0.82 -0.21,-0.04 -0.45,-0.09 -0.72,-0.14 -0.82,-0.18 -1.58,-0.42 -2.32,-0.7l-9.81 -6.31zm9.77 -10.97c-0.98,-3.16 -1.02,-8.77 -0.1,-16.66 0.16,-1.43 0.31,-2.55 0.47,-3.54 1.97,1.83 3.98,3.72 5.95,5.61l0.18 0.15c10.09,9.63 19.63,18.73 29.5,30.9 4.68,5.77 9.01,11.77 9.05,11.83 2.56,3.54 3.45,4.97 4.18,6.12 0.7,1.15 1.27,2.06 3.06,4.43 0.6,0.82 1.19,1.58 1.72,2.28 1.72,2.23 3.34,4.34 3,4.78 -0.2,0.24 -3.2,-0.57 -4.62,-0.96 -3.22,-0.87 -4.84,-1.3 -5.81,-1.66 -2.64,-0.96 -4.12,-1.96 -5.99,-3.21 -0.86,-0.58 -1.83,-1.23 -3,-1.94 -3.38,-2.02 -5.62,-2.79 -7.78,-3.54 -2.3,-0.8 -4.49,-1.55 -7.74,-3.85 -2.65,-1.87 -4.12,-3.38 -5.07,-5.24 -0.39,-0.77 -0.59,-1.36 -0.78,-1.99 -0.23,-0.74 -0.49,-1.5 -1.07,-2.56 -0.98,-1.75 -2.01,-2.69 -3.32,-3.88 -0.31,-0.29 -0.64,-0.59 -1.01,-0.93 -0.02,-0.04 -4.1,-3.9 -7.16,-8.63 -0.68,-1.06 -2.48,-3.86 -3.63,-7.53zm-6.16 -173.51c5.15,15.71 6.46,25.56 6.46,25.66 1.58,12.37 2.63,17.22 3.39,20.76 0.72,3.37 1.21,5.6 1.7,11.98 0.84,10.65 0.47,19.16 -0.27,36.13 -0.08,1.8 -0.2,3.8 -0.33,6.09 0,0 0,0 0,0 -0.43,6.55 -1.13,15.62 -2.26,29.97 -0.31,4.06 -0.6,7.53 -1.19,12.1 -0.47,3.54 -0.82,5.56 -1.13,7.35 -0.16,0.8 -0.29,1.59 -0.43,2.47 0,0.01 0,0.02 0,0.04 -0.2,1.15 -0.37,2.47 -0.57,4.22 -0.7,5.95 -0.84,10.63 -0.47,13.98 -1.46,-3.62 -2.42,-7.6 -3.59,-11.24 -3.57,-11.13 -3.67,-19.42 -3.84,-26.64 -0.31,-14.19 -1.25,-22.27 -1.25,-28.7 -0.02,-5.78 0.8,-9.64 0.57,-15.6 -0.35,-8.97 -1.68,-13.04 -2.21,-17.02 -0.56,-4.18 -1.13,-8.49 -1.64,-19.18 -0.74,-16.17 -0.55,-30.45 0.6,-43.66 0.49,-5.7 1.17,-11.44 1.99,-17.07 1.76,0.52 3.12,4.25 4.47,8.38zm53.12 195.64c-2.42,-9.89 -4.61,-19.99 -7.9,-29.61 -1.85,-5.47 -4.53,-10.76 -6.77,-16.12 1.17,0.44 2.26,0.87 3.36,1.31 3.77,1.54 7.41,2.25 12.62,4.84 3.86,1.91 7.41,3.68 10.81,5.55 6.46,3.97 11.94,8.73 16.31,14.16 2.5,3.11 3.67,5.19 5.4,8.34 1.56,2.85 3.53,6.41 7.34,12.3 2.77,4.31 4.35,6.49 5.62,8.25 1.5,2.06 2.48,3.43 4.39,6.83 4.51,8.07 6.98,12.51 8.25,19.08 0.18,0.91 0.31,1.76 0.45,2.58 0.37,2.41 0.23,5.1 1.56,8.3 0.98,2.38 2.53,3.77 3.32,5.09 0.59,0.98 1.25,2.1 1.07,2.29 -0.37,0.41 -3.16,-1.21 -6.15,-2.91 -1.38,-0.81 -2.96,-1.72 -4.8,-2.73 -1.29,-0.71 -4.72,-3.1 -13.6,-7.53l-0.14 -0.07c-1.76,-0.88 -3.61,-2.09 -5.31,-3.05 -3.16,-1.79 -7.36,-3.25 -10.85,-4.47 -0.39,-0.14 -0.78,-0.27 -1.17,-0.4 -3.12,-1.06 -6.11,-2.06 -7.69,-4.89 -0.37,-0.7 -0.53,-1.23 -0.72,-1.9 -0.19,-0.68 -0.35,-2.38 -0.92,-3.63 -1.48,-3.27 -3.41,-4.5 -4.31,-5.51l-0.16 -0.16c-1.7,-1.91 -2.2,-4.25 -4.31,-7.65 -1.31,-2.1 -3.1,-4.44 -5.72,-8.29zm-15.63 -46.09c2.21,5.59 4.31,11.28 6.24,16.96 3.04,8.96 5.79,18.13 8.17,27.31 -4.61,-6.98 -8.31,-11.47 -11.86,-16.45 -1.35,-1.9 -2.73,-3.85 -4.22,-5.98 -7.74,-11.01 -15.57,-22.9 -23.27,-35.33 4.57,3.05 9.17,6.33 14.01,8.76 4.45,2.24 7.9,3.59 10.92,4.74zm58.51 29.14c3.77,7.24 7.38,14.68 10.73,22.14 -0.8,-0.86 -1.68,-1.8 -2.61,-2.88l-1.83 -2.09c-9.75,-11.08 -12.25,-15.95 -14.34,-18.58 -1.99,-2.49 -3.98,-4.79 -6.34,-6.83 -8.8,-7.64 -16.72,-10 -26.84,-15.03 -5.25,-2.6 -8.82,-4.06 -12.6,-5.61 -1.48,-0.61 -3.03,-1.24 -4.66,-1.95l0 0c-2.87,-1.23 -6.12,-2.7 -10.34,-4.82 -5.85,-2.94 -11.59,-6.14 -17.11,-9.51 0.1,-0.95 0.19,-1.91 0.25,-2.89 1.11,-13.89 1.33,-22.82 1.48,-29.33 9.03,4.7 17.83,10.07 26.14,15.98 4.45,3.16 16.21,11.91 29.42,24.97 8.21,8.12 15.96,16.9 23.04,26.1 1.87,3.3 3.65,6.55 5.62,10.33zm12.25 23.74c-2.48,-5.66 -4.62,-11.4 -7.08,-17.02 2.13,2.73 4.31,5.45 6.54,7.83 4.23,4.54 6.85,7.3 11.47,11.61 2.34,2.18 5.19,4.39 8.96,7.99 2.01,1.9 2.91,2.42 4.45,3.97 1.85,1.82 4.8,4.23 12.99,12.23 2.75,2.68 5.01,4.89 6.91,6.73 7,6.82 9.11,8.88 13.01,12.94 6.5,6.76 8.13,8.87 9.34,10.41 0.98,1.26 1.7,2.18 4.53,4.95 1.23,1.18 5.48,5.56 9.35,12.05 2.69,4.49 2.42,5.36 2.28,5.52 -0.64,0.69 -3.82,-1 -7.51,-2.96 -1.27,-0.68 -2.69,-1.43 -4.19,-2.19 -4.08,-2.06 -7.73,-4.39 -16.82,-8.05 -3.02,-1.21 -6.46,-2.36 -8.76,-3.24 -5.38,-2.05 -9.74,-3.05 -16.02,-6.17 -3.69,-1.82 -5.85,-3.08 -8.21,-5.27 -4.72,-4.35 -6.83,-9.44 -7.84,-11.88 -1.09,-2.66 -1.79,-5.96 -3.06,-11.95l-1.07 -8.52c-1.6,-7.52 -1.64,-8.37 -1.79,-8.83 -1.35,-4.15 -3.51,-6.09 -7.45,-10.17zm-86.39 -112.71c11.57,6.1 13.97,7.62 15.57,8.76 2.4,1.72 4.53,3.77 11.98,11.72 0.02,0.06 0.08,0.11 0.14,0.14 9.13,9.74 13.58,14.29 17.01,18.77 3.51,4.56 7.45,11.24 14.59,23.36 2.6,4.42 4.72,8.04 6.65,11.38 -6.12,-7.92 -12.45,-15.91 -19.49,-22.85 -13.25,-13.09 -24.35,-22.42 -28.82,-25.59 -8.43,-6 -18.49,-10.17 -27.7,-14.89 0.06,-2.24 0.12,-4.2 0.2,-5.97 0.16,-3.59 0.33,-6.79 0.53,-9.7 3.04,1.57 6.18,3.2 9.34,4.87zm19.49 -37.8c1.93,1.95 4.12,4.17 6.5,6.51 6.65,6.57 9.42,8.9 12.64,11.61 3.18,2.65 6.75,5.66 14.92,13.51 13.11,12.61 21.03,20.23 30.79,32.07 8.94,10.84 14.85,19.68 20.56,28.23 4.8,7.17 10.77,16.08 17.21,28.23 0.94,1.77 1.23,2.38 8.72,18.04l2.22 4.66c10.5,21.91 11.12,23.22 12.41,26.45 2.18,5.52 3.24,8.88 4.27,12.14 1.07,3.47 1.89,8.27 4.37,14.44 2.21,5.46 4.82,10.1 7.49,15.04 -2.07,-2.73 -3.69,-4.92 -5.42,-6.93 -2.24,-2.62 -4.76,-4.89 -6.65,-7.44 -3.84,-5.21 -3.73,-8.14 -5.13,-11.85 -1.13,-3.03 -1.78,-7.27 -4.7,-12.43 -2.5,-4.39 -4.37,-7.04 -16.58,-21.05 -11.32,-12.99 -19.18,-18.85 -22.69,-22.45 -3.3,-3.4 -5.13,-5.27 -9.01,-10.33 -5.38,-7.03 -6.99,-12.93 -9.48,-17.08 -3.18,-5.25 -7.16,-8.58 -14.05,-15.88 -2.01,-2.14 -3.67,-3.77 -5.13,-5.2 -2.85,-2.79 -5.09,-4.99 -8.49,-9.41 -3.43,-4.48 -3.63,-7.5 -5.42,-10.67 -1.81,-3.23 -3.53,-6.56 -7.39,-11.85 -3.49,-4.79 -7.24,-7 -8.9,-8.79 -1.79,-1.92 -3.22,-3.44 -5.56,-7.21 -2.87,-4.62 -3.16,-7.21 -4.94,-11.77 -1.03,-2.66 -2.4,-7.29 -4.37,-11.73 -2.99,-6.8 -7.22,-12.74 -10.96,-19.41 -0.04,-0.08 -0.1,-0.13 -0.18,-0.15 1.68,-0.72 6.42,4.08 12.95,10.69zm179.08 227.17c-1.78,-9.14 -5.56,-20.16 -11.14,-32.84 -3.16,-7.2 -5.85,-10.03 -7.74,-13.48 -1.91,-3.47 -3.9,-7.07 -7.45,-14.99 -3.67,-8.15 -7.49,-17.7 -10.77,-26.9 -1.95,-5.47 -2.75,-8.1 -3.86,-11.74 -0.96,-3.21 -2.17,-7.2 -4.62,-14.6 -3.51,-10.61 -5.5,-15.94 -6.83,-19.46 -1.5,-4.02 -2.05,-5.52 -2.95,-9.69 -1.02,-4.8 -1.19,-7.12 -1.44,-10.64 -0.29,-3.82 -0.66,-9.06 -2.38,-20.37 -0.9,-5.98 -2.03,-12.74 -3.12,-19.28 -1.35,-8.16 -2.01,-11.78 -2.36,-13.73 -0.33,-1.84 -0.43,-2.33 -0.6,-3.82 -1.27,-10.36 -0.7,-17.78 0.29,-31.25 1.31,-17.88 3.14,-22.03 4.68,-23 0,0.06 0,0.12 0.02,0.17 2.73,6.86 5.31,13.92 7.69,20.96 3.28,9.66 5.62,17.72 8.35,27.59 3.38,12.25 4.35,18.87 6.01,25.57 1.27,5.11 1.89,10.91 3.94,18.52 3.34,12.48 5.07,17.35 6.65,22.24 1.5,4.69 4.23,9.22 6.52,18.21 5.4,21.29 8.19,38.17 9.7,47.24 2.56,15.41 3.16,22.77 3.67,28.68 0.53,6.22 0.96,11.13 3.28,22.34 0.23,1.09 0.47,2.22 0.72,3.39 1.77,8.35 3.98,18.74 5.25,33.4 0.43,4.89 0.7,9.83 0.84,14.72 -0.41,-0.2 -0.8,-0.4 -1.19,-0.59 -0.31,-5.42 -0.1,-11.31 -1.13,-16.63zm-50.71 -260.84c9.03,7.48 14.2,14.87 14.24,14.95 3.86,5.58 5.35,8.97 7.2,13.26 1.41,3.23 3,6.9 5.97,12.36 3.61,6.64 5.64,9.28 7.41,11.61 1.66,2.15 3.08,4.01 5.33,8.64 2.36,4.82 2.99,7.24 4.7,13.73 1.07,4.02 2.54,9.54 5.05,18.1 2.34,7.94 3.75,12.21 4.68,15.03 1.15,3.51 1.68,5.11 2.53,9.17 1.21,5.69 1.46,8.6 2.81,24.74l0.45 5.26c0.6,7.24 1.09,12.76 1.46,17.02 1.17,13.51 1.23,14.32 1.09,17.37 -0.43,8.9 -1.79,16.9 -4.25,31.42 -0.6,3.56 -1.07,6.09 -1.44,8.13 -0.68,3.61 -1.13,6 -1.68,10.6 -1.09,9.19 -1.89,15.83 -1.42,24.71 0.04,0.71 0.1,1.42 0.14,2.15 0.18,2.46 0.35,5.26 0.29,9.3 -0.04,3.66 -0.25,7.35 -0.66,10.96 -0.04,-0.03 -0.1,-0.05 -0.16,-0.08 -0.1,-5.02 0.45,-10.02 0.02,-15.05 -1.29,-14.71 -2.91,-23.78 -4.7,-32.15 -0.23,-1.18 -1.37,-5.83 -1.58,-6.91 -2.32,-11.17 -3.3,-13.96 -3.82,-20.16 -0.51,-5.93 0.25,-15.54 -2.3,-30.98 -1.5,-9.08 -5.68,-23.74 -11.1,-45.07 -2.28,-9.01 -3.59,-13.07 -5.09,-17.78 -1.56,-4.89 -3.34,-10.43 -6.67,-22.89 -2.03,-7.6 -3.34,-12.88 -4.6,-17.98 -1.66,-6.71 -3.36,-13.64 -6.75,-25.89 -2.71,-9.88 -4.06,-18.71 -7.34,-28.39 -2.38,-7.05 -5.99,-13.35 -8.72,-20.23 -0.02,-0.06 -0.06,-0.1 -0.12,-0.14 1.46,-0.3 4.51,1.45 9.03,5.2zm163.24 23.14c0.19,-2.25 -0.08,-4.33 0.1,-6.19 0.78,-7.67 2.89,-15.62 0.62,-16.72 -3.16,-1.54 -12.33,6.9 -18.05,13.49 -6.93,7.96 -10.69,16.49 -11.33,17.89 -9.48,20.16 -11.16,43.95 -11.3,44.96 -3.88,26.39 -7.28,34.75 -8.37,40.51 -1.09,5.8 -1.37,9.64 -3.59,27.29 -2.56,20.33 -2.58,28.96 -3.26,36.18 -0.64,7.13 -0.41,11.8 -2.3,24.49 -1.05,7.16 -1.85,14.47 -2.6,21.55 -0.8,7.37 -3.06,16.03 -4.21,23.48 -0.02,0.13 -1.76,12.04 0.1,31.71 0.47,4.9 1.93,7.93 3.75,10.62 0.33,0.52 0.7,0.99 1.07,1.45 0.86,1.1 1.68,2.15 2.05,3.64 0.04,0.27 0.08,0.54 0.14,0.84 0.21,1.89 -0.16,3.31 -1.03,4.01 -0.31,0.25 -1.15,0.93 -5.44,-0.35 -1.79,-0.53 -3.53,-1.23 -5.25,-2.06 -4.53,-4.52 -8.37,-7.19 -8.7,-7.4 -0.19,-0.13 -0.45,-0.29 -0.7,-0.47 -2.63,-1.74 -9.11,-5.48 -17.79,-7.11 -4.18,-2.01 -8.39,-4.05 -12.53,-6.1 0.45,-3.7 1.5,-6.96 1.56,-10.73 0.04,-4.07 -0.1,-7.29 -0.27,-9.77 -0.04,-0.73 -0.12,-2.32 -0.16,-3.03 -0.49,-8.82 -0.57,-14.69 0.53,-23.85 0.57,-4.57 1.48,-6.63 2.15,-10.23 0.39,-2.04 0.95,-4.57 1.56,-8.13 2.46,-14.54 4.84,-21.58 5.27,-30.53 0.16,-3.09 -0.98,-4.69 -2.15,-18.25 -0.37,-4.26 -0.25,-9.28 -0.88,-16.52l-0.6 -6.57c-1.37,-16.18 -2.57,-18.79 -3.78,-24.52 -0.86,-4.09 -1.41,-5.71 -2.56,-9.24 -0.94,-2.82 -1.25,-7.03 -3.59,-14.96 -2.52,-8.55 -3.98,-13.9 -5.03,-17.92 -1.74,-6.53 -1.87,-9.37 -4.25,-14.25 -2.28,-4.69 -4.1,-6.53 -5.76,-8.71 -1.77,-2.31 -5.01,-4.79 -8.6,-11.39 -2.95,-5.43 -4.53,-9.08 -5.93,-12.3 -1.89,-4.33 -1.82,-7.89 -5.7,-13.52 -0.06,-0.07 -6.38,-10.46 -15.47,-18.01 -7.33,-6.07 -10.96,-6.48 -11.65,-6.26 -1.91,0.59 -4.74,7.14 -6.28,28.01 -0.99,13.51 0.43,20.79 1.72,31.22 0.18,1.51 0.25,2.01 0.6,3.86 0.35,1.95 1,5.57 2.36,13.72 1.09,6.53 1.23,13.01 2.13,18.99 1.7,11.29 1.97,16.55 2.26,20.36 0.25,3.54 0.59,6.28 1.62,11.13 0.9,4.22 1.66,6.17 3.18,10.22 1.31,3.52 4.04,8.25 7.55,18.85 2.46,7.4 2.97,11.34 3.94,14.54 1.09,3.65 1.74,7.09 3.71,12.58 3.28,9.21 5.91,16.54 9.58,24.7 3.57,7.95 7.61,13.05 9.54,16.54 1.89,3.44 3.67,6.69 6.83,13.86 5.54,12.63 9.27,23.65 11.04,32.73 0.99,5.16 1.68,10.42 2.03,15.65 -14.57,-7.26 -16.19,-8.5 -16.33,-8.7 -0.1,-0.15 -0.19,-0.19 -0.47,-0.28l-0.1 -0.04c-1.09,-0.35 -3.34,-1.09 -5,-3.13 -0.72,-0.88 -0.94,-1.53 -1.21,-2.34 -0.23,-0.68 -0.16,-1.96 -0.76,-3.03 -0.96,-1.69 -0.99,-1.86 -2.32,-3.08 -0.66,-0.63 -2.61,-1.47 -3.57,-2.47 -1.5,-1.54 -2.28,-2.54 -3.71,-4.37 -0.37,-0.49 -0.8,-1.03 -1.29,-1.66 -3.34,-6.43 -6.4,-13.13 -9.13,-19.92 -2.48,-6.15 -3.59,-9.72 -4.68,-13.17 -1.02,-3.27 -2.07,-6.65 -4.27,-12.19 -1.29,-3.26 -0.39,-3.5 -10.89,-25.43l-2.71 -5.98c-7.49,-15.67 -8.02,-16.36 -8.97,-18.15 -6.44,-12.18 -10.63,-21.1 -15.43,-28.29 -5.74,-8.56 -10.48,-17.95 -19.43,-28.83 -9.79,-11.88 -18.94,-18.79 -32.07,-31.42 -8.17,-7.87 -12.6,-10.62 -15.76,-13.28 -3.22,-2.7 -7.73,-5.13 -14.36,-11.68 -2.38,-2.34 -4.56,-4.56 -6.5,-6.51 -7.67,-7.76 -14.38,-16.8 -16.45,-15.53 -1.34,0.83 -0.04,8.72 2.5,18.71 3.22,12.62 5.44,18.83 8.55,27.34 2.89,7.92 6.69,15.51 10.46,23.16 -4.68,-4.5 -7.12,-5.81 -9.07,-7.2 -1.62,-1.15 -3.49,-3.78 -15.1,-9.9 -3.26,-1.72 -7,-2.4 -10.17,-3.94 0.7,-10.37 1.41,-17.05 0.76,-25.27 -0.49,-6.43 -0.9,-9.09 -1.64,-12.5 -0.76,-3.52 -2.95,-8.38 -4.53,-20.67 0,-0.06 0.14,-10.5 -5.05,-26.31 -1.64,-4.97 -3.88,-11.78 -6.24,-11.93 -3.53,-0.22 -8.41,10.89 -9.83,14.88 -3.96,11.08 -3,21.19 -3,23.82 0,15.48 0.43,28.94 0.74,36.58 -5.13,-4.55 -9.54,-9.67 -14.65,-14.48 -1.27,-1.2 -2.77,-2.57 -3.84,-3.6 -5.76,-5.52 -11.47,-11.66 -13.38,-10.66 -1.15,0.61 0.16,6.12 0.76,13.54 0.18,2.17 0.62,5.01 0.88,8.42l0.31 2.73c0.35,4.97 1.05,6.29 1.83,9.84 0.68,3.09 1.62,6.13 2.77,9.07 -1.44,0.57 -2.89,1.16 -4.31,1.72 -2.87,-5.76 -6.32,-12.29 -11.2,-21.63 -4.47,-8.53 -7.33,-12.54 -8.91,-15.38 -1.83,-3.29 -3.69,-4.88 -5.54,-9.04 -0.9,-1.98 -1.66,-3.8 -2.34,-5.4 -2.32,-5.41 -4.51,-12.25 -5.85,-12 -1.77,0.34 -2.56,9.94 -1.74,23.3 0.29,4.75 1.02,12.53 3.22,21.89 1.48,6.34 5.44,16.15 7.92,22.41 2.5,6.29 6.75,16.5 13.87,30.18 7.55,14.53 11.72,20.62 17.23,27 0.82,0.96 1.66,1.88 2.52,2.83 2.69,2.98 4.47,5.68 7.88,10.77 0.78,1.17 2.26,3.3 2.99,4.43 1.38,2.17 2.87,4.86 5.13,7.93 2.21,3 4.7,4.79 7.14,7.55 0,0 0.02,0 0.02,0.01 1.42,2.09 2.91,4.14 4.43,6.14 -0.02,0.37 0.02,0.78 0,0.98 -0.04,0.26 -0.06,0.56 -0.18,0.66 -0.59,0.49 -3.47,-1.2 -6.71,-3.92 -3.38,-2.83 -4.14,-4.82 -5.5,-6.31 -1.33,-1.43 -3.67,-4.34 -5.56,-5.66 -4.35,-3.05 -11.94,-5 -13.11,-3.33 -0.18,0.26 -0.24,1.12 -0.16,1.55 0.43,2.45 6.81,10.02 12.02,13.62 4.76,3.3 7.41,4.08 10.46,4.46 0.27,0.04 0.55,0.06 0.84,0.09 1.56,0.15 3.34,0.33 4.1,1.55 0.33,0.54 0.31,1.03 0.29,1.55 -0.02,0.56 -1.02,1.66 -0.59,2.31 0.74,1.12 3.06,0.72 4.6,0.78 0.92,0.04 1.95,0.08 3.08,0.34 1.76,0.4 2.38,1.01 3.34,1.93 0.92,0.87 2.03,1.94 4.49,3.24 1.5,0.79 2.73,1.25 3.82,1.66 1.77,0.67 3.18,1.2 5.09,2.82 2.34,1.99 2.26,2.56 2.26,2.56 -0.08,0.07 -0.68,0.37 -4.94,-0.99 -6.48,-2.06 -11.06,-4.61 -11.26,-4.72 -2.09,-1.18 -5.99,-3.9 -15.35,-7.27 -7.84,-2.82 -14.14,-3.17 -21.13,-4.91 -1.99,-0.49 -4.12,-1.02 -6.44,-1.62 -8.7,-2.25 -11.57,-4.18 -15.96,-5.6 -3.86,-1.25 -8.8,-3.46 -16.21,-5.51 -13.75,-3.81 -23.8,-5.04 -44.38,-9.31 -2.05,-0.42 -21.48,-4.37 -45.36,-6.01 -10.2,-0.7 -20.93,-0.98 -21.89,1.87 -0.88,2.64 6.89,8.68 9.38,10.59 7.39,5.66 15.7,6.2 22.53,7.97 0.92,0.24 1.83,0.47 2.73,0.72 4.86,1.31 6.54,2.04 9.05,3.15 2.67,1.18 6.15,3.8 15.43,6.96 21.23,7.23 32.19,12.63 44.15,14.08 13.11,1.59 28.11,-0.64 45.61,-2.85l3.94 -0.58c7.26,-0.95 16.33,-2.85 26.42,0.41 0.33,0.11 0.78,0.26 1.35,0.45 1.95,0.66 5.21,1.76 9.81,3.12 2.81,0.83 4.39,1.25 6.58,1.83 1.66,0.44 3.65,0.98 6.79,1.85 7.8,2.18 12.1,3.38 14.57,4.47 0.68,0.31 0.8,0.38 2.24,1.21 1.41,0.83 3.4,2.66 9.03,5.86 1.27,0.71 2.77,1.48 4.04,2.2 2.24,1.32 4.98,2.36 7.34,3.6 1.42,0.75 2.61,1.35 3.61,1.85 1.95,0.98 3.63,1.83 3.57,2.13 -0.14,0.66 -4.45,1.11 -9.5,0.41 -3.08,-0.43 -5.05,-1.13 -7.57,-2.03 -0.74,-0.27 -1.52,-0.54 -2.38,-0.83 -4.35,-1.47 -6.77,-2.95 -13.11,-4.21 -5.5,-1.09 -9.05,-0.76 -15.1,-1.03 -2.5,-0.11 -5.83,0.15 -9.52,-0.07 -0.06,-0 -6.36,-0.38 -19.9,-1.61 -10.87,-0.99 -17.62,-1.99 -24.15,-2.96 -3.32,-0.49 -7.65,-2.04 -11.2,-2.49 -20.23,-2.53 -33.85,-2.32 -56.99,-1.36 -6.42,0.27 -21.17,1.97 -36.97,5.65 -9.58,2.23 -21.23,5.55 -21.17,8.66 0.04,2.04 5.95,4.47 12.23,6.3 -2.38,0.3 -4.29,0.87 -4.51,1.92 -0.31,1.44 2.85,4.94 8,8.19 6.79,4.27 11.18,6 17.56,8.23 4.86,1.69 8.08,2.14 12.6,3.06 2.77,0.56 6.59,0.53 11.82,1.76 5.62,1.32 9.27,2.31 12.19,3.1 4.12,1.11 7.14,2.81 12.76,3.84 1.93,0.35 3.86,0.55 5.79,0.68 -3.71,0.69 -7.67,1.47 -11.78,2.33 -28.91,6.04 -39.98,10.14 -40.23,11.54 -0.82,4.85 13.69,13.22 27.49,20.19 9.99,5.04 20.37,6.72 35.23,9.19 28.78,4.79 45.5,8.39 54.2,9.17 11.06,0.99 22.26,-0.49 33.42,-0.6 -3.47,6.95 -6.12,15.96 -4.51,26.18 0.72,4.58 4.59,19.95 17.87,26.79 4.31,2.22 9.68,2.96 14.01,2.96 11.3,0 21.95,-6.68 28.29,-11.19 15.06,-10.68 20.6,-25.82 22.16,-31.64 1.54,-5.8 2.96,-13.96 0.39,-22.15 2.36,-0.04 4.82,0.17 7.1,-0.2 2.03,-0.33 3.96,-1.06 5.91,-1.74 -6.22,7.99 -9.07,16.55 -10.09,20.27 -2.56,9.29 -4.04,30.13 4.64,42.77 3.55,5.16 9.25,8.84 15.67,10.98 -12.21,8.48 -25.15,15.61 -37.07,23.68 -1.85,1.25 -5,3.28 -6.81,4.5 -9.77,6.6 -17.85,12.7 -30.42,21.71 -13.79,9.89 -20.46,16.05 -25.62,21.41 -3.78,3.93 -11.32,11.3 -23.88,28.3 -7.08,9.61 -11.32,14.56 -14.3,19.37 -8.94,14.4 -15.1,25.59 -12.27,29.42 0.9,1.22 4.45,1.53 6.69,1.53 6.91,0 21.21,-7.36 35.18,-12.94 18.26,-7.31 38.2,-14.17 54.76,-23.96 8.82,-5.2 22.14,-13.01 38.45,-25.7 12.93,-10.06 21.15,-18.54 31.27,-28.22 8.8,-8.41 18.34,-18.67 30.2,-32.53 8.17,-9.55 14.61,-20.56 21.66,-30.88 0.66,2.31 1.21,4.66 1.6,7.04 -5.89,3.83 -10.77,10.16 -14.53,17.11 -10.69,19.73 -3,41.56 0.02,48.61 4.15,9.76 11.47,25.72 27.64,31.45 3.82,1.35 8.86,2.21 13.95,2.21 7.26,0 16.37,-2.38 23.08,-7.57 17.23,-13.36 14.85,-39.31 13.34,-48.81 -1.27,-8.02 -6.01,-30.53 -24.19,-41.04 -3.86,-2.23 -18.14,-9.49 -32.6,-5.05 -1.31,-2.58 -2.6,-5.2 -3.82,-7.85l3.65 -8.16c5.8,7.54 13.58,12.23 17.54,14.37 3.39,1.84 18.44,7.84 33.5,7.84 8.56,0 18.88,-1.68 25.63,-7.12 11.51,-9.27 7.82,-27.9 6.48,-32.98 -1.07,-4.31 -2.91,-8.28 -5.07,-11.86 5.33,2.73 10.24,5.89 15.53,8.41 4.14,1.97 9.07,3.13 13.17,5 2.75,1.25 5.5,2.5 8.21,3.77 1.09,0.5 2.21,0.94 3.3,1.36 1.21,0.47 2.48,0.95 3.65,1.53 0.6,0.3 1.15,0.58 1.68,0.84 1.83,0.93 3.39,2.19 4.53,2.19 0.41,0 0.7,-0.05 1.05,-0.27 0.45,-0.28 0.68,-1.62 1.48,-3.38 1.09,-2.42 2.63,-4.13 2.42,-4.85 -0.51,-1.77 -4.54,-1.51 -6.48,-1.8l-0.41 -0.07c-2.38,-0.37 -6.2,-2.17 -13.79,-5.76 -5.48,-2.59 -10.96,-5.92 -15.86,-9.65 -1.81,-1.39 -3.59,-2.87 -5.31,-4.4 0.12,-1.79 -0.9,-3.52 -2.6,-5.63 -0.8,-1 -2.67,-2.37 -3.88,-4.07 -2.16,-3.05 -3.59,-5.07 -4.58,-8.01 -0.29,-0.87 -0.94,-3.06 -1.09,-6.08 -0.02,-0.39 -0.04,-0.79 -0.04,-1.19 -0.04,-4.24 2.15,-7.55 4.1,-11.77 9.38,-20.35 12.88,-31.54 15.94,-36.06 11.04,-16.21 18.09,-31.65 25.6,-58.69 6.59,-23.81 6.54,-43.87 9.46,-75.35 1.76,-18.8 2.99,-35.45 3.4,-44.63 0.66,-15.01 0.1,-18.99 0,-21.75 -0.06,-2.12 -0.39,-3.64 0,-8.35z"/>
 </g>
</svg>
