<?xml version="1.0" encoding="UTF-8"?>
<!DOCTYPE svg PUBLIC "-//W3C//DTD SVG 1.1//EN" "http://www.w3.org/Graphics/SVG/1.1/DTD/svg11.dtd">
<!-- Creator: CorelDRAW 2019 (64-Bit) -->
<svg xmlns="http://www.w3.org/2000/svg" xml:space="preserve" width="395.851mm" height="367.356mm" version="1.1" style="shape-rendering:geometricPrecision; text-rendering:geometricPrecision; image-rendering:optimizeQuality; fill-rule:evenodd; clip-rule:evenodd"
viewBox="0 0 1463041.7 1357728.33"
 xmlns:xlink="http://www.w3.org/1999/xlink">
 <defs>
  <style type="text/css">
   <![CDATA[
    .fil0 {fill:#D3A77C}
   ]]>
  </style>
 </defs>
 <g id="Capa_x0020_1">
  <metadata id="CorelCorpID_0Corel-Layer"/>
  <g id="_2543341274352">
   <path class="fil0" d="M828175.54 330787.45c17611.18,1789.58 34487.97,5943.45 48920.27,13023.03 32275.58,15831.95 44707.63,36482.67 53698.39,72116.76 9538.13,37803.6 -9254.28,124705.62 -25095.47,155933.4 -7387.45,14563.13 -14787.85,26992.6 -22898.97,39946.88 -9117.16,14560.91 -39986.8,60101.24 -51302.67,73331.62 -14326.96,16749.65 -27931.37,34802.13 -44487.72,49801.01l-11777.5 10955.52c-1765.55,1692.74 -2882.84,2147.71 -4808.42,3898.11 -5993.34,5448.19 -10900.08,9790.56 -17333.24,14102.62l-18234.31 13169.76c-23375.37,17625.59 -57119.35,31780.32 -86888.34,37794.36 -45975.34,9288.65 -89221.96,85.01 -120422.02,-29355.04 -42993.45,-40568.54 -50716.13,-114485.22 -34957.36,-168367.3 4675.37,-15985.33 9101.63,-31447.32 15110.87,-46632.85 11020.94,-27849.69 39975.34,-73826.13 60807.54,-96354.03 4831.34,-5224.59 10081.43,-12052.48 15828.62,-15568.8 63477.86,-38839.58 109545.96,-20180.23 185152.8,-65222.71 30130.08,-17950.1 42509.65,-34020.44 56827,-68933.44 11827.76,-28841.68 21192.55,-75408.74 18918.06,-106922.58 -2638.9,3579.15 -10028.21,22112.47 -13805.83,28609.57 -12324.5,21196.24 -12648.63,22022.29 -29632.98,35367.61 -4290.99,3371.81 -8560.55,5973.02 -13064.06,8620.79 -8658.49,5089.69 -19137.97,10121.72 -28986.93,14363.18 -41620.78,17923.49 -83763.79,21518.53 -125971.11,47442.26 -18513.73,11371.31 -30255.75,24923.24 -41727.96,43944.05 -10799.55,17905.75 -19169.39,38674.74 -25566.33,61116.15 -2143.28,7518.66 -2169.52,10002.34 -6378.83,15304.91 -1961.07,2470.74 -2833.68,4075.52 -4685.72,6178.88 -16905.62,19201.54 -48477.12,78450.5 -54899.57,85644.66 993.84,-33707.76 72113.43,-164322.09 94881.93,-205036.25 10888.62,-19471.72 24270.16,-36181.08 37680.53,-53350.6l40242.56 -50805.94c17040.89,-20006.15 33144.87,-42284.2 51316.72,-61425.5 6221.01,-6552.54 11338.42,-13592.95 18132.68,-19768.5 10605.51,-9640.13 20066.76,-21279.77 30861.14,-29869.52 8922.38,-7099.54 20543.91,-19072.19 31723.04,-27828.99 3486.02,-2730.56 4795.12,-2772.7 8747.19,-6439.81 10492.05,-9736.23 31672.4,-23866.2 43508.3,-32362.43 34538.61,-24792.77 78750.98,-46363.78 123506.66,-57556.21 15395.46,-3850.44 59227.15,-2510.29 66725.48,-8081.92 3586.91,-2665.15 2586.42,-7214.12 -1571.52,-9316 -15016.99,-7593.32 -62886.51,6088.7 -77780.79,10268.81 -31018.22,8704.69 -58313.51,22030.79 -84852.62,35375.37 -33003.31,16594.79 -137472.52,71681.38 -170673.57,101389.01 -5730.93,5128.12 -11585.68,9204.75 -16965.5,13422.56l-52737.44 44816.66c-1646.91,1497.97 -2028.33,2334.73 -3663.79,3870.02 -3195.51,2999.63 -4846.49,3416.16 -8160.28,7022.3l-31890.09 28846.85c-3029.57,2766.05 -4285.82,4923 -7486.14,7650.98 -3046.94,2597.88 -5229.39,4381.91 -8227.91,6980.53 -10940,9479.36 -20573.48,19889.36 -29204.25,31510.15 -4006.03,5393.86 -9312.3,10345.32 -14244.54,16062.21 -4715.66,5465.93 -8073.79,10607.73 -12975.72,16312.79 -3009.61,3502.28 -4031.17,5083.4 -6764.69,8401.62 -2825.55,3429.84 -4183.07,5780.46 -6421.33,8778.24 -4442.16,5949.73 -8692.86,10927.06 -13258.46,17035.72l-35640.74 54366.61c-6952.44,12182.2 -14478.13,25777.37 -20465.19,40219.27 -23553.89,56815.92 -40777.73,137956.69 -26870.63,204287.82 8699.52,41491.79 26789.32,71472.56 50540.57,99981.6 5346.55,6417.27 8030.92,10344.95 14687.32,15695.94 2967.47,2384.99 5068.25,4513.12 8188,6989.4 2575.33,2043.86 6089.07,4371.19 8717.26,6485.64 56738.3,45654.9 147526.97,46839.45 218958.5,26405.31 47897.97,-13701.98 108545.84,-44921.99 148520.44,-78037.29l67790.29 -67677.56c14674.75,-16346.43 26119.24,-34465.43 37897.48,-53177.26 3863.74,-6138.23 7584.45,-12779.47 10871.25,-19449.54 39151.89,-79450.99 22456.19,-163681.21 -33857.07,-224661.72 -19446.95,-21058.39 -48195.49,-36061.34 -77881.69,-43609.56 -7846.86,-1995.44 -30864.84,-7383.76 -39172.58,-5904.27 -3603.18,641.62 -5185.78,5035.73 -5068.99,8875.07z"/>
   <path class="fil0" d="M828904.01 377456.15c-39065.03,7476.16 -25532.33,55415.52 14127.38,48263.5 39313.4,-7089.56 26845.5,-56105.19 -14127.38,-48263.5z"/>
  </g>
  <g id="_2543926310912">
   <path class="fil0" d="M1462552.73 1100407.77l-1462326.91 -598.74c-534.8,12806.45 -2857.34,9439.44 34235.54,9439.44l1392509.02 0c7824.69,0 15683.74,-72.44 23504.36,19.22 12032.15,141.19 12630.15,2602.68 12077.98,-8859.92z"/>
   <path class="fil0" d="M1037951.47 1167823.28c-8250.09,-3373.66 -75903.99,-1129.11 -90796.8,-844.52l-89306.97 -769.13c626.83,7032.27 -2281.51,6278.3 14875.81,6940.98 5862.51,226.56 11647.03,1129.85 16194.15,2692.5 3245.41,16920.78 4360.85,154182.63 983.12,169055.48 -19547.11,5374.64 -31777,-1248.49 -32520.25,9438.7l194265.89 -1842.06c4638.04,-12968.33 2467.04,-32579.02 9402.48,-47513.59 -7589.25,-4802.88 -11864.35,9254.65 -15438.7,15538.49 -3716.27,6532.95 -10350.86,15020.32 -15411.72,18475.29 -13512.74,9224.71 -42955.38,8030.18 -60878.5,7911.17 -45766.52,-304.18 -49750.01,3665.64 -50280.75,-17911.29l-175.19 -52191.92c-8.13,-2720.22 -854.13,-13904.15 1320.19,-15630.89 4343.11,-1576.69 57445.7,-2021.31 66139.68,-1750.4 29783.77,927.31 18691.87,33388.43 30531.09,34861.63 3336.7,-5233.09 -57.29,-25985.82 -60.61,-34426.62 -3.33,-8100.03 2663.67,-31637.29 -535.91,-36700.36 -10752.61,-363.31 -5838.48,8873.96 -9885.54,21600.21 -1527.53,4802.51 -3131.57,5931.25 -8682.51,6976.84l-78579.12 670.81c-65.42,-19145.73 -1126.15,-38832.19 -914.01,-57750.99 110.88,-9901.81 -917.7,-19438.82 9423.18,-20475.54 11088.57,-1111.37 81148.17,-1672.42 86260.77,756.93 9970.18,4737.09 15470.49,31763.32 23238.99,33460.5 898.48,-1496.49 1381.17,-38593.43 831.22,-40572.24z"/>
   <path class="fil0" d="M1332563.38 1298588.41c-1578.17,10254.03 -2557.59,25780.7 -3517.43,36965.36 -701.49,8180.24 882.96,9676.72 7265.12,12392.87 23103.72,9833.06 59949.34,12794.99 84177.74,5782.68 19400.39,-5614.88 34048.89,-19156.82 39945.04,-38279.64 23548.34,-76370.42 -120459.72,-73994.67 -108211.73,-122478.08 4617.34,-18277.19 29912.02,-28940.36 53536.13,-23934.57 10390.04,2202.04 20704.68,8607.86 24906.23,14124.42 8769.74,11514.72 6420.97,11199.45 10012.32,19921.51 1910.43,4640.26 150.06,3425.03 4590.36,4240.73 3574.72,-6881.85 2557.22,-27102 874.09,-35524.68 -13824.31,-10292.1 -38180.22,-13870.51 -59694.69,-11302.94 -50232.7,5995.19 -69254.62,49154.22 -39534.05,79025.22 22614.01,22728.58 71211.62,32574.21 88982.46,55755.18 25008.98,32623 -28932.23,73421.43 -71927.9,44542.42 -35814.08,-24055.43 -16075.14,-41054.93 -31403.71,-41230.48z"/>
   <path class="fil0" d="M652485.1 1298443.16c-3822.35,3683.38 -2808.18,10753.72 -3226.56,18086.85 -1075.89,18866.32 -6578.41,25951.45 4262.16,30987.54 4147.96,1927.07 9895.15,3794.63 14545.39,5000.24 38787.1,10057.41 96352.92,9348.15 110534.26,-37003.06 15163.72,-49562.62 -39883.68,-66430.18 -72168.5,-82229.23 -16094.36,-7875.69 -41676.59,-17869.52 -36051.73,-40261.41 7330.17,-29179.49 59530.59,-33211.02 78530.7,-10034.49 12450.16,15187.01 6430.57,22643.58 14488.84,24355.17 2423.8,-4568.56 3834.54,-28450.65 739.56,-34300.96 -6860.78,-12969.81 -64175.28,-21463.83 -92340.23,-826.41 -7822.84,5732.04 -13673.89,10509.42 -17926.81,21296.41 -12763.21,32369.46 16179,53538.72 43598.85,67031.88 13430.69,6609.46 40200.06,18431.68 50334.34,27857.82 5852.53,5444.13 13718.98,14402.73 12180.36,27563.25 -1249.23,10686.83 -8960.08,20053.83 -14476.28,23858.06 -33869.64,23358 -78048.38,469.02 -86792.25,-28768.5 -4221.88,-14117.4 1210.79,-11207.58 -6232.1,-12613.15z"/>
   <path class="fil0" d="M396311.38 1259205.9c-5328.44,3868.55 -32472.2,1627.32 -41103.71,1433.66 -21273.86,-477.52 -23269.3,3561.41 -15534.43,-15043.61 6316.74,-15194.4 17672.16,-48219.89 25965.49,-59294.42 2972.65,3129.73 7456.94,14404.58 9275.71,18624.98 3061.72,7103.98 24183.31,52791.4 21396.93,54279.39zm-89403.43 84096.06c-2392.02,-7320.19 9759.51,-32834.78 13012.31,-41863.23 12405.81,-34435.86 7781.81,-33998.63 23553.15,-33915.84 20189.47,106.07 37572.98,-1060 57223.95,707.4 4827.64,6360.35 28713.8,66540.32 26705.42,73859.77 -2210.91,3356.29 -14290,3065.05 -18123.81,3219.54 -8446.71,340.77 -12347.04,-1296.17 -13839.84,6072.07l87975.32 -256.5c-2677.34,-9302.32 -21088.69,-6185.16 -26589.37,-11614.88 -4663.54,-4603.67 -28811.37,-68595.26 -33177.02,-78972.37 -9644.2,-22924.84 -34949.23,-87511.11 -45153.36,-104590.81l-9773.93 179.99 -44470.72 109295.01c-7032.64,17114.81 -14789.32,38123.3 -22728.95,54196.6 -4219.66,8542.07 -8193.91,19448.06 -15269.06,23835.52 -11009.85,6827.52 -27094.23,-2105.58 -29413.07,8053.46 17373.53,1153.5 30024.38,-29.94 47518.77,581 7827.27,273.5 29018.34,2365.04 35881.34,-613.16 -1080.69,-7869.78 -24700,-2266.72 -33331.14,-8173.58z"/>
   <path class="fil0" d="M55323.12 1167238.22c-8831.09,-49.16 -45644.55,-3735.12 -50318.07,44.35 653.07,4732.29 357.03,3531.11 6707.03,4580.38 9715.9,1605.15 17085.61,2223.48 26771.95,5410.12 2305.9,17525.8 2705.8,156345.87 -2428.24,164936.72 -7262.53,5339.16 -30997.52,860.05 -35820.36,10218.92 1716.4,858.2 52.48,397.68 3109.77,928.05 2418.63,419.49 -208.08,76.14 2381.67,269.06 1261.8,94.25 3850.07,6.65 5230.87,-4.8l79569.26 -1555.62c27854.12,8.5 64711.93,3192.93 90442.73,1173.09l9724.77 -49222.97c-8152.15,-698.16 -6695.94,3468.27 -10664.65,10138.35 -6938.03,11661.08 -19274.35,24976.83 -33239.48,29217.55 -6927.31,2103.73 -66898.08,3964.27 -75574.32,2191.7 -2636.69,-538.87 -1489.47,-219.54 -2899.47,-1106.94 -1782.92,-1908.22 -2127.76,-139409.94 -1091.41,-158928.96 1113.96,-20986.68 27225.07,-7132.8 38901.67,-13602.56l12.2 -4642.11c-7674.26,-2100.04 -40013.78,15.89 -50815.92,-44.35z"/>
   <path class="fil0" d="M1243793.8 1165711.79l-101523.91 -194.78c1382.28,7138.72 8495.87,5677.71 16282.12,6328.94 7568.56,633.12 15036.95,1380.44 20614.87,4275.1 3370.7,13465.81 1769.99,38542.05 1833.19,53746.06 83.9,20223.47 1983.24,90714.75 -962.42,105245.73 -1819.51,8975.6 -8110.75,9008.13 -17250.45,10099.17 -15206.6,1815.45 -19329.79,-1036.34 -20526.54,5913.14 1859.8,986.08 -104.6,382.53 3224.34,1057.04 1721.2,348.53 568.81,156.71 2416.78,340.77l95346.14 -1397.81c-3171.86,-12703.33 -31840.57,2186.52 -34544.15,-19093.99 -1894.91,-14916.83 -235.43,-36864.46 -234.69,-52617.69 1.11,-19270.29 -3754.71,-92154.69 2851.42,-103512.7 6093.5,-6711.1 31442.14,-607.98 32473.31,-10188.98z"/>
   <path class="fil0" d="M644958.31 987351.77c2749.04,3870.76 6517.43,2156.21 11030.18,6643.09 1841.69,9124.18 2198.72,45110.12 -145.62,52722.29 -5572.75,3856.35 -10341.25,556.98 -14554.63,5826.66l2254.9 949.49c6182.95,1568.56 40036.69,1125.78 43765.53,258.35 -2425.28,-5438.21 -10515.7,-5288.9 -16512,-7560.06l-1095.48 -54909.55c4513.86,-6363.31 19546.74,-14540.96 32139.94,-11701.36 17204.25,3879.26 13628.43,24177.02 13628.43,45582.46 0,6910.31 1640.26,16188.24 -1143.53,21423.55 -5777.5,3255.02 -11932.36,499.32 -14829.61,5957.12 4813.23,4039.67 25772.93,1555.99 32523.58,1618.45 1012.32,0.74 4622.52,219.91 5267.83,156.34l6069.11 -1774.79c-3663.79,-7003.45 -4994.33,-2054.58 -13959.58,-6414.31 -2939.39,-30728.09 7373.41,-71165.42 -18423.55,-77013.15 -18212.14,-4128.37 -33040.64,9602.8 -40728.58,13225.2 69.85,-5461.5 785.39,-11527.65 -1412.59,-15037.32 -6696.68,1298.39 -1461.75,3009.98 -10191.94,10563.75 -2443.76,2114.45 -12241.34,6554.76 -13682.39,9483.8z"/>
   <path class="fil0" d="M321545 983809.94l13887.14 1722.31c1812.86,3973.14 1205.62,7815.82 1286.56,13539.73 112.73,7984.72 1103.24,43412.57 -463.47,46412.2 -5444.87,5545.4 -10201.55,2658.86 -14549.83,7059.62 3004.06,3093.51 5807.81,1998.77 11301.09,1730.07l37564.48 -296.41c3515.58,-956.14 535.91,624.98 2811.88,-1433.66 -6272.39,-8912.03 -23301.82,6633.48 -23202.4,-22118.75 49.9,-14320.31 -1130.22,-33448.67 -177.04,-46931.48l23450.77 -1130.96c461.25,-84.64 800.91,-197.36 1209.31,-290.5l2168.78 -6789.08 -27001.1 -1220.77c-5610.44,-73660.19 26567.19,-38563.86 45423.9,-43229.25 7747.07,-23623.37 -51443.49,-23559.8 -57717.73,28486.5 -1855.73,15393.98 -292.35,14383.88 -10654.3,19226.31 -6244.3,2917.95 -4062.21,542.2 -5338.05,5264.13z"/>
   <path class="fil0" d="M1087230.62 1009358.9c146.73,5729.08 193.3,11456.32 -12.57,17184.3 -257.98,7171.24 -555.87,8733.89 -4970.68,12437.96 -4264.75,3578.04 -16527.9,11612.66 -23024.26,4453.61 -11331.77,-12487.49 17070.83,-30757.29 28007.5,-34075.87zm-46951.07 -8406.8c21763.2,3507.45 8270.42,-16911.54 26034.61,-24857.08 19764.07,-8840.33 22474.67,12301.58 21151.52,27759.87 -8451.52,4606.63 -17750.52,7594.43 -25443.26,12317.11 -20873.59,12813.47 -30430.19,40950.33 -1514.23,37639.87 14192.06,-1625.11 17540.22,-9762.47 26363.18,-12882.96 4790.31,23873.96 29189.83,12443.88 30510.4,-2284.83 -6743.25,120.86 -2728.35,8494.76 -15684.85,4103.98 -7263.27,-20781.56 9336.33,-64028.18 -11946.03,-72859.64 -11533.94,-4785.88 -26057.15,-1057.04 -33701.84,5085.25 -5569.79,4475.05 -16214.48,15941.35 -15769.49,25978.43z"/>
   <path class="fil0" d="M928654.98 1032945.68c-5795.61,3086.85 -25283.96,20385.72 -43111.35,6894.05 -11574.59,-8759.76 -18381.04,-25103.97 -12910.68,-44857.32 4104.35,-14821.85 18731.79,-29652.57 33866.31,-15239.12 20233.82,19269.92 31761.47,-6059.5 7489.09,-11393.49 -71209.4,-15648.63 -76639.49,77882.43 -25504.98,85640.22 14887.64,2258.59 25406.67,-1824.32 35432.66,-10327.58 4313.91,-3658.62 4679.81,-3255.39 4738.94,-10716.76z"/>
   <path class="fil0" d="M495871.64 977579.32c1897.87,6261.67 3145.99,2923.86 8988.54,6185.53 4208.94,2349.88 3714.42,5114.82 3714.42,11409.75l-976.84 51480.82c-5837.38,1546.75 -15778.73,1806.58 -17416.03,6534.06 1340.89,435.01 40896,1137.98 46726.72,1337.93 -1758.9,-4025.62 -118.27,-3137.86 -6523.71,-5147.34 -3429.47,-1075.89 -5729.82,-1643.59 -8562.03,-2865.84l-329.68 -84009.94c-9515.21,1201.92 -6130.09,10189.72 -25621.4,15075.02z"/>
   <path class="fil0" d="M509012.58 920457.75c-10669.45,5376.49 -1231.86,21959.46 10160.89,14464.45 8979.67,-5907.23 1429.59,-20304.78 -10160.89,-14464.45z"/>
  </g>
 </g>
</svg>
