<?xml version="1.0" encoding="UTF-8"?>
<!DOCTYPE svg PUBLIC "-//W3C//DTD SVG 1.1//EN" "http://www.w3.org/Graphics/SVG/1.1/DTD/svg11.dtd">
<!-- Creator: CorelDRAW 2019 (64-Bit) -->
<svg xmlns="http://www.w3.org/2000/svg" xml:space="preserve" width="46.5374mm" height="35.5125mm" version="1.1" style="shape-rendering:geometricPrecision; text-rendering:geometricPrecision; image-rendering:optimizeQuality; fill-rule:evenodd; clip-rule:evenodd"
viewBox="0 0 655.24 500.01"
 xmlns:xlink="http://www.w3.org/1999/xlink">
 <defs>
  <style type="text/css">
   <![CDATA[
    .fil0 {fill:#FEFEFE;fill-rule:nonzero}
   ]]>
  </style>
 </defs>
 <g id="Capa_x0020_1">
  <metadata id="CorelCorpID_0Corel-Layer"/>
  <path class="fil0" d="M654.37 304.74c-0.16,4.97 -0.75,10.25 -3.84,12.17 -8.84,-13.32 -16.99,-27.01 -24.23,-40.69 -3.42,-6.46 -4.92,-11.98 -6.76,-15.78 -2.72,-5.62 -5.27,-8.47 -9.84,-15.96 -4.35,-7.14 -6.84,-10.45 -9.74,-14.29 -3.09,-4.11 -5.5,-9.25 -12.23,-19.82 -0.06,-0.09 -7.08,-8.88 -16.32,-21.22 -5.11,-6.84 -6.39,-9.44 -9.33,-11.69 -1.19,-0.91 -2.27,-1.72 -3.29,-2.45 4.07,1.09 8.07,2.48 11.92,4.14 10.86,4.69 17.79,10.36 25.13,16.36 8.8,7.19 17.13,15.39 24.11,23.72 10.87,12.99 17.64,24.81 20.71,30.7 6.64,12.77 14.41,32.64 13.7,54.8zm-23.43 4.05c-7.4,-5.41 -14.04,-11.91 -19.76,-19.31 -2.94,-3.81 -6.96,-9.62 -14.43,-23.78 -4.53,-8.59 -6.6,-13.19 -8.79,-18.06 -1.9,-4.24 -3.18,-9.4 -6.91,-16.8 -3.09,-6.16 -5.2,-9.45 -8.02,-14.52 -2.22,-3.99 -5.56,-8.46 -10.58,-17.79 -4.5,-8.36 -8.95,-16.8 -13.26,-25.11 0.92,0.69 1.79,1.21 2.58,1.69 0.3,0.18 0.59,0.35 0.87,0.53 2.96,1.84 5.2,4.19 9.65,8.88 5.58,5.88 10.14,12.13 17.73,22.71 7.05,9.83 10.22,15.7 13.92,20.95 5.86,8.33 9.77,12.42 14.45,19.39 3.75,5.58 7.44,11.24 11,16.86 1.34,3.92 2.56,9.42 5.34,14.66 7.24,13.68 16.4,24.86 25.25,38.14 -4.65,2.09 -11.95,-3.25 -19.03,-8.43zm-83.42 -137.71c-0.73,-0.76 -1.25,-1.45 -1.68,-2 -0.74,-0.96 -1.19,-1.54 -1.85,-1.41 -0.96,0.19 -1.14,1.65 -1.41,3.86 -0.15,1.27 -0.33,2.71 -0.69,4.18 -0.95,3.88 -2.79,6.27 -5.12,9.28 -0.38,0.49 -0.77,1 -1.17,1.53 -2.77,3.66 -3.66,5.33 -4.79,7.46 -1.09,2.04 -2.44,4.57 -6.04,9.83 -4.49,6.57 -8.54,11.49 -16.59,21.31 -3.31,4.04 -6.69,8.06 -10.05,11.98 -0.44,-0.51 -0.88,-1.02 -1.34,-1.52 4.9,-5.91 9.79,-11.9 14.53,-17.82 11.45,-14.3 13.77,-17.79 15.61,-20.86 2.53,-4.24 3.63,-6.68 4.51,-8.65 1.03,-2.3 1.77,-3.96 4.15,-7.17l0.38 -0.51c1.55,-2.08 4.24,-5.01 5.15,-9.24 0.3,-1.38 0.29,-3.87 -0.17,-7.19 -0.17,-1.23 -0.44,-2.28 -0.7,-3.3 -0.46,-1.78 -0.89,-3.46 -0.82,-6.01 0.04,-1.42 0.22,-2.47 0.96,-2.97 0.79,-0.54 1.98,-0.34 2.7,0.11 1.47,0.93 1.55,3.24 1.63,5.29 0.08,2.15 -0.19,3.52 -0.42,4.62 -0.24,1.18 -0.83,2.38 -0.42,3.61 0.68,2 2.72,2.71 4.79,3.94l0.56 0.34c0.03,0.02 3.03,1.83 11.68,8.46 2.68,2.05 4.59,4.07 10.01,11.32 9.21,12.32 15.12,21.57 15.18,21.66 6.74,10.59 10.26,15.26 13.36,19.38 2.88,3.82 5.37,7.12 9.71,14.23 4.27,7.01 6.26,11 8.73,16.1 -2.94,-4.57 -5.95,-9.16 -9,-13.7 -4.68,-6.97 -8.22,-12 -14.09,-20.34 -3.69,-5.25 -7.23,-10.18 -14.31,-20.05 -7.58,-10.57 -11.52,-17.21 -17.12,-23.12 -4.5,-4.73 -7.38,-6.73 -10.41,-8.61 -0.28,-0.18 -0.58,-0.35 -0.88,-0.53 -1.36,-0.81 -2.9,-1.72 -4.57,-3.48zm-11.03 33.66c-1.93,13.03 -3.61,24.29 -7.59,37.85 -2.96,10.09 -6.84,20.09 -11.52,29.79 -0.18,-0.48 -0.36,-0.96 -0.55,-1.45 -1.99,-5.13 -4.44,-11.71 -8.35,-18.82 4.93,-9.14 11.05,-17.95 15.3,-27.39 5.88,-13.03 9.63,-27.15 14.51,-40.6 0.28,-0.34 0.57,-0.68 0.84,-1.01 -0.69,7.18 -1.58,14.44 -2.64,21.63zm-37.92 32.87c3.49,-3.87 7.49,-7.48 10.83,-11.56 8.07,-9.83 11.4,-15.3 15.9,-21.89 3.61,-5.28 4.98,-7.83 6.07,-9.89 1.12,-2.1 2,-3.75 4.74,-7.37 0.32,-0.42 0.62,-0.82 0.92,-1.21 -4.71,12.83 -9.93,25.63 -15.54,38.07 -4.19,9.29 -8.7,18.58 -13.39,27.65 -2.51,-4.48 -5.6,-9.15 -9.53,-13.81zm26.76 89.16c0.54,11.12 0.12,22.26 -1.25,33.13 -0.41,3.24 -2.76,20.03 -8.83,32.72 -1.33,2.78 -3.04,5.31 -6.44,10.36 -3.36,4.99 -4.87,6.66 -6.45,6.98 1.97,-12.81 4.08,-25.85 3.83,-38.71 -0.09,-4.63 -0.85,-9.57 -1.84,-16.33 -0.13,-7.01 -0.41,-14.07 -0.83,-21.07 -0.71,-11.81 0.02,-26.54 -3.22,-45.17 -2.1,-12.07 -5.67,-24.26 -8.85,-35.06 -4.42,-14.99 -7.46,-22.37 -10.28,-26.79 -0.99,-1.54 -1.78,-3.21 -2.49,-4.91 5.01,3.49 9.69,7.45 13.9,11.81 13.14,13.61 18.68,27.92 22.35,37.4 8.8,22.73 9.73,41.75 10.41,55.63zm-23.62 83.25c-1.49,-0.07 -3.58,-1.52 -5.95,-4.14 -4.58,-5.05 -6.62,-10.36 -7.29,-12.4 -1.99,-6.11 -2.24,-10.45 -2.65,-17.64 -0.07,-1.26 -0.15,-2.6 -0.24,-4.05 -0.38,-6 -0.06,-12.22 -0.52,-18.38 2.01,-2.68 3.37,-4.93 3.97,-6.16 9.22,-18.89 5.17,-36.87 1.03,-45.32 -1.82,-3.73 -6.46,-11.13 -14.33,-16.27 -0.54,-3.91 -1.01,-7.89 -1.37,-11.86 -0.64,-6.84 -0.73,-10.69 -0.83,-14.76 -0.1,-3.9 0.61,-8.1 0.04,-15.09 -0.55,-6.67 -1.87,-10.19 -2.29,-13.15 -0.38,-2.72 -0.68,-4.87 -0.86,-8.24 -0.07,-1.4 -0.3,-2.8 -0.54,-4.16 2.49,4.26 4.85,8.64 7,13.08 3.91,8.05 7.63,17.5 10.77,27.33 5.03,15.76 7.23,28.43 8.83,37.68 1.77,10.23 2.79,19.98 4.81,39.42 1.89,18.17 2.84,27.29 2.99,35.39 0.25,12.88 -0.62,25.9 -2.58,38.73zm-51.7 -38.87c-20.62,-1.76 -29.65,-26.08 -30.6,-29.01 -0.85,-2.64 -7.89,-26.34 7.89,-44.69 2.43,-2.83 14.2,-15.46 30.31,-15.46 2.13,0 4.34,0.22 6.61,0.72 14.59,3.18 22.03,15.52 24.56,20.69 4.07,8.32 7.01,22.16 -2.1,40.82 -2.47,5.05 -15.71,28.74 -36.67,26.94zm-34.45 -44.11c-4.19,1.49 -11.17,2.47 -19,-0 -6.58,-2.08 -15.8,-6.89 -20.62,-22.96 -4.86,-16.24 2.14,-30.2 5.38,-35.45 4.35,-7.05 16.33,-23.22 33.65,-21.15 9.66,1.15 18.94,8.13 23.64,17.8 3.62,7.43 3.5,14.65 2.92,19.02 -8.45,4.16 -14.39,10.26 -15.97,12.11 -8.46,9.85 -10.29,21.47 -10.01,30.64zm-42.24 -41.95c-2.73,9.02 -3.77,13.59 -4.97,18.88 -0.95,4.16 -2.02,8.88 -4.13,16.6 -2.08,7.61 -5.33,17.47 -11.79,37.11 -10.19,30.97 -12.54,36.22 -13.8,39.05 -3.27,7.31 -5.16,10.55 -6.83,13.4 -1.78,3.05 -3.32,5.68 -6.01,12.36 -0.31,0.76 -0.61,1.54 -0.93,2.34 -2.53,6.41 -5.4,13.69 -11.67,21.8 -2.78,3.6 -6.18,7.97 -8.81,8.16 0.83,-13.52 3.23,-26.82 7.15,-39.54 2.31,-7.48 5.46,-14.91 11.76,-29.72 4.29,-10.08 8.35,-15.33 10.54,-20.06 2.21,-4.76 3.42,-9.14 6.92,-17.53 4.23,-10.12 5.41,-15.57 6.79,-19.36 1.54,-4.24 2.38,-6.57 5.17,-11.92 2.77,-5.29 5.94,-8.84 8.35,-12.72 2.79,-4.51 5.53,-8.8 9.4,-16.38 3.16,-6.19 5.4,-12.98 7.92,-19.41 -0.25,1.56 -1.26,4.79 -2.42,8.45 -0.69,1.81 -1.34,3.8 -1.87,5.97 -0.26,0.82 -0.51,1.66 -0.78,2.54zm-69.71 169.64c-1.52,-0.43 -3.59,-3.1 -3.96,-21.25 -0.32,-15.41 -0.49,-23.91 1.89,-36.2 3.61,-18.64 10.48,-32 14.58,-39.98 5.92,-11.53 12.6,-20.68 25.9,-38.91 5.15,-7.06 8.59,-11.46 11.36,-15 3.96,-5.06 6.82,-8.72 11.95,-16.54 2.47,-3.77 4.61,-7.19 6.49,-10.21 0.99,-1.59 1.96,-3.14 2.85,-4.52 0.89,-0.84 1.73,-1.76 2.51,-2.74 -2.43,5.86 -5.11,11.71 -8.02,17.4 -3.86,7.56 -6.74,12.21 -9.53,16.71 -2.41,3.89 -4.69,7.57 -7.47,12.88 -2.81,5.38 -3.66,7.73 -5.21,11.99 -1.38,3.79 -3.26,8.99 -7.48,19.09 -3.5,8.39 -5.59,12.88 -7.79,17.64 -2.2,4.74 -4.69,10.11 -8.98,20.21 -6.3,14.82 -10.76,22.03 -13.08,29.54 -3.94,12.77 -5.08,26.35 -5.88,39.92 -0.05,-0.01 -0.09,-0.01 -0.14,-0.02zm-20.66 -63.41c-16.93,-7.33 -20.23,-27.63 -20.85,-33.67 -1.24,-12.3 2.02,-23.86 9.19,-32.54 8.21,-9.95 20.84,-15.33 35.6,-15.15 5.74,0.07 13.61,0.16 19.76,6.1 3.76,3.63 5.46,8.08 6.22,11.67 -8.21,12.01 -12.62,20.15 -17.32,29.29 -3.87,7.53 -11.04,19.45 -14.91,36.39 -6.3,0.93 -12.4,0.22 -17.7,-2.08zm26.45 -85.18c0.58,-1.76 1.07,-4.45 0.24,-5.13 -0.73,-0.59 -2.42,0.91 -3.66,1.6l-0.41 0.23c-0.2,0.08 -3.44,1.12 -9.33,3.02 -4.89,1.58 -9.85,2.78 -13.13,3.58 -1.02,0.25 -1.9,0.46 -2.6,0.64 -9.93,2.57 -18.15,6.12 -25.2,10.55 -12.81,8.06 -19.91,17.75 -25.23,23.47 -5.01,5.39 -9.04,10.51 -16.58,21.04 -8.91,12.43 -18.56,24.17 -26.65,36.85 -9.37,14.69 -18.56,31.09 -28.81,47.29 7.13,-14.19 10.95,-21.76 13.31,-26.08 5.14,-9.41 9.76,-16.65 18.97,-31.06 11.25,-17.6 16.9,-26.44 25.84,-38.21 16.19,-21.31 24.45,-27.55 27.56,-29.89 6.21,-4.69 12.98,-8.73 20.12,-12l-0.26 -0.58c-0.53,-0.07 -1.04,-0.13 -1.57,-0.19 -2.38,-1.04 -4.79,-2.24 -7.19,-3.18l0 -0.01c-0.01,0 -0.02,0 -0.02,0 -0.37,-0.15 -0.74,-0.29 -1.11,-0.42 -6.02,-2.12 -11.95,-4.97 -18.15,-6.69 -3.83,-1.06 -7.44,-1.86 -10.74,-2.49 -6.93,-3.49 -13.88,-7.1 -20.71,-10.77 -11.49,-6.18 -22.79,-12.58 -33.57,-19.03 -10.58,-6.32 -15.78,-9.77 -20.82,-13.1 -4.46,-2.95 -9.07,-6.01 -17.4,-11.04 -9.89,-5.98 -14.54,-8.43 -19.48,-11.01 -4.3,-2.26 -8.74,-4.59 -16.95,-9.37 6.3,2.95 12.61,6.05 18.82,9.25 10.33,5.33 18.69,10.13 33.86,18.84 19.45,11.18 29.22,16.79 33.48,19.5l0.75 0.48c4.1,2.62 10.85,7.83 20.53,12.76 2.79,1.42 5.7,2.34 8.58,3.41 0.54,0.43 1.06,0.82 1.59,1.18 4.4,3 10.42,4.68 10.48,4.7 2.05,0.81 3.66,1.28 5.22,1.75 1.69,0.5 3.43,1.02 5.79,1.96 2.89,1.16 5.7,2.55 8.35,4.14l1.79 1.08 -1.39 -1.56c-3.59,-4.01 -6.79,-8.23 -10.68,-12.07 -3.49,-3.44 -5.58,-5.46 -8.19,-7.49 -1.84,-1.43 -3.64,-2.55 -5.41,-3.48 -5.54,-6.79 -11.08,-13.75 -16.46,-20.73 -10.2,-13.21 -17.19,-22.98 -31.86,-43.73 -8.78,-12.42 -14.58,-21.54 -18.92,-28.26 2.56,3.35 5.08,6.7 7.54,10.05 3.54,4.82 5.95,8.21 8.27,11.5 3.29,4.64 6.39,9.03 12.25,16.77 7.24,9.57 10.18,13.03 12.33,15.56 1.93,2.28 3.1,3.65 6.14,8.06 0.47,0.68 0.94,1.36 1.4,2.04 3.62,5.29 6.93,11.75 13.11,17.24 2.66,2.36 5.61,3.47 8.65,5.1 0.05,0.09 0.08,0.18 0.13,0.26 2.79,5.37 7.02,8.97 11.02,13.74 3.18,3.8 5.03,5.52 6.52,6.9 1.62,1.51 2.69,2.5 4.52,5.32 2.39,3.68 3.29,3.91 3.8,3.7 0.43,-0.18 0.47,-0.65 0.52,-1.24 0.04,-0.52 0.09,-1.16 0.36,-1.91 0.64,-1.77 2.29,-3.62 3.47,-3.37 1.09,0.23 1.85,2.3 1.77,3.91 -0.03,0.56 -0.15,0.89 -0.25,1.19 -0.11,0.31 -0.21,0.6 -0.12,0.98 0.37,1.6 3.06,2.88 9.37,3.01 1.83,0.04 3.79,0 5.37,0 4.15,0 7.72,-0.68 12.38,-1.72 3.28,-0.73 6.52,-1.75 9.67,-3.03 3.83,-0.49 7.91,-1.58 11.42,-3.85 0.38,-0.24 0.74,-0.5 1.09,-0.76 3.71,-0.98 7.46,-1.9 11.02,-3.17 8.39,-2.97 16.5,-6.89 24.65,-10.5 1.63,0.15 3.64,0.26 5.89,0.26 4.25,0 9.57,-0.41 14.91,-1.8 -3.32,2.1 -6.73,4.09 -10.17,5.93 -5.93,3.16 -12.64,6.73 -20.29,9.04 -1.38,0.42 -2.74,0.92 -4.06,1.41 -1.42,0.53 -2.89,1.08 -4.37,1.5 -0.43,0.13 -0.83,0.24 -1.21,0.34 -2.4,0.68 -4.33,0.28 -5.61,1.72 -1.42,1.59 -1.52,4.5 -1.91,5.89 -0.24,0.86 -0.41,1.75 -0.52,2.65 -1.11,-0.1 -2.16,-0.16 -3.14,-0.19 0.52,-0.74 1.04,-1.5 1.3,-2.3zm-155.29 147.96c-1.11,2.2 -2.28,4.34 -3.42,6.48 -2.28,4.26 -4.02,9.1 -5.91,13.64 -0.32,0.78 -0.63,1.53 -0.93,2.27 -1.69,4.17 -3.15,7.77 -6.32,12.05 -3.1,4.15 -8.16,9.53 -10.23,9.11 2.96,-9.28 6.44,-18.54 10.35,-27.52 9.11,-20.96 18.75,-36.17 27.25,-49.6 8.77,-13.86 15.89,-23.61 22.77,-33.04 9.23,-12.65 17.39,-23.02 24.25,-30.81 1.04,-1.18 2.09,-2.36 3.15,-3.52 -8.95,11.78 -15.22,20.37 -26.48,37.97 -9.22,14.42 -12.67,22.35 -17.81,31.78 -2.65,4.85 -7.75,13.42 -16.68,31.2zm-27.36 43.18c-1.02,-1.49 0.09,-7.64 3.76,-21.15 4.45,-16.43 6.69,-24.68 10.08,-33.01 5.77,-14.17 11.77,-23.53 23.72,-42.16 11.84,-18.45 18.35,-28.62 28.63,-39.12 8.13,-8.3 17.23,-15.73 27.05,-22.07 2.93,-1.23 5.89,-2.44 8.84,-3.59 -2.7,3.07 -5.82,6.79 -9.39,11.32 -2.72,2.88 -5.39,5.8 -8,8.76 -6.88,7.8 -15.05,18.18 -24.29,30.85 -6.89,9.44 -15.63,18.64 -24.41,32.52 -8.51,13.44 -17.55,28.74 -26.69,49.74 -3.89,8.95 -6.39,18.65 -9.31,27.91zm27.86 -107.45c-10.67,5.68 -25.27,13.45 -45,20.39 -27.23,9.58 -40.86,9.23 -50.6,7.62 -10.87,-1.8 -13.82,-4.76 -14.58,-6.51 3.95,-2.6 8.02,-5.14 12.11,-7.57 18.26,-10.84 33.37,-17.25 43.37,-21.5 7.88,-3.35 15.98,-6.5 24.13,-9.42 2.26,-0.15 4.57,-0.34 6.98,-0.59 17.84,-1.81 28.07,-2.78 36.95,-5.82 1.23,-0.42 9.24,-6.22 28.32,-15.65l0.54 -0.26c5.85,-2.89 11.88,-5.87 19.76,-9.29 -9.01,5.91 -18.53,12.65 -25.86,20.13 -4.7,4.8 -8.61,9.52 -12.59,14.98 -7.67,4.72 -15.57,9.26 -23.54,13.5zm-88.94 -6.35c5.46,-4.59 11.3,-8.8 17.35,-12.5 1.71,0.18 3.04,0.37 4.41,0.57 2.37,0.34 4.83,0.7 9.6,0.98 3.08,0.18 6.22,0.82 8.99,0.82 5.23,0 10.06,-0.07 15.06,-0.33 -7.52,2.35 -15.26,4.54 -22.3,7.53 -10.02,4.25 -24.27,11.81 -42.57,22.67 -4.05,2.4 -8.08,4.92 -11.99,7.49 -2.02,-7.49 12.07,-19.33 21.45,-27.22zm10.93 -13.59c-5.75,-0.26 -10.4,-0.21 -14.14,-0.17 -6.59,0.07 -10.22,0.11 -11.04,-1.75 -0.02,-0.04 -0.03,-0.08 -0.04,-0.12 10.85,-6.14 22.25,-10.93 33.89,-14.24 4.08,-1.16 7.08,-1.83 13.26,-2.88 9.48,-1.05 19.19,-1.66 28.83,-2.84 18.41,-2.25 27.4,-2.77 36.61,-4.35 8.81,-1.51 13.71,-3.74 19.1,-4.99 4.51,-1.04 9.17,-2.12 16.94,-3.62 11.49,-2.2 23.27,-4.04 35.05,-5.46 -1.52,1.53 -3.25,3.36 -5.21,5.55 -3.49,1.11 -7.29,1.79 -10.65,3.21 -9.6,4.05 -15.97,8.4 -22.64,11.69l-0.59 0.29c-19.01,9.39 -28.55,14.11 -29.74,14.52 -8.81,3.02 -17.74,3.93 -35.54,5.74 -11.76,1.2 -21.04,2.14 -33.61,1.41 -4.74,-0.28 -7.18,-0.63 -9.54,-0.97 -2.7,-0.39 -5.26,-0.76 -10.92,-1.02zm161.84 -43.67c-0.66,0.61 -1.39,1.29 -2.19,2.07 -12.2,1.47 -24.48,3.75 -36.38,6.04 -7.78,1.5 -12.66,2.62 -16.96,3.62 -5.38,1.25 -10.03,2.33 -18.82,3.83 -9.2,1.57 -18.43,2.71 -36.84,4.96 -5.29,0.65 -10.59,1.28 -15.87,1.89 0.72,-0.12 1.44,-0.23 2.21,-0.35 3.09,-0.5 6.59,-1.06 10.6,-1.7l0.06 -0.01c20.38,-3.28 30.61,-4.93 36.55,-6.01 11.24,-2.04 18.1,-3.53 24.74,-4.97 6.64,-1.44 12.92,-2.8 23.14,-4.65 9.94,-1.79 19.93,-3.37 29.76,-4.71zm-178.52 29.92c10.88,-9.46 22.47,-13.69 33.37,-16.85 4.03,-1.17 16.31,-4.73 43.64,-9.24 14.31,-2.36 24.65,-4.07 39.15,-5.32 3.51,-0.3 8.31,-0.72 40.91,-1.87 8.84,-0.31 17.79,-0.61 26.67,-0.89 -0.34,0.24 -0.68,0.47 -1.01,0.72 -0.78,0.59 -1.88,1.45 -3.35,2.75 -10.13,1.24 -20.32,1.85 -30.59,3.71 -10.23,1.85 -16.67,4.38 -23.32,5.82 -6.63,1.44 -13.49,2.93 -24.72,4.97 -5.93,1.08 -16.02,2.03 -36.4,5.32 -4.01,0.65 -7.88,0.84 -10.97,1.33 -18.12,2.9 -22.42,3.53 -28.93,5.38 -11.62,3.3 -22.32,9.09 -33.14,15.23 -0.18,-3.35 6.17,-8.88 8.68,-11.06zm16.33 -36.13c-15.08,-4.1 -27.01,-8.55 -35.45,-13.22 -2.32,-1.28 -2.98,-1.74 -4.95,-3.11 -2.26,-1.57 -6.46,-4.5 -17.34,-11.5 -1.17,-0.75 -2.25,-1.44 -3.24,-2.08 -8.24,-5.29 -10.87,-6.97 -11.01,-8.58 14.87,3.3 29.01,7.23 44.38,9.87 9.71,1.66 17.77,1.74 25.68,2.92 5.07,0.76 10.81,1.62 18.01,2.75 16.21,2.56 32.83,5.43 49.45,8.53 -1.42,0.53 -16.67,6.81 -16.02,10.42 0.59,3.28 14.89,3.11 24.94,3.24 0.47,0.01 0.93,0.01 1.39,0.01 6.06,0 11.55,-0.54 26.19,-2.5 7.81,-1.05 12.69,-1.76 16.62,-2.33 5.73,-0.83 8.89,-1.29 15.11,-1.89 4.68,-0.45 8.73,-0.76 12.18,-0.98 -4.03,2.97 -8.37,5.51 -12.92,7.54 -2.25,1 -4.57,1.88 -6.93,2.64 -19.61,0.63 -23.19,0.56 -26.1,0.81 -14.53,1.25 -25.07,4.51 -39.4,6.88 -1.43,0.24 -2.81,0.46 -4.16,0.69 -19.38,-1.79 -38.36,-5.2 -56.42,-10.11zm-36.83 -47.41c8.79,-0.76 17.82,-0.96 26.12,-0.58 5.02,0.23 11.6,0.72 31.65,3.95 18.36,2.95 29.44,4.73 45.46,8.39 6.36,1.45 18.2,4.15 33.32,8.69 3.32,1 5.68,1.75 11.38,3.56 3.93,1.25 9.43,2.99 17.87,5.65 5.42,1.71 10.07,3.17 13.61,4.28 -0.89,0.15 -1.68,0.28 -2.46,0.34 -1.82,0.14 -3.7,0.28 -6.83,0.28l-0.05 0c-4.53,-0 -6.58,-0.28 -10.66,-0.84 -2.71,-0.37 -6.36,-1.42 -12.31,-2.05 -17.55,-1.84 -24.5,-2.09 -26.73,-1.98 -6.73,0.34 -12.15,1.31 -16.81,2.89 -16.81,-3.23 -31.85,-6.72 -48.43,-9.34 -7.2,-1.14 -15.09,-1.39 -20.16,-2.15 -7.91,-1.18 -14.74,-2.21 -24.44,-3.87 -15.38,-2.64 -30.74,-5.64 -45.64,-8.93 1.39,-5.35 23.25,-7.25 35.09,-8.27zm223.13 39.33c-6.12,2.8 -12.4,5.6 -17.91,9.36 -9.21,0.18 -18.61,-0.36 -27.77,-0.04 -3.51,0.13 -6.69,0.23 -9.58,0.33 1.04,-0.29 2.05,-0.63 2.99,-1.05 4.89,-2.18 8.78,-5.78 13.06,-9.04 3.2,-0.19 5.86,-0.31 8.01,-0.41 12.32,-0.54 17.82,-0.26 19.63,-0.17 3.86,0.19 7.75,0.54 11.57,1.02zm-36.92 -4.69c3.04,0.05 5.15,0.18 8.97,0.41 2.14,0.13 4.82,0.29 8.53,0.49 3.9,0.21 7.79,0.4 11.57,0.57 2.23,0.8 4.45,1.63 6.66,2.48 -3.43,-0.42 -6.84,-0.73 -10.35,-0.91 -1.81,-0.09 -7.72,-0.74 -20.07,-0.19 -4.63,0.2 -11.05,0.13 -20.8,1.08 -6.23,0.6 -10.02,1.47 -15.76,2.3 -3.92,0.57 -8.38,1.62 -16.19,2.67 -15.72,2.1 -20.85,2.57 -27.49,2.49 -4.9,-0.06 -19.79,-0.25 -20.37,-3.46 -0.47,-2.63 8.89,-6.71 12.54,-8.06 4.87,-1.8 9.82,-2.69 17.06,-3.05 2.22,-0.11 8.99,-0.46 26.49,1.38 5.94,0.62 9.64,1.13 12.34,1.5 4.11,0.56 6.17,0.85 10.74,0.85 3.17,-0.01 5.09,-0.14 6.93,-0.28 2.24,-0.17 4.55,-0.34 9.19,-0.26zm-15.14 -11.14l-1.5 -0.29c-17.66,-3.5 -31.32,-7.93 -47.14,-13.06 -20.4,-6.61 -35.68,-12.95 -45.79,-17.15 -14.03,-5.82 -21.08,-8.75 -28.9,-13.1 -17.09,-9.52 -28.36,-19.38 -34.42,-24.68 -9.7,-8.48 -16.41,-16.48 -29.77,-32.43 -7.17,-8.55 -12.15,-14.95 -10.54,-18.88 11.04,5.29 22.1,11.08 32.88,17.23 10.5,5.99 16.71,10.03 23.28,14.3 6.4,4.16 13.02,8.46 24.36,15.13 9.93,5.84 14.68,9.75 19.42,12.24 4.92,2.58 9.5,4.81 19.37,10.78 8.32,5.03 13.14,6.96 17.6,9.91 5.04,3.34 10.25,6.79 20.84,13.12 10.79,6.45 21.88,14.16 33.38,20.35 6.03,3.24 12.29,5.65 18.47,8.41 -4.78,-0.83 -8.75,-1.34 -11.54,-1.88zm-186.23 -123.58c20.89,-0.96 37.6,4.04 38.3,4.25 1,0.3 24.81,7.62 48.33,22.94 3.77,2.46 10.32,6.94 17.37,12.16 4.98,3.68 9.91,7.52 14.69,11.41 3.89,4.85 9.88,13.23 18.53,21.22 9.14,8.44 13.12,13.11 20.13,17.97 5.12,3.55 12.55,5.85 19.15,9.3 2.83,7.25 6.04,11.83 9.14,14.87 -2.08,-0.98 -4.15,-1.99 -6.2,-3.04 -9.65,-4.92 -16.51,-9.3 -20.6,-11.91l-0.75 -0.48c-4.27,-2.72 -13.94,-9.69 -33.4,-20.87 -15.18,-8.72 -23.64,-12.16 -33.98,-17.5 -8.1,-4.17 -16.37,-8.18 -24.58,-11.9 -9.6,-5.71 -15.63,-9.63 -21.46,-13.42 -6.58,-4.28 -11.88,-9.92 -22.4,-15.92 -10.79,-6.16 -22.75,-10.38 -33.81,-15.64 1.51,-2.47 5.55,-3.15 11.54,-3.43zm199.59 110.24c2.59,2.01 4.56,3.97 8.16,7.51 3.4,3.36 6.73,6.82 9.9,10.32 -2.16,-1.2 -4.41,-2.27 -6.7,-3.18 -2.39,-0.96 -4.15,-1.48 -5.85,-1.98 -1.62,-0.48 -3.14,-0.93 -5.16,-1.73 -0.05,-0.02 -5.38,-2.14 -9.73,-5.1 -3.93,-2.68 -9.36,-7.86 -13.22,-17.36 1.93,0.99 3.98,1.96 6.18,2.9 0.94,0.41 1.87,0.79 2.79,1.17 4.44,1.83 8.64,3.57 13.64,7.47zm-111.7 -98.82c-7.09,-11.31 -11.73,-21.41 -14.5,-27.44 -2.38,-5.19 -3.23,-7.45 -4.31,-10.31 -1.14,-3.04 -2.43,-6.49 -5.94,-14.48l-0.51 -1.17c-2.51,-5.7 -5.63,-12.8 -8.54,-22.67 -3.4,-11.58 -2.89,-14.74 -1.65,-16.07 8.85,10.88 17.83,21.92 26.71,32.89 16.57,20.48 24.89,30.76 29.51,36.78 0.8,1.05 1.5,1.96 2.15,2.82l0 0c0,0 0.01,0.01 0.01,0.01 2.92,3.87 4.88,6.66 10.8,15.12 4.84,6.9 12.15,17.34 24.7,35.09 14.68,20.76 21.05,31.21 31.25,44.44 5.08,6.59 10.81,12.61 16.14,18.93 -2.6,-1.25 -5.12,-2.17 -7.53,-3.17 -0.92,-0.38 -1.84,-0.76 -2.78,-1.17 -10.1,-4.35 -17.11,-9.21 -23.9,-13.91 -6.97,-4.83 -11.54,-9.06 -20.66,-17.49 -10.26,-9.48 -17.98,-17.63 -21.68,-21.64 -11.2,-12.18 -20.04,-21.79 -29.29,-36.56zm-24.26 -91.24c8.1,2.3 12.16,3.45 17.83,6.3 4.77,2.4 12.41,6.72 23.68,16.46 9.5,8.2 15.61,15.11 24.86,25.58 10.87,12.3 16.33,18.48 21.74,26.37 3.44,5.01 4.54,7.25 13.09,24.64 1.55,3.15 3.35,6.8 5.44,11.06 3.19,6.47 5.92,11.98 8.26,16.7 12.52,25.29 13.83,27.93 14.69,33.88l0.13 0.89c0.49,3.52 0.62,9.71 3.66,16.39 -2.64,-1.76 -5.16,-3.7 -7.52,-5.79 -6.13,-5.43 -9.52,-10.4 -13.12,-15.66 -0.46,-0.68 -0.93,-1.35 -1.4,-2.04 -3.07,-4.44 -4.24,-5.82 -6.18,-8.11 -2.14,-2.53 -4.31,-6.23 -11.53,-15.79 -5.85,-7.74 -9.72,-11.87 -13.01,-16.5 -2.33,-3.29 -4.74,-6.69 -8.28,-11.51 -4.17,-5.67 -8.49,-11.36 -12.94,-17.04 -0.01,-0.02 -0.02,-0.04 -0.04,-0.05 -7.26,-10.36 -9.42,-11.63 -13.83,-17.38 -4.62,-6.02 -12.19,-17.57 -28.79,-38.08 -8.86,-10.95 -18.58,-20.76 -27.45,-31.62 1.21,-0.79 3.44,-0.74 10.71,1.31zm89.92 45.85c11.11,-0.77 20.71,-1.43 31.92,-0.25 13.07,1.37 21.94,4.6 38.05,10.46 14.67,5.33 25.27,10.52 34.64,15.09 12.81,6.26 21.4,11.18 35.64,19.32 16.73,9.57 25.13,14.37 31.09,19.09 1.06,0.84 2.07,1.66 3.08,2.49 3.68,3 6.95,6.93 13.01,10.58 3.12,1.88 5.2,1.78 7.32,2.78 2.13,1 4.78,2.24 10.17,5.18 2.65,1.44 4.74,2.63 6.57,3.68 1.28,0.73 2.39,1.44 3.42,2.12 -3.23,-0.87 -6.47,-1.75 -9.77,-2.25 -2.82,-0.43 -5.84,-0.35 -8.69,-0.6 -8.49,-11.83 -21.46,-16.45 -27.31,-17.58 -6.03,-1.17 -11.5,-1.21 -16.33,-0.55 -10.21,-3.96 -20.42,-8.03 -30.41,-12.1 -15.7,-6.4 -29.59,-12.32 -41.84,-17.54 -8.93,-3.81 -13.6,-6.61 -17.28,-8.2 -6.26,-2.7 -7.91,-3.24 -11.53,-4.55 -15.29,-5.55 -28.05,-9.71 -39.63,-12.63 -8.18,-2.06 -17.05,-2.94 -25.39,-4.4 -1.92,-2.42 -4.12,-5.06 -6.72,-8.02 6.61,-0.93 13.32,-1.66 19.99,-2.12zm85.23 2.11c-14.42,-17.51 -21.66,-26.29 -28.13,-39.02 -3.89,-7.63 -6.74,-16.8 -12.43,-35.06 -3.77,-12.12 -4.49,-16.24 -2.97,-17.9 11.69,17.4 21,35.39 34.23,51.34 19.31,23.28 39.9,39.43 47.25,46.79 9.23,9.25 14.39,13.94 18.95,18.08 5.21,4.74 9.72,8.83 18.74,18.34 0.92,0.96 1.84,1.94 2.77,2.93 6.32,6.71 12.84,15.06 23.45,24.09 4.66,3.96 9.83,7.37 14.94,10.77 -3.34,-1.76 -5.33,-2.69 -7,-3.47 -2.11,-0.99 -3.63,-1.7 -6.73,-3.57 -6.02,-3.63 -9.81,-6.72 -13.47,-9.71 -1.01,-0.83 -2.03,-1.66 -3.09,-2.49 -6,-4.75 -13.45,-10.36 -30.21,-19.95 -14.23,-8.14 -23.78,-12.26 -36.58,-18.51 -6.71,-7.29 -13.34,-14.92 -19.71,-22.65zm-19.34 -81.7c6.34,4.02 12.58,8.44 18.04,12.81 9.4,7.51 18.67,15.9 28.35,25.64 4.05,4.07 14.9,15.26 28.05,31.13 4.78,5.76 14.48,17.77 25.75,33.45 4.02,5.59 6.9,9.8 9.22,13.17 4.3,6.27 6.52,10.93 12.22,17.61 2.04,2.38 4.24,3.61 5.63,5.15 2.82,3.12 4.69,5.19 7.37,9.3 1.34,2.06 1.91,4.69 2.83,6.29 2.28,3.94 3.86,7.02 7.76,10.24 4.46,3.69 8.91,4.74 11.11,5.4 2.28,0.67 4.52,0.75 7.06,0.71 1.63,-0.02 2.9,-0.27 4.13,-0.51 1.61,-0.31 3.12,-0.61 5.21,-0.31 1.12,0.16 2.23,0.47 3.3,0.9 -1.69,1.15 -3.66,2.47 -6.02,3.99 -4.22,-0.13 -8.37,-0.8 -12.34,-1.98 -4.4,-1.31 -7.01,-2.79 -11.75,-5.5 -1.22,-0.7 -2.56,-1.46 -4.1,-2.32 -6.71,-4.68 -13.29,-9.75 -19.56,-15.09 -10.58,-9 -17.73,-16.59 -24.04,-23.29 -0.93,-0.99 -1.85,-1.96 -2.77,-2.93 -9.04,-9.53 -12.79,-14.59 -18.02,-19.34 -4.55,-4.13 -9.49,-8.67 -18.71,-17.91 -7.34,-7.36 -25.49,-23.76 -44.79,-47.01 -13.23,-15.97 -25.89,-32.87 -37.62,-50.25 3.4,-2.16 12.38,3.52 23.7,10.67zm83.25 53.88c2.55,-2.6 5.19,-5.15 7.84,-7.6 1.4,4.19 2.95,8.06 4.95,11.99 -3.44,0.49 -6.96,0.78 -10.26,1.77 -3.9,1.17 -7.57,3.32 -11.3,4.98 -0.04,-1.05 1.31,-3.52 8.76,-11.13zm-1.11 -41.28c-0.15,-0.5 -3.66,-12.64 -5.18,-36.56 -0.23,-3.64 -0.64,-10.29 1.93,-12.01 6.36,17.49 11.59,36.06 19.31,52.92 7.26,15.83 16.17,30.87 24.17,45.36 12.15,22.01 19.04,32.19 29.81,46.02 3.13,4.03 5.73,7.08 9.02,10.95 3.15,3.71 6.45,8.16 12.02,15.06 -6.61,-3.4 -13.02,-7.28 -19.07,-11.58 -14.42,-10.24 -23.53,-20.51 -28.97,-26.64 -5.87,-6.61 -16.79,-18.91 -26.75,-38.01 -6.4,-12.27 -9.71,-23.38 -16.28,-45.51zm7.53 -43.48c8.59,6.66 12.9,10.01 17.39,15.07 7.64,8.63 15.09,18.73 20.96,28.45 6.67,11.03 13.78,24.99 20.56,40.39 7.56,17.16 12.23,30.45 19.3,50.56 3.51,10 6.93,20.13 10.16,30.14 -0.7,-0.69 -1.04,-1.06 -1.06,-1.07 -9.09,-9.81 -15.79,-17.95 -16.07,-18.29 -10.21,-12.43 -15.34,-18.66 -18,-22.33 -5.71,-7.87 -11.07,-16.25 -15.91,-24.9l0 0c-1.05,-1.9 -2.15,-3.9 -3.31,-5.99 -7.99,-14.48 -15.72,-29.83 -22.97,-45.66 -7.73,-16.86 -14.89,-34.28 -21.28,-51.75 1.95,-0.64 4.91,1.26 10.21,5.39zm69.38 58.14c6.78,0.78 11.6,2.21 20.37,4.82 21.94,6.51 32.96,9.79 35.1,10.62 14.5,5.56 25.21,11.44 32.29,15.33 7.73,4.25 15.35,8.87 22.67,13.74 -1.64,-0.17 -3.56,-0.37 -5.81,-0.6 -7.21,-0.75 -11.24,-1.98 -16.34,-3.53 -3.04,-0.92 -6.38,-2.54 -11.11,-3.68 -4.62,-1.11 -6.42,-0.74 -10.53,-1.21 -3.9,-0.45 -9.79,-1.13 -22.17,-3.01 -7.08,-1.07 -11.34,-2.29 -15.15,-2.94 -4.49,-0.76 -8.44,-1.75 -15.59,-2.78 -8.05,-1.16 -16.14,-1.39 -24.07,-2.28 -3.68,-8.39 -7.16,-16.69 -10.65,-24.27 7.01,-0.92 14.06,-1 20.99,-0.21zm120.08 46.09l1.2 0.06c4.5,0.21 9.15,0.43 14.7,2.7 4.88,2 5.48,3.06 5.41,3.52 -0.13,0.79 -2.67,1.47 -6.19,1.65 -6.28,0.32 -11.02,-1.66 -14.15,-2.98 -0.29,-0.12 -0.56,-0.23 -0.81,-0.34 -3.4,-1.39 -4.67,-2.1 -7.91,-2.41 -2.67,-0.25 -6.92,-0.08 -14.41,-1.44 -7.7,-1.4 -11.4,-2.43 -14.97,-3.44 -3.3,-0.93 -6.02,-2.3 -12.54,-3.54 -5.15,-0.99 -8.01,-0.8 -11.3,-1.13 -3.19,-0.33 -7.57,-0.78 -16.87,-2.13 -9.68,-1.42 -17.39,-2.75 -31.38,-5.18 -6.35,-1.1 -13.32,-2.19 -19.6,-3.32 -0.38,-0.86 -0.76,-1.72 -1.15,-2.6 -0.05,-0.12 -0.11,-0.24 -0.16,-0.36 7.81,0.89 15.77,1.92 23.69,3.06 7.15,1.03 11.02,1.69 15.51,2.44 3.81,0.64 8.13,1.37 15.21,2.44 12.4,1.88 18.3,2.56 22.2,3.01 4.2,0.48 5.78,0.66 10.36,1.77 4.71,1.13 8.14,2.18 11.17,3.1 5.13,1.56 9.17,3.29 16.44,4.05 14.41,1.51 15.54,1.06 15.54,1.06zm9.52 -9.6c6.64,-3.11 13.51,-5.92 20.43,-8.36 0.27,0.28 0.53,0.54 0.76,0.81 0.57,0.61 1.09,1.17 1.75,1.63 -5.98,1.68 -11.89,3.79 -17.57,6.29 -5.56,2.45 -10.99,5.3 -16.16,8.49 -0.94,-0.09 -2.56,-0.24 -5.28,-0.52 5.23,-2.98 10.63,-5.78 16.08,-8.33zm13.26 -12.9l-1.09 -0.38c-1.03,-0.36 -1.91,-0.68 -2.68,-0.96 -5.86,-3.01 -11.68,-6.3 -17.31,-9.79 -10.24,-6.35 -21.84,-13.53 -33.43,-25.08 -7.47,-7.44 -16.75,-16.69 -23.17,-31.54 -5.32,-12.31 -7.56,-25.63 -6.69,-39.63 0.71,0.69 1.62,4.11 2.43,7.15 0.46,1.74 0.99,3.71 1.58,5.64 3.73,12.2 8.54,20.58 17.31,33.16 5.55,7.99 11.85,13.64 23.42,26.41 3.95,4.37 10.15,11.03 18.3,18.42 5.21,4.71 6.54,5.49 8.23,6.49 1.44,0.85 3.06,1.81 7.65,5.6l0.14 0.11c1.69,1.39 3.78,3.12 6.95,3.77 1.44,0.29 2.41,0.22 3.53,0.14 1.11,-0.08 2.38,-0.17 4.47,0.04 3.62,0.37 5.9,0.68 6.93,2.41 0.72,1.19 0.84,3.17 -0.22,4.4 -1.5,1.74 -4.57,0.87 -4.92,0.76 -1.4,-0.43 -2.12,-1.21 -3.04,-2.2 -0.46,-0.49 -0.98,-1.05 -1.64,-1.63 -1.75,-1.52 -3.22,-2.03 -6.76,-3.28zm-14.54 -6.07c-4.89,-1.59 -7.87,-1.69 -10.31,-2.31 -1.72,-0.45 -3.35,-0.86 -5.44,-1.52 -1.77,-0.55 -11.07,-3.64 -20.23,-9.6 -3.98,-2.61 -14.19,-10.05 -22.9,-23.23 -8.67,-13.1 -11.68,-25.56 -12.7,-31.81 -1.41,-8.61 -0.99,-15.09 -0.61,-20.8 0.53,-8.04 1.19,-11.01 1.74,-11.88 -0.87,14.05 0.64,28.17 5.97,40.51 6.46,14.97 16.58,23.48 24.08,30.95 11.64,11.6 22.63,19.11 32.9,25.48 2.39,1.48 4.94,2.87 7.53,4.21 -0.01,0 -0.01,0 -0.02,0zm10.91 31.23c-0.74,-0.39 -1.56,-0.78 -2.47,-1.15 -5.65,-2.31 -11.11,-1.88 -15.46,-2.09l-1.2 -0.06c-0.01,0 -0.06,-0 -0.22,-0.02 4.94,-2.92 10.28,-4.97 15.54,-7.29 5.85,-2.57 11.73,-5.44 17.89,-7.15 0.13,0.06 0.26,0.11 0.39,0.17 -2.7,4.14 -5.72,8.12 -8.98,11.82 -1.75,1.99 -3.6,3.92 -5.5,5.77zm-112.78 12.11c5.78,0.71 10.67,0.54 16.35,0.54 3.12,0 6.43,0.09 10.5,0.02 5,-0.09 10.83,-0.13 17.4,-0.42 -14.87,7.49 -28.61,16.34 -39.44,28.41 -4.51,5.02 -7.81,11.67 -11.46,17.44 -3.24,-10.23 -5.54,-21.27 -9.12,-31.46 -2.7,-7.69 -5.24,-14.28 -7.76,-20.44 7.7,2.46 15.55,4.94 23.54,5.92zm68.44 -3.83c-17.59,2.63 -30.91,2.87 -41.6,3.06 -11.44,0.21 -17.74,0.32 -26.65,-0.78 -8.13,-1 -16.21,-2.74 -24.05,-5.16 -3.56,-8.65 -7.11,-16.52 -11.1,-25.52 6.35,1.17 12.77,3.08 19.2,4.2 14,2.43 21.77,2.99 31.46,4.4 9.31,1.36 13.7,1.81 16.9,2.14 3.39,0.35 5.44,0.56 10.56,1.54 6.49,1.24 9.81,2.7 13.09,3.62 3.59,1.01 7.38,1.55 15.11,2.95 7.52,1.36 11.57,1.75 14.26,2.01 3.17,0.3 4.62,0.44 7.94,1.8 0.25,0.1 0.52,0.22 0.8,0.34 0.12,0.05 0.25,0.1 0.38,0.16 -8.68,2.17 -17.51,3.94 -26.29,5.25zm15.49 9.17c1.21,-3.71 1.5,-7.52 2.11,-11.37 3.16,-0.89 6.36,-1.8 9.67,-2.65 2.8,1.13 6.79,2.5 11.71,2.5 0.15,0 0.32,-0.01 0.48,-0.01 -4.87,4.4 -9.91,8.64 -14.99,12.63 -5.04,3.95 -9.66,7.29 -14.6,10.7 2.04,-3.8 4.29,-7.76 5.61,-11.8zm-37.97 26.61c0.85,-1.16 1.72,-2.32 2.6,-3.47 5.12,-5.8 10.82,-11.1 16.3,-16.57 5.66,-5.65 11.28,-11.55 17.28,-16.87 1.07,-0.29 2.13,-0.58 3.2,-0.88 -0.67,3.71 -1.58,7.4 -2.75,10.98 -1.43,4.39 -3.25,8.68 -5.41,12.77 -3.55,2.44 -7.3,4.94 -11.51,7.76 -3.66,2.45 -7.37,4.87 -11.03,7.24 -3.06,-0.5 -6.59,-0.81 -8.68,-0.97zm-8.27 -20.26c-6.68,6.26 -11.04,13.87 -15.25,21.97 -6.12,1.99 -11.73,4.96 -16.87,8.94 -2.74,2.12 -5.18,5.47 -7.48,8.12 -1.91,-1.67 -3.37,-3.02 -4.43,-4.03 3.74,-5.79 7.96,-11.31 12.53,-16.41 11.08,-12.36 24.42,-22.51 39.64,-30.21 3.43,-0.17 7.05,-0.41 10.86,-0.75 -6.78,3.37 -13.66,7.37 -19,12.38zm40.46 -15.63c0.88,-0.21 1.76,-0.43 2.63,-0.66 -5.71,5.03 -11.32,10.28 -16.7,15.64 -3.2,3.2 -6.36,6.49 -9.46,9.82 3.74,-4.52 7.62,-8.91 11.64,-13.13 3.81,-4.01 7.81,-7.92 11.89,-11.67zm-13.24 10.62c-7.34,7.71 -13.4,16.6 -19.7,25.21 -0.67,-0.05 -1.07,-0.07 -1.1,-0.07 -7.15,-0.4 -13.65,-0.29 -17.33,0.59 -1.16,0.28 -2.3,0.6 -3.43,0.95 4.26,-7.76 9.68,-14.76 16.14,-20.81 5.72,-5.35 12.13,-9.86 19.1,-13.43 3.54,-0.35 7.23,-0.79 11.07,-1.37 2.41,-0.36 4.75,-0.83 7.05,-1.35 -3.97,3.36 -8.27,6.57 -11.8,10.28zm-21.99 31.13c-1.25,-0.05 -2.43,-0.1 -3.81,0.02 -1.18,0.11 -6.43,0.75 -14.45,5.73 -6.67,4.15 -11,8.92 -16.93,14.88 -1.34,-0.83 -2.65,-1.86 -4.14,-3.08 -1.92,-1.57 -3.59,-2.98 -5.02,-4.23 2.29,-2.56 4.81,-4.92 7.52,-7.01 6.27,-4.84 13.68,-8.38 21.44,-10.24 3.64,-0.87 9.48,-1.83 16.55,-1.43 6.42,0.36 12.74,1.68 12.76,2.67 0.01,0.55 -2.62,1.58 -7.02,2.33 -3.01,0.52 -4.99,0.44 -6.9,0.36zm-13.84 18.39c-5.37,3.39 -7.5,3.88 -8.32,4.07 -1.23,0.28 -4.5,1.03 -8.41,0.11 -1.52,-0.36 -2.81,-0.9 -4.04,-1.61 5.9,-5.88 12.22,-10.94 18.81,-15.03 7.88,-4.91 10.91,-5.18 12.05,-5.28 0.91,-0.08 1.74,-0.08 2.57,-0.06 -1.59,2.13 -3.15,4.3 -4.64,6.49 -2.24,3.27 -5.84,7.81 -8.01,11.31zm8.53 -10.95c1.57,-2.3 3.22,-4.59 4.89,-6.82 0.14,0 0.27,0.01 0.4,0.02 1.78,0.07 3.62,0.14 6.26,-0.25 -1.92,2.59 -4.02,5.05 -6.28,7.33 -4.16,4.19 -7.99,6.89 -11.25,9.03 1.9,-3.15 3.91,-6.28 5.98,-9.31zm-33.87 19.28c1.4,1.03 2.39,1.57 2.85,1.88 0.3,0.2 0.61,0.39 0.91,0.58 1.33,0.83 2.59,1.61 2.54,2.5 -0.04,0.74 -0.98,1.31 -1.88,1.87l-0.08 0.05c-0.99,0.6 -1.93,1.3 -2.84,1.98 -1.32,0.98 -2.68,1.99 -4.16,2.69 -2.37,1.13 -4.4,2.53 -7.48,4.66 -0.41,0.29 -0.84,0.58 -1.29,0.89 1.64,-2.54 3.3,-5.09 4.98,-7.61 2.11,-3.17 4.28,-6.35 6.45,-9.49zm-18.24 3.38c2.86,-4.28 6.03,-8.41 9.41,-12.31 1.28,1.55 2.66,3.14 4.08,4.65 1.62,1.72 3.04,2.96 4.23,3.88 -2.27,3.08 -5.01,5.86 -7.12,9.03 -1.92,2.88 -3.21,6.28 -5.03,9.2 -1.14,-0.6 -1.91,-1.53 -3.19,-1.71 -2.19,-0.31 -4.32,0.66 -5.98,0.99 -1.2,0.24 -2.45,0.48 -4.02,0.5 -0.19,0 -0.36,-0 -0.54,-0.01 2.4,-4.9 5.14,-9.69 8.16,-14.22zm-14.18 0.76c3.98,-0.48 8.02,-0.79 12.04,-0.95 -2.83,4.49 -4.42,9.57 -6.72,14.37 -1.83,-0.13 -3.35,-0.56 -5.17,-1.1 -2.16,-0.64 -6.44,-2.25 -10.81,-5.87 -1.62,-1.34 -2.84,-2.62 -3.88,-3.94 4.79,-1.07 9.68,-1.92 14.55,-2.51zm0.23 -15.74c7.49,0.1 15.05,0.64 22.49,1.59 0.15,0.19 0.3,0.37 0.45,0.56 -3.56,3.86 -7.8,7.63 -10.69,11.94 -4.2,-0.04 -8.47,-0.51 -12.62,-0.01 -4.99,0.6 -9.93,2.47 -14.83,3.61 -1.21,-1.62 -2.2,-3.33 -3.36,-5.33 -0.93,-1.61 -1.98,-3.42 -3.33,-5.5 -1.48,-2.28 -2.71,-3.93 -4,-5.48 8.56,-1.02 17.26,-1.49 25.88,-1.38zm-82.34 -75.43c3.73,-1.61 7.59,-3.02 11.48,-4.18 3.34,-1 6.76,-1.84 10.19,-2.51 1.81,3.48 3.67,6.79 5.52,9.9 -5.15,-0.9 -9.82,-1.01 -15.32,-1.41 -1.54,-0.11 -2.93,-0.19 -4.18,-0.25 -4.22,-0.23 -6.88,-0.37 -7.7,-1.55zm7.66 2.18c1.25,0.07 2.64,0.14 4.17,0.25 5.45,0.4 10.89,1.12 16.2,2.16 8.06,13.32 15.98,23.05 20.64,28.29 5.46,6.15 15.51,15.47 29.98,25.75 6.44,4.58 13.67,7.81 20.77,11.28 0.87,1.19 2.62,3.6 4.82,6.37 -7.21,-1.03 -14.37,-2.26 -21.66,-2.35 -8.78,-0.11 -17.88,1.22 -26.6,2.3 -0.91,-1.07 -1.85,-2.11 -2.94,-3.32 -1.39,-1.54 -2.97,-3.28 -5,-5.66 -5.68,-6.65 -8.51,-10.78 -12.8,-17.03 -2.32,-3.38 -5.21,-7.59 -9.23,-13.19 -11.28,-15.69 -19.77,-27.88 -24.55,-33.65 -0.42,-0.5 -0.83,-1 -1.25,-1.5 1.78,0.28 4.43,0.13 7.46,0.29zm76.19 107.84c-2,-0.05 -4.39,-0.22 -13.41,-1.72 -3.88,-0.65 -7.84,-1.35 -11.77,-2.09 -0.73,-1.36 -1.51,-2.63 -2.34,-3.84 2.66,0.26 5.33,0.58 7.96,0.99 3.94,0.6 7.88,1.4 11.77,2.33 2.09,1.38 4.01,2.55 6.59,3.31 2.15,0.64 4.38,0.83 6.65,0.9 -1.81,0.13 -3.64,0.17 -5.45,0.12zm-10.43 5.31c-3.61,0.25 -7.27,0.24 -10.89,-0.04 -1.32,-4.18 -2.88,-7.14 -3.24,-7.88 -0.08,-0.16 -0.16,-0.31 -0.24,-0.47 3.77,0.85 7.59,2.81 11.31,3.03 9.17,0.53 11.45,0.63 13.48,0.68 0.51,0.01 1.02,0.02 1.54,0.02 2.99,0 5.99,-0.24 8.94,-0.71 -0.95,0.6 -1.96,1.24 -3.04,1.91 -5.8,1.86 -11.8,3.03 -17.84,3.45zm0.31 6.86c-3.05,1.72 -6.12,3.39 -9.19,5.04 -0.01,-1.48 -0.12,-2.93 -0.3,-4.33 0.5,0.02 1,0.04 1.5,0.04 1.35,0 2.76,0.41 4.09,0.24 1.32,-0.17 2.62,-0.53 3.9,-0.98zm-4.04 -0.14c-1.83,0.24 -3.69,0.3 -5.54,0.2 -0.34,-2.28 -0.85,-4.41 -1.42,-6.31 1.81,0.13 3.62,0.21 5.43,0.21 1.78,0 3.54,0.63 5.3,0.5 5.25,-0.37 10.49,-1.8 15.58,-3.39 -1.19,0.73 -2.45,1.48 -3.8,2.29 -2.34,1.39 -4.71,2.77 -7.09,4.14 -2.7,1.19 -5.55,2 -8.46,2.37zm-73.8 28.51c8.63,4.37 17.89,5.77 21.82,6.28 0.34,0.05 0.73,0.09 1.15,0.14 -7.81,3.42 -15.82,6.6 -23.85,9.44 -2.91,1.03 -5.87,2.03 -8.83,2.99 6.85,-5.99 8.8,-14.49 9.7,-18.85zm-43.61 22.1c-2.57,-0.69 -25.28,-7.38 -32.94,-29.99 -2.38,-7.02 -6.74,-24.63 3.96,-36.63 10.27,-11.51 27.18,-10.05 36.34,-8.16 7.56,1.56 14.78,5.1 20.98,10.26 -2.93,7.22 -4.05,15.49 -1.75,23.39 2.66,9.14 9.27,14.97 16.41,18.71 -1.12,4.67 -4.42,14.11 -13.47,19.97 -2.38,1.54 -4.8,2.61 -7.2,3.32l0 0c-0,0 -0,0 -0,0 -9,2.68 -17.66,0.37 -22.33,-0.89zm-95.51 -133.68c-2.89,-4.31 -5.74,-8.6 -9.97,-14 7.93,1.65 15.91,3.47 23.8,5.46 11.57,2.91 24.69,6.21 39.96,11.75 3.6,1.31 4.73,1.79 10.98,4.49 3.68,1.59 9.24,3.99 18.17,7.8 12.26,5.22 26.12,12.66 41.82,19.07 9.62,3.93 19.48,6.62 29.32,10.2 -6.73,1.12 -12.14,3.58 -16.01,6.15 -16.46,-2.04 -32.85,-5.38 -48.74,-9.96 -14.96,-4.31 -31.66,-10.59 -47.02,-17.69 -14.57,-6.73 -28.78,-14.56 -42.3,-23.27zm77.41 130.17c-1.69,-0.35 -3.84,2.21 -4.48,3.98 -0.3,0.84 -0.33,2.63 -0.37,3.16 -0.02,0.24 -0.05,0.68 -0.12,0.71 -0,0 -0.64,0.21 -3.06,-3.51 -1.84,-2.83 -2.99,-3.9 -4.59,-5.38 -1.48,-1.37 -3.31,-3.08 -6.47,-6.85 -3.98,-4.75 -7.42,-8.85 -10.18,-14.17 -3.71,-7.15 -4.58,-13.41 -5.1,-17.16l-0.12 -0.9c-0.88,-6.05 -2.19,-8.7 -14.75,-34.07 -2.34,-4.72 -3.95,-10.35 -7.14,-16.82 -2.1,-4.25 -4.17,-7.85 -5.72,-11 -8.57,-17.43 -9.41,-19.51 -12.87,-24.55 -0.51,-0.74 -1,-1.47 -1.49,-2.2 13.06,8.57 26.34,17.24 40.47,23.77 15.39,7.11 32.89,13.49 47.88,17.81 15.69,4.52 31.72,6.57 47.95,8.49 -0.56,0.4 -1.09,0.79 -1.58,1.19 -4.51,3.64 -8.77,9.3 -11.55,15.86 -6.2,-5.22 -13.13,-9.24 -20.72,-10.81 -16.05,-3.32 -31.9,-0.95 -39.67,7.75 -10.93,12.25 -6.16,31.06 -3.75,38.18 7.76,22.93 32.77,29.93 35.37,30.63 3.14,0.84 8.08,2.48 13.7,2.48 1.17,-0 2.44,-0.04 3.77,-0.13 -2.43,0.88 -4.92,1.61 -7.42,2.17 -6.35,1.42 -10.71,1.33 -17.3,1.19 -7.14,-0.15 -8.87,-1.17 -9.06,-2.01 -0.05,-0.19 -0,-0.33 0.1,-0.62 0.11,-0.3 0.26,-0.72 0.29,-1.37 0.09,-1.91 -0.56,-5.53 -2.01,-5.84zm120.4 -20.13c-0.52,0.82 -1.08,1.72 -1.7,2.71 -1.88,3.02 -4.44,5.86 -6.9,9.62 -5.11,7.8 -7.55,12.02 -11.49,17.07 -2.77,3.54 -7.41,7.15 -12.57,14.23 -2.35,3.22 -4.46,6.19 -6.37,8.95 -0.78,-3.42 -2.45,-7.24 -6.23,-10.88 -4.64,-4.47 -10.75,-6.05 -15.85,-6.6 0.1,-0.86 0.27,-1.71 0.5,-2.55 0.37,-1.34 0.93,-3.35 2.25,-4.83 1.16,-1.3 2.46,-1.67 4.83,-2.33 0.38,-0.11 0.78,-0.22 1.21,-0.34 1.5,-0.44 2.98,-0.99 4.42,-1.52 1.31,-0.49 2.67,-0.99 4.03,-1.4 7.7,-2.33 15.1,-5.38 21.06,-8.55 4.08,-2.17 7.55,-5.05 11.39,-7.65 4.05,-1.27 8.01,-3.17 11.44,-5.93zm-36.79 7.2c-7.19,-0.94 -31.09,-5.56 -36.92,-25.6 -4.4,-15.1 3.71,-30.15 13.11,-37.75 4.87,-3.94 12.66,-8.04 23.96,-8.04 3.1,0 6.46,0.31 10.11,1.02l0.06 -0.31 -0.06 0.31c6.62,1.28 22.87,5.99 30.68,21.86 0.97,1.96 9.19,19.62 -0.06,34.38 -10.48,16.7 -33.93,15.04 -40.87,14.13zm42.79 -13.76l3.24 -1.95c-0.91,1.29 -1.67,2.45 -2.26,3.42 -0.53,0.85 -1.16,1.95 -1.82,3.24 0.78,-2.67 1.06,-4.07 0.84,-4.71zm83.77 -56.79c0.19,-0.97 0.76,-2.2 1.72,-2.47 0.13,-0.04 0.26,-0.05 0.4,-0.05 0.95,0 1.88,0.84 2.17,1.13 0.27,0.26 0.48,0.54 0.66,0.84 -2.38,2.15 -4.2,2.88 -4.73,2.48 -0.26,-0.21 -0.42,-0.94 -0.22,-1.93zm-18.2 47.64c1.55,-11.13 4.88,-19.22 7.56,-25.71 2.56,-6.22 5.61,-12.29 9.06,-18.03 0.54,-0.45 1.08,-0.89 1.63,-1.33 1.15,0.51 3.34,-0.88 5.18,-2.52 0.44,1.06 0.54,2.3 0.64,3.66l0.03 0.33c-7.47,9.19 -18.13,24.2 -20.76,44.41 -0.97,7.44 0.18,15.15 1.32,22.7 -1.57,0.42 -3.08,0.93 -4.54,1.51 -1.23,-8.4 -1.29,-16.81 -0.14,-25.02zm-22.21 -10.54c-2.29,-1.01 -4.64,-1.7 -6.99,-1.98 -0.35,-0.04 -0.7,-0.06 -1.04,-0.09 5.77,-3.16 11.62,-6.08 17.13,-9.58 1.46,-0.93 3.03,-1.95 4.7,-3.06 -1.83,2.22 -3.72,4.4 -5.65,6.5 -2.6,2.82 -5.34,5.57 -8.14,8.2zm9.16 -7.16c2.46,-2.67 4.47,-5.88 6.62,-8.87 3.04,-2.04 6.41,-4.37 10.14,-7.02 -3.33,5.1 -6.97,10.04 -10.85,14.7 -3.19,3.84 -6.61,7.55 -10.16,11.08 -1.37,-0.93 -2.78,-1.74 -4.23,-2.42 2.86,-2.45 5.93,-4.71 8.48,-7.47zm8.36 24.44c-2.71,-5.56 -7.03,-10.61 -12.05,-14.16 3.61,-3.4 7.4,-6.53 10.58,-10.35 4.25,-5.11 7.78,-11.14 11.3,-16.84 1.11,-0.8 2.25,-1.62 3.43,-2.47 2.29,-1.66 4.38,-3.52 6.49,-5.35 -3.24,5.26 -6.77,10.7 -9.09,16.36 -2.69,6.53 -5.88,14.9 -7.44,26.11 -1.16,8.33 -0.36,16.74 0.98,25.23 -0.62,0.26 -1.22,0.53 -1.82,0.81 0.69,-4.56 1.19,-12 -2.38,-19.35zm16.47 2.03c-2.43,4.54 -3.86,9.6 -5.75,14.41 -0.24,0.05 -0.48,0.12 -0.72,0.17 -1,-7.45 -1.03,-14.95 -0.08,-22.31 2.56,-19.7 11.61,-34.57 18.95,-43.75 0.12,1.04 0.29,2.07 0.46,3.08 0.24,1.42 0.5,2.89 0.57,4.35 0.17,3.39 0.48,5.56 0.86,8.29 0.41,2.93 0.92,6.58 1.46,13.16 -5.51,7.27 -11.47,14.57 -15.77,22.59zm16.35 7.69c0.35,3.76 1.49,7.22 2.23,10.84 -3.02,-1.86 -6.48,-3.37 -10.42,-4.23 -4.6,-1 -9.01,-0.87 -13.11,-0.05 1.98,-4.58 4.15,-9.12 6.5,-13.5 4.17,-7.77 8.98,-15.29 14.29,-22.37 0.51,6.46 0.61,10.32 0.7,14.05 0.1,4.09 -0.84,8.4 -0.2,15.27zm61.33 -92.14c-1.62,2.37 -2.32,3.93 -3.16,5.81 -0.87,1.95 -1.96,4.38 -4.48,8.58 -1.82,3.05 -4.58,5.94 -16,20.21 -4.72,5.9 -9.19,12.36 -14.03,18.31 -0.56,-0.61 -1.12,-1.22 -1.71,-1.83 -2.37,-2.45 -5.33,-4.77 -8.39,-6.94 4.58,-5.65 9.47,-11.14 14.57,-16.32 10.1,-10.26 21.27,-19.6 33.2,-27.81zm-35.04 26.37c-5.12,5.2 -8.74,11.64 -13.26,17.38 -2.54,-1.79 -5.13,-3.49 -7.49,-5.09 -0.22,-0.55 -0.44,-1.1 -0.65,-1.64 -0.74,-1.88 -1.51,-3.83 -2.44,-5.66l-0.04 -0.06c-0.69,-1.34 -1.84,-3.59 -1.16,-5.85 0.56,-1.85 2.08,-2.89 3.55,-3.89l0.2 -0.14c1.55,-1.07 3.01,-2.31 4.41,-3.51 1.62,-1.39 3.3,-2.82 5.12,-3.97 3.4,-2.15 5.97,-3.62 10.4,-7.39 2.74,-2.32 7.08,-5.25 11.96,-9.23 9.08,-7.41 18.14,-15.76 28.86,-23.78 0.09,2.2 0.8,3.71 1.21,5.27 0.26,1 0.52,2.03 0.69,3.23 0.44,3.2 -0.1,5.7 -0.38,7.04 -0.88,4.1 -2.87,6.77 -4.48,8.92l-0.35 0.47c-12.52,8.47 -25.59,17.19 -36.13,27.9zm64.39 -91.49c1.25,-1.45 1.16,-3.69 0.4,-5.08 5.25,-5.25 9.91,-11.16 14.99,-16.42 7.48,-7.77 13.73,-12.5 20.2,-20.15 3.93,-4.64 7.05,-10.18 10.55,-15.14 -0.05,0.71 0.01,1.45 0.21,2.21 0.43,1.64 1.39,3.04 2.59,3.71 0.53,0.33 1.02,0.43 1.57,0.43 0.62,0 1.33,-0.14 2.29,-0.36 1.04,-0.22 2.46,-0.54 4.43,-0.78 2.3,-0.29 3.94,-0.33 5.14,-0.34 0.5,-0.02 0.91,-0.02 1.27,-0.05 -6,6.44 -12.1,12.96 -18.14,19.4 -8.17,8.7 -11.65,12.38 -14.72,15.6 -2.58,2.71 -5.02,5.28 -9.82,10.4 -3.95,4.21 -7.02,7.5 -9.53,10.19 -7,7.51 -9.63,10.32 -14.59,15.13 -5.1,4.94 -10.36,9.76 -15.67,14.36 -0.11,-0.12 -0.24,-0.22 -0.37,-0.31 -0.92,-0.58 -3.09,-0.33 -4.11,0.36 -0.96,0.66 -1.57,3.09 -1.61,4.7 0,0 0,0 0,0 -10.92,8.1 -21.12,16 -30.31,23.51 -4.88,3.99 -8.29,6.88 -11.03,9.21 -4.42,3.75 -6.85,5.81 -10.22,7.94 -1.86,1.17 -3.55,2.62 -5.19,4.03 -1.39,1.19 -2.83,2.42 -4.35,3.47l-0.2 0.13c-1.56,1.07 -4.23,1.15 -4.85,3.2 -0.76,2.51 1.53,5.92 2.26,7.35l0.03 0.06c0.92,1.8 1.68,3.73 2.42,5.6 1.03,2.62 2.1,5.33 3.64,7.75 2.78,4.34 4.98,11.84 9.39,26.78 3.17,10.77 5.96,22.83 8.05,34.87 3.23,18.6 4.12,33.27 4.82,45.07 0.31,5.19 0.54,10.4 0.69,15.61 -0.54,-3.93 -1.12,-8.42 -1.66,-13.67 -2.02,-19.44 -2.15,-29.1 -3.93,-39.35 -1.61,-9.27 -3.73,-22.44 -8.78,-38.24 -3.15,-9.86 -6.72,-19.31 -10.65,-27.39 -2.4,-4.95 -6.15,-9.5 -8.98,-14.21 -0.12,-0.76 -0.23,-1.53 -0.29,-2.3l-0.04 -0.46c-0.16,-2.08 -0.09,-4.5 -1.57,-5.96 -0.5,-0.5 -1.9,-2.14 -3.26,-1.77 -1.24,0.34 -2.62,2.63 -2.86,3.83 -0.15,0.78 0.23,1.8 0.72,2.39 -3.28,2.55 -6.64,5.08 -10.02,7.53 -8.94,6.48 -15.89,10.9 -21.47,14.45 -5.81,3.7 -11.79,7.33 -17.81,10.85 -13.41,-0.28 -24.06,10.74 -29.84,18.56l-3.75 2.26c2.51,-4.44 3.47,-9.09 3.52,-13.48 7.11,-3.73 14.56,-7.2 21.45,-11.3 9.87,-5.88 15.28,-9.78 19.21,-12.5 3.05,-2.11 4.98,-3.37 7.3,-4.47 1.54,-0.73 2.57,-2.31 3.91,-3.3 0.9,-0.67 1.83,-1.36 2.79,-1.94l0.08 -0.05c1.05,-0.64 3.17,-1.38 3.23,-2.45 0.06,-1.26 -2.39,-2.06 -3.88,-2.99 -0.3,-0.19 -0.6,-0.37 -0.9,-0.57 -0.82,-0.54 -2.77,-2.61 -6.66,-6.73 -5.42,-5.75 -10.52,-12.02 -11.09,-12.72 -5.79,-7.16 -9.8,-11.88 -13.03,-15.67 -3.28,-3.86 -5.88,-6.92 -9,-10.93 -6.3,-8.09 -11.01,-15.24 -16.27,-24.21 1.95,2.95 3.96,5.84 6.01,8.67 2.68,3.68 7.81,9.92 18.02,22.36 0.28,0.34 6.89,8.93 15.99,18.75 0.03,0.04 3.78,3.51 12.27,10.46 3.14,2.57 5.46,4.31 9.01,5.14 1.45,0.34 2.91,0.79 4.13,0.79 2.17,0 3.92,-0.15 4.73,-0.33 0.89,-0.21 3.71,-0.84 9.8,-4.77 3.61,-2.33 8.23,-4.86 13.2,-9.86 2.43,-2.45 3.98,-5.95 6,-8.77 1.87,-0.32 4.74,-0.73 7,-1.25 -2.56,1.84 -5.05,4.04 -4.65,5.01 0.31,0.75 2.72,0.73 4.6,0.73 0.03,0 0.07,0 0.1,0 2.37,-0.02 4.75,-1.64 5.86,-2.58l-0.41 -0.48c-1.03,0.87 -2.72,1.92 -4.9,1.93 -2.2,0.01 -2.67,-0.51 -2.76,-0.73 -0.26,-0.63 0.76,-2.19 3.63,-4.13l-0.07 -0.11c1.25,-0.37 2.1,-0.79 2.09,-1.27 -0.02,-0.9 -2.2,-1.59 -4.96,-2.1 3.49,-2.16 7.09,-4.05 10.55,-6.36 10.6,-7.08 18.81,-11.59 27.84,-18.66 4.13,-3.24 7.84,-7.33 11.67,-11.16 -0.47,1.4 -0.42,2.62 0.23,3.17 0.29,0.24 0.66,0.34 1.06,0.34 0.87,0 1.85,-0.44 2.37,-0.68 1.26,-0.57 1.84,-1.87 2.66,-3.1 -0.75,1.13 -2.01,1.8 -3.17,2.32 -0.53,0.24 -1.29,0.49 -1.91,-0.03 -0.56,-0.47 -1.01,-1.43 0.01,-3.25 0.66,-0.64 1.32,-1.27 2,-1.89 2.48,-0.13 7.73,-0.42 7.98,-2.01 0.13,-0.79 -0.97,-2 -2.95,-3.23 1.95,-1.79 3.76,-3.1 5.57,-5.16 3.32,-3.76 5.67,-8.62 8.39,-12.86 0.65,0.23 2.34,0.84 3.25,0.84 1.12,0 2.15,-0.36 3.03,-1.39zm48.27 -57.71c2.06,-3.47 8.19,-1.22 8.5,-1.14 3.58,1.14 6.86,3.02 7.68,4.83 0.19,0.41 0.23,0.78 0.15,1.02 -0.08,0.09 -0.16,0.17 -0.24,0.26 -0.32,0.15 -0.93,0.17 -2.01,0.19 -1.21,0.03 -2.96,-0.47 -5.31,-0.17 -2,0.24 -3.34,1.09 -4.38,1.33 -1.7,0.36 -2.48,0.54 -3.41,0 -1.04,-0.6 -1.15,-2.07 -1.54,-3.56 -0.37,-1.42 -0.03,-1.78 0.56,-2.76zm43.37 245.41c0.72,-22.3 -4.58,-42.28 -11.26,-55.12 -3.08,-5.91 -10.47,-18.12 -21.39,-31.16 -6.99,-8.36 -17.27,-16.24 -26.1,-23.45 -7.38,-6.03 -13.49,-13.14 -24.42,-17.86 -4.42,-1.91 -9.75,-2.31 -14.58,-3.25 -5.29,-3.7 -7.68,-4.7 -7.71,-4.71l-0.56 -0.34c-2.03,-1.21 -3.5,-2.08 -4.11,-3.86 -0.36,-1.07 -0.21,-1.84 0.03,-3.01 0.23,-1.13 1.11,-2.71 1.03,-4.94 -0.06,-1.72 -0.06,-4.72 -1.03,-6.35 5.42,-4.55 11.23,-9.02 16.34,-13.99 4.98,-4.83 7.36,-7.68 14.38,-15.2 2.51,-2.69 5.18,-6.39 9.13,-10.59 4.81,-5.12 7.24,-7.69 9.82,-10.4 3.07,-3.23 7.67,-6.59 15.85,-15.31 6.26,-6.68 11.52,-13.72 17.69,-20.4 0.17,-0.12 0.31,-0.26 0.4,-0.47 0.19,-0.43 0.14,-0.95 -0.14,-1.57 -0.87,-1.93 -4.14,-4.76 -7.88,-5.96 -0.82,-0.26 -8.11,-2.43 -10.38,1.38 -0.08,0.14 -0.16,0.29 -0.22,0.43 -3.89,5.25 -8.01,10.44 -12.27,15.48 -6.46,7.63 -11.86,13.24 -19.33,20.99 -5.03,5.23 -10.24,10.5 -15.48,15.67 -1.58,-1.43 -4.26,-2.27 -6.96,-2.54 -2.15,-0.22 -4,0.36 -5.13,0.45 -1.12,0.08 -2.01,0.15 -3.36,-0.13 -3.02,-0.62 -4.96,-2.22 -6.67,-3.64l-0.14 -0.11c-4.62,-3.81 -6.27,-4.8 -7.73,-5.64 -1.66,-0.98 -2.5,-2.49 -7.66,-7.16 -8.13,-7.37 -14.78,-13.27 -18.72,-17.62 -11.55,-12.77 -17.35,-19.18 -22.88,-27.12 -8.73,-12.53 -14,-20.11 -17.71,-32.23 -0.58,-1.92 -1.11,-3.88 -1.57,-5.61 -1.41,-5.32 -2.02,-9.51 -3.26,-9.43 -1.35,0.1 -2.22,5.35 -2.81,14.43 -0.37,5.75 -2.15,11.95 -0.73,20.63 1.03,6.3 4.59,20.4 13.32,33.61 8.78,13.27 19.54,20.4 23.56,23.03 9.22,5.99 18.95,8.25 20.73,8.82 2.11,0.67 3.75,1.09 5.48,1.52 2.44,0.62 5.2,1.33 10.07,2.91 3.42,1.11 4.41,1.53 5.78,2.11 1.36,0.57 3.06,1.29 7.87,2.98l1.09 0.38c3.56,1.25 4.89,1.71 6.55,3.16 0.11,0.09 0.21,0.19 0.31,0.28 -6.85,2.4 -13.97,4.53 -20.54,7.6 -5.73,2.68 -11.07,6.31 -16.55,9.48 -0.2,-0.02 -0.41,-0.04 -0.63,-0.06 -7.63,-5.13 -14.25,-10.78 -22.35,-15.23 -7.1,-3.9 -19.21,-9 -33.75,-14.59 -2.17,-0.83 -12.62,-4.95 -34.59,-11.48 -8.79,-2.61 -14.26,-4.66 -21.1,-5.44 -7.05,-0.79 -14.17,0.59 -21.29,1.67 -2.67,-5.77 -5.35,-11.1 -8.14,-15.71 -5.9,-9.75 -14.43,-18.71 -22.1,-27.36 -4.53,-5.11 -8.11,-8.92 -16.73,-15.6 -5.88,-4.57 -10.72,-8.84 -12.98,-7.75 -3.05,1.45 -3.34,10.6 -3,16.04 1.52,24.01 6.56,35.82 6.71,36.34 4.25,14.31 6.52,24.22 9.32,32.78 -2.88,2.37 -6.2,4.36 -8.84,7.04 -6.71,6.85 -8.84,10.48 -9.29,12.34 -11.8,-13.71 -22.19,-23.23 -25.9,-26.96 -9.7,-9.75 -17.79,-18.94 -27.2,-26.46 -5.48,-4.37 -12.34,-9.01 -18.7,-13.03 -12.26,-7.75 -24.82,-15.48 -28.37,-12.6 -2.27,1.85 1.79,9.63 5.62,21.92 5.7,18.3 7.54,29.15 11.45,36.84 6.51,12.78 14.2,20.8 28.65,38.35 6.02,7.31 12.78,13.73 19.17,20.56 -8.97,-4.45 -18.96,-9.93 -32.85,-14.98 -16.15,-5.88 -24.92,-9.83 -38.07,-11.21 -11.26,-1.18 -21.46,-0.07 -32.61,0.7 -6.84,0.47 -13.6,1.89 -20.34,3.02l0 0c-9.27,-10.48 -13.82,-17.56 -23.35,-25.79 -11.33,-9.79 -20.87,-14.34 -25.67,-16.76 -5.72,-2.87 -12.08,-4.04 -20.22,-6.35 -8.11,-2.31 -12.45,-3.78 -13.8,-2.62 -1.8,1.55 -2.32,6.46 1.19,18.39 2.91,9.91 8.36,18.16 10.88,23.88l0.51 1.17c3.5,7.98 4.79,11.42 5.93,14.45 1.08,2.88 1.5,5.43 3.89,10.64 2.78,6.05 4.93,16.16 12.04,27.5 8.95,14.29 20.24,23.52 31.11,35.11 -3.4,-3.04 -6.75,-6.16 -10.45,-8.9 -7.06,-5.23 -14.31,-9.12 -18.09,-11.58 -23.6,-15.36 -46.92,-23.56 -47.93,-23.86 -0.71,-0.21 -18.53,-5.64 -39.53,-4.68 -6.44,0.29 -16.79,-0.26 -18.3,2.71 -2.16,4.26 8.43,14.96 16.17,24.19 13.39,15.97 18.82,25.34 28.56,33.85 6.07,5.31 19.07,13.29 36.21,22.84 7.86,4.37 15.02,7.2 29.08,13.03 10.12,4.2 25.46,10.87 45.88,17.49 15.84,5.14 29.79,8.17 47.48,11.67l1.5 0.3c5.11,1 13.66,2.67 24.47,5.68 5.91,1.64 12.05,3.57 17.82,5.58 -3.12,-0.15 -6.3,-0.31 -9.49,-0.48 -3.71,-0.2 -6.48,-0.84 -8.62,-0.97 -3.83,-0.23 -5.85,-0.5 -8.91,-0.54 -2.23,-0.04 -3.92,0.12 -5.33,0.32 -3.6,-1.22 -8.32,-3.29 -14.41,-5.21 -8.45,-2.66 -13.06,-4.38 -16.99,-5.62 -5.71,-1.81 -8.64,-3.01 -11.97,-4.01 -15.15,-4.55 -25.83,-6.87 -32.19,-8.32 -16.05,-3.66 -29.07,-4.85 -47.45,-7.81 -20.08,-3.23 -26.48,-4.92 -31.52,-5.16 -8.33,-0.38 -18.32,-0.53 -27.14,0.23 -13.08,1.13 -37.87,4.31 -38.62,10.39 -0.26,2.13 4.58,4.28 13.92,10.27 1,0.64 3.3,2.01 4.46,2.76 10.86,6.99 14.84,8.79 17.1,10.36 1.94,1.35 2.66,1.85 5,3.15 8.49,4.69 20.29,11.31 35.42,15.43 17.35,4.72 35.7,6.08 54.29,7.76 -22.94,3.85 -34.58,6.16 -38.28,7.23 -10.97,3.18 -23.67,7.87 -34.64,17.41 -3.07,2.67 -11.56,11.23 -9.95,14.86 0.99,2.24 8.05,0.81 15.12,0.73 3.73,-0.04 8.39,-0.5 14.12,-0.24 2.22,0.1 3.96,0.22 5.42,0.35 -5.83,3.62 -11.45,7.68 -16.72,12.12 -9.68,8.13 -27.67,21.81 -24.89,29.68 1.12,3.18 8.76,5.23 17.41,6.66 3.05,0.5 7.98,0.94 12.07,0.94 9.09,0 22.21,-0.16 41.09,-6.8 19.77,-6.96 34.41,-16.12 45.09,-21.8 7.4,-3.94 14.01,-8.98 20.88,-13.66 -4.38,6.15 -8.96,13.29 -14.87,22.5 -11.97,18.67 -16.27,28.13 -22.06,42.35 -3.41,8.37 -6.84,16.56 -11.3,33.02 -4.78,17.63 -4.14,23.06 -2.47,23.93 0.23,0.12 0.48,0.17 0.76,0.17 3.49,0 10.75,-10.67 11.05,-11.08 3.23,-4.34 4.7,-7.97 6.4,-12.18 0.3,-0.74 0.6,-1.49 0.93,-2.27 1.87,-4.51 4.22,-8.91 6.48,-13.15 1.14,-2.14 2.32,-4.35 3.43,-6.56 11.59,-17.83 22.72,-35.12 33.09,-51.36l0.04 -0.06c8.09,-12.68 16.7,-25.4 25.6,-37.82 7.53,-10.51 11.55,-15.61 16.53,-20.98 5.3,-5.7 13.3,-14.32 26.04,-22.34 7.01,-4.41 14.25,-8.96 24.09,-11.51 0.7,-0.18 1.57,-0.39 2.59,-0.64 3.29,-0.8 8.72,-1.46 13.63,-3.04 8.35,-2.69 8.86,-3.56 8.96,-3.61l0.44 -0.24c0.91,-0.5 2.15,-1.19 2.54,-0.87 0.5,0.41 -0.15,2.39 -0.54,3.58 -0.29,0.87 -0.65,1.73 -1.07,2.55 -0.14,-0 -0.29,-0.01 -0.42,-0.01 -14.96,-0.17 -28.41,5.06 -36.74,15.16 -7.28,8.81 -11.14,22.04 -9.88,34.51 0.62,6.13 5.14,27.17 22.38,34.64 3.87,1.68 8.5,2.24 12.97,2.24 1.69,0 3.29,-0.43 4.97,-0.82 -0.19,0.86 -0.38,1.72 -0.55,2.6 -2.39,12.36 -2.88,21.43 -2.56,36.89 0.37,18.25 3.6,25.22 5.58,25.78 0.25,0.07 0.51,0.1 0.77,0.1 2.97,0 8.39,-7.68 11.47,-11.65 6.33,-8.19 7.72,-16.35 10.27,-22.8 0.31,-0.79 0.62,-1.57 0.93,-2.33 2.67,-6.64 4.48,-8.53 6.25,-11.55 1.67,-2.87 4.35,-6.38 7.63,-13.72 1.27,-2.83 2.57,-8.57 12.77,-39.57 6.46,-19.65 10.61,-28.62 12.69,-36.24 2.12,-7.73 2.9,-12.95 3.85,-17.12 1.06,-4.68 1.52,-9.12 3.51,-16.32 -0.58,5.02 -0.35,10.6 1.4,16.46 4.89,16.34 14.78,21.9 21.5,24.02 2.82,0.89 5.57,1.24 8.14,1.24 4.63,0 8.66,-1.12 11.46,-2.18 0.34,7.83 2.17,13.74 2.56,14.96 0.96,2.97 10.65,28.73 31.68,30.53 0.74,0.06 1.47,0.09 2.19,0.09 13.9,0 25.11,-10.1 31.51,-17.96 0.59,5.54 1.07,11.06 1.42,16.47 0.09,1.45 0.17,2.79 0.24,4.05 0.4,6.99 -0.21,11.55 1.8,17.73 0.68,2.09 2.51,8.86 7.18,14 2.59,2.85 5.96,5.81 7.65,5.81 0.07,0 0.13,-0 0.19,-0.01 2,-0.14 4.25,-3.78 8.08,-9.45 3.42,-5.08 5.28,-7.85 6.63,-10.67 6.12,-12.78 9.07,-29.39 9.48,-32.64 1.38,-10.9 0.31,-22.76 -0.23,-33.92 -0.66,-13.46 -0.32,-31.69 -8.27,-53.5 4.94,-9.79 10.09,-18.98 13.12,-29.29 4,-13.61 5.59,-26.19 7.53,-39.25 1.12,-7.51 0.87,-14.98 1.52,-22.47 1.4,-1.72 2.6,-3.47 3.22,-6 0.37,-1.51 -0.03,-3.33 0.12,-4.62 0.2,-1.66 0.4,-3.22 0.9,-3.32 0.29,-0.06 0.68,0.46 1.23,1.18 0.43,0.56 0.97,1.26 1.72,2.05 0.28,0.31 0.57,0.58 0.85,0.84 4.52,8.75 7.97,17.68 12.71,26.49 5.02,9.34 9.32,14.79 11.55,18.79 2.82,5.06 4.52,8.12 7.62,14.27 3.72,7.39 5.69,11.77 7.59,16 2.2,4.88 4.27,9.49 8.81,18.1 7.49,14.2 10.31,20.41 13.27,24.24 5.75,7.45 12.61,15.1 20.04,20.55 6.08,4.45 13.13,9.1 17.92,9.77 1.23,0.01 4.58,0.09 5.47,-0.39 3.58,-1.93 1.93,-9.86 2.11,-15.4z"/>
 </g>
</svg>
