<?xml version="1.0" encoding="UTF-8"?>
<!DOCTYPE svg PUBLIC "-//W3C//DTD SVG 1.1//EN" "http://www.w3.org/Graphics/SVG/1.1/DTD/svg11.dtd">
<!-- Creator: CorelDRAW 2019 (64-Bit) -->
<svg xmlns="http://www.w3.org/2000/svg" xml:space="preserve" width="25.2806mm" height="14.8621mm" version="1.1" style="shape-rendering:geometricPrecision; text-rendering:geometricPrecision; image-rendering:optimizeQuality; fill-rule:evenodd; clip-rule:evenodd"
viewBox="0 0 561.22 329.94"
 xmlns:xlink="http://www.w3.org/1999/xlink">
 <defs>
  <style type="text/css">
   <![CDATA[
    .fil0 {fill:#FEFEFE;fill-rule:nonzero}
   ]]>
  </style>
 </defs>
 <g id="Capa_x0020_1">
  <metadata id="CorelCorpID_0Corel-Layer"/>
  <path class="fil0" d="M525.18 214.42c-22.2,6.15 -46.12,7.54 -71.16,4.17 -1.22,-6.03 -3.3,-11.96 -6.23,-17.43 8.03,0.14 16.08,0.22 24.16,0.22 7.7,0 15.42,-0.06 23.08,-0.19 20.25,-0.34 40.75,-1.15 60.97,-2.4 -1.05,7.39 -21.06,12.93 -30.82,15.63zm-229.41 22.73c1.13,0.2 2.02,0.37 3.08,1.07 1.91,1.26 3.36,3.64 3.72,6.05 0.22,1.45 -0.06,2.38 -0.82,4.59 -1.57,1.03 -5.4,3.07 -9.65,1.86 -2.4,-0.68 -5.71,-2.67 -5.67,-4.63 0.01,-0.73 0.5,-1.22 1.9,-2.5 0.74,-0.68 1.67,-1.54 2.82,-2.74 1.21,-1.26 2.36,-2.59 3.42,-3.96 0.42,0.1 0.83,0.18 1.2,0.24zm156.27 5.19c-7.19,36.16 -51.63,48.25 -65.08,51.1 -34.67,7.33 -72.49,-4.75 -91.99,-29.38 -2.54,-3.22 -6.87,-8.7 -9.56,-16.03 1.62,1.75 4.66,3.17 6.43,3.67 1.01,0.29 2,0.4 2.95,0.4 2.66,0 4.96,-0.94 6.48,-1.77 -0.29,0.84 -0.61,1.82 -0.97,2.99 -0.61,1.95 -1.16,3.92 -1.65,5.86 -0.07,0.27 0.09,0.54 0.36,0.6 0.04,0.01 0.08,0.02 0.12,0.02 0.23,0 0.43,-0.15 0.49,-0.38 0.48,-1.92 1.03,-3.87 1.63,-5.81 0.52,-1.68 1.76,-3.13 2.12,-4.16 0.87,-2.54 1.89,-4.04 1.64,-5.82 -0.4,-2.72 -3.42,-4.81 -5.59,-6.24 -1.24,-0.82 -2.26,-1 -3.45,-1.22 -0.99,-0.18 -2.12,-0.38 -3.65,-1.02 -1.7,-0.71 -3.28,-1.7 -4.72,-2.94 -0.21,-0.18 -0.53,-0.16 -0.71,0.05 -0.18,0.21 -0.15,0.53 0.05,0.71 1.53,1.31 3.2,2.35 5,3.1 0.58,0.24 1.1,0.41 1.58,0.56 -0.97,1.22 -2,2.41 -3.07,3.55 -1.14,1.18 -2.05,2.02 -2.79,2.69 -1.19,1.09 -2.69,1.51 -3.17,2.32 -0.54,-1.89 -0.96,-3.88 -1.21,-5.98 -0.04,-1.58 -0.12,-3.15 -0.27,-4.73 0.18,-17.11 12.37,-29.1 18.93,-35.55 17.24,-16.97 41.5,-25.79 72.12,-26.24 1.29,-0.02 2.6,-0.04 3.91,-0.05l0.01 0c18.33,-0.19 40.09,0.62 56.74,17.07 3.38,3.34 6.34,7.06 8.83,11.04 0.02,0.08 0.07,0.14 0.12,0.2 7.85,12.61 11.1,27.75 8.38,41.39zm-211.78 64.85c-24.97,18.62 -48.89,25.33 -71.1,19.94 -16.81,-4.08 -29,-12.24 -36.23,-24.24 -8.34,-13.82 -7.01,-28 -6.29,-35.61 1.86,-19.76 11.02,-35.76 20.81,-47.54 0.1,-0.06 0.18,-0.15 0.22,-0.27 8.09,-9.67 16.57,-16.48 21.68,-20.16 0.05,-0.02 0.08,-0.04 0.12,-0.08 1.32,-0.94 2.4,-1.67 3.2,-2.19 0,-0 0,-0 0.01,-0.01 0.75,-0.49 1.23,-0.79 1.39,-0.88 20.8,-12.5 37.75,-16.82 51.25,-16.82 11.79,0 20.93,3.29 27.7,7.29 25.54,15.1 28.85,46.44 28.99,47.91 -0.01,1.72 0.09,3.41 0.27,5.06 0.26,23.87 -13.85,46.59 -42.01,67.61zm-158.8 -105.05c-18.85,-6.68 -36.81,-15.67 -53.4,-26.7 -8.64,-5.75 -22.94,-15.25 -22.21,-20.53 16.8,5.89 33.7,13.33 50.82,18.41 25.01,7.42 44.88,11.35 57.74,14.54 16.96,4.21 34.12,7.27 51.29,10.81 -5.39,4.09 -13.26,10.76 -20.78,19.73 -21.74,-3.58 -43.08,-9.03 -63.45,-16.26zm-45.62 -51.51c10.56,-0.05 23.7,-0.12 41.95,2.4 10.02,1.38 20.11,3.34 29.96,5.81 2.67,2.14 5.43,4.4 8.21,6.76 7.31,6.25 13.62,14.06 24.17,20.14 8.93,5.15 18.95,7.75 28.92,10.48 -0.68,0.47 -1.43,1.01 -2.27,1.63 -17.46,-3.7 -35.03,-7.74 -52.26,-12.02 -12.85,-3.19 -32.27,-8.02 -57.26,-15.43 -17.1,-5.07 -34.27,-10.6 -51.06,-16.44 1.98,-3.19 12.57,-3.25 29.65,-3.33zm56.48 -12.13c4,1.29 9.5,3.08 16.09,5.25 15.99,5.26 34.13,11.22 53.14,18 15.16,5.4 30.58,11.22 45.88,17.3 -10.48,2.53 -22.19,7.22 -35.01,14.92 -0.21,0.13 -1.02,0.63 -2.26,1.48 -10.09,-3.04 -19.82,-7.22 -28.94,-12.48 -10.46,-6.03 -17.34,-11.91 -24.62,-18.13 -14.05,-12.01 -24.48,-20.92 -24.29,-26.34zm26.38 -6.05c11.31,-0.44 22.48,0.13 33.2,1.7 9.12,1.34 18.26,3.38 27.18,6.06 0.34,0.5 0.67,0.98 0.99,1.45 5.74,8.36 8.34,14.75 14.87,21.5 5.58,5.78 12.38,10.07 19.13,14.53 -1.6,0.26 -3.21,0.56 -4.87,0.93 -15.72,-6.45 -31.1,-14.05 -46.73,-19.62 -19.04,-6.78 -37.74,-10.94 -53.74,-16.2 -6.66,-2.19 -12.23,-4 -16.23,-5.29 0.03,-0.08 0.04,-0.15 0.07,-0.22 1.53,-3.87 9.75,-4.19 26.14,-4.83zm14.24 -25.81c-9.8,-13.89 -15.72,-22.27 -22.95,-33.77 -7.56,-12.02 -10.79,-18.3 -13.91,-24.38 -3.17,-6.16 -6.16,-11.98 -13.49,-23.12 -1.81,-2.75 -3.47,-5.22 -4.95,-7.4 -3.11,-4.59 -6.07,-8.97 -6.43,-10.6 9.77,8.84 18.76,18.43 26.69,28.52 4.41,5.61 6.97,9.39 9.66,13.4 2.79,4.15 5.69,8.44 10.88,15.09 6.05,7.74 9.26,11.04 12.96,14.86 3.21,3.31 6.87,7.07 13.12,14.53 13.2,15.74 24.14,31.44 30.67,40.83 1.07,1.53 2.04,2.95 2.97,4.3 -8.55,-2.58 -17.18,-4.99 -25.94,-6.27 -0.14,-0.02 -0.3,-0.04 -0.44,-0.06 -6.35,-8.49 -12.69,-17.2 -18.85,-25.92zm-11.36 -58.04c21.11,21.4 29.46,28.53 32.94,31.98 2.7,2.69 2.87,2.85 4.21,4.37 9.06,10.27 13.22,16.1 17.61,22.27 4.62,6.47 9.83,13.8 21.61,27.52l1.22 1.41c4.19,4.88 10.53,12.24 18.42,22.67 4.42,5.85 8.7,11.84 12.77,17.87 -4.53,-0.23 -9.47,-0.02 -14.77,0.76 -6.88,-4.84 -13.28,-10.32 -19.09,-16.32 -6.47,-6.69 -9.91,-11.71 -15.61,-20.04 -1.45,-2.11 -3.05,-4.44 -4.88,-7.07 -6.55,-9.39 -15.09,-24.7 -28.3,-40.47 -6.28,-7.49 -12.31,-13.27 -15.53,-16.6 -3.69,-3.8 -6.93,-5.49 -12.94,-13.19 -5.17,-6.62 -7.14,-11.15 -9.92,-15.28 -2.72,-4.02 -5.26,-8.63 -9.69,-14.27 -7.96,-10.12 -17.85,-18.74 -27.68,-27.53 1.73,0.24 7.04,3.21 22.51,15.81 12.98,10.57 21.79,20.68 27.13,26.1zm160.86 180.36c-0.74,-5.27 -2.46,-13.65 -6.54,-22.21 2.05,0.29 4.1,0.48 6.16,0.51 0.29,0.01 0.59,0.01 0.89,0.01 3.07,0 6.15,-0.29 9.18,-0.86 -4.33,5.93 -8.39,13.57 -9.69,22.55zm-35.19 -127.27c26.04,-23.23 66.23,-29.48 93.49,-14.54 4.63,2.54 16.94,9.29 23.3,23.44 8.07,17.98 3.64,40.88 -11.49,60.5 -21.32,3.88 -39.15,13.07 -52.37,26.08 -2.07,2.04 -4.6,4.73 -7.11,8 -3.57,0.64 -7.11,0.59 -10.78,0.52 -2.28,-0.04 -4.66,0.06 -6.97,-0.14 -4.06,-8.1 -10.26,-16.21 -19.8,-21.85 -5.8,-3.43 -13.81,-6.23 -23.8,-6.93 -3.94,-6.42 -7.03,-13.37 -11.63,-19.45 -0.41,-0.54 -0.81,-1.07 -1.21,-1.59 2.15,-13.68 8.66,-36.48 28.36,-54.05zm-18.15 -34.61c1.49,-16.45 4.21,-27.92 9.43,-39.59 2.74,-6.1 9.71,-21.72 16.34,-22.7 -0.85,15.96 -1.61,32.15 -2.24,48.11 -0.54,13.24 -1,26.62 -1.4,39.86 -2.26,1.62 -4.46,3.33 -6.53,5.18 -6.48,5.78 -11.37,12.39 -15.1,19.17 -1.8,-16.81 -1.98,-33.62 -0.51,-50.03zm26.93 -62.32c5.84,0.71 8.86,14.21 11.28,25.05 3.72,16.66 5.17,34.24 4.3,52.3 -6.85,2.52 -13.37,5.81 -19.31,9.89 0.6,-12.97 1.9,-26.03 2.42,-39 0.65,-15.99 0.33,-32.26 1.16,-48.24 0.05,0 0.1,0 0.15,0zm164.9 126.71c22.31,-20.25 32.3,-27.49 39.77,-32.3 13.74,-8.85 23.9,-13.31 35.65,-18.48 18.04,-7.93 30.13,-13.23 34,-10.17 -23.11,20.43 -47.43,40.05 -72.27,58.31 -19.6,14.41 -39.95,28.27 -60.54,41.28 -5.44,-0.69 -10.79,-0.98 -15.83,-1.06 12.81,-12.93 25.98,-25.56 39.22,-37.58zm97.45 -30.39c-10.28,14.94 -22.88,27.09 -42.15,40.65 -18.32,12.89 -38.29,23.95 -59.36,32.94 -5.8,-2.15 -11.81,-3.5 -17.74,-4.35 20.36,-12.68 41.18,-25.19 60.46,-39.37 24.87,-18.29 48.32,-39.24 71.46,-59.72 1.82,2.76 0.81,10.23 -12.67,29.85zm-53.26 73.91c18.16,-0.3 32.5,-0.54 50.38,3.54 19.28,4.41 39.82,11.74 40.54,19.24 -20.23,1.22 -40.8,0.42 -61.06,0.76 -15.84,0.27 -31.85,1.68 -47.73,1.57 -2.52,-4.48 -5.6,-8.63 -9.26,-12.26 -4.34,-4.29 -9.18,-7.61 -14.28,-10.19 13.79,-1.55 27.69,-2.44 41.41,-2.68zm51.65 1.92c-17.98,-4.11 -34.02,-5.07 -51.52,-4.78 -14.29,0.24 -28.91,2.75 -43.29,4.69 -1.22,-0.57 -2.46,-1.11 -3.72,-1.61 20.85,-8.84 41.13,-18.91 59.22,-31.65 19.36,-13.62 33.7,-25.73 44.05,-40.78 11.68,-16.99 17.99,-31.99 14.46,-35.89 -3.89,-4.31 -20.29,4.21 -40.03,12.88 -11.8,5.18 -23.7,8.35 -37.51,17.24 -7.52,4.84 -17.23,12.33 -39.59,32.63 -13.5,12.25 -25.7,26.07 -38.58,39.38 -2.19,-0.02 -4.32,-0.01 -6.37,0.02 -6.12,0.09 -12.01,0.58 -17.67,1.43 15.15,-19.72 19.32,-41.64 11.14,-59.87 -6.49,-14.45 -20.1,-23.25 -24.81,-25.84 -19.22,-10.54 -46.33,-11.4 -69.92,-3.04 0.99,-17.98 0.66,-35.37 -3.05,-51.99 -2.63,-11.73 -7.15,-28.91 -13.69,-29.73 -7.69,-0.95 -17.24,19.39 -20.49,26.65 -5.27,11.77 -6.81,24.4 -8.29,40.97 -1.53,16.96 -0.44,33.77 1.64,51.07 -6.83,13.12 -9.43,26.67 -10.74,35.87 -7,-9.15 -12.94,-16.41 -16.77,-20.86l-1.22 -1.41c-11.75,-13.69 -17.91,-19.89 -22.5,-26.35 -4.41,-6.19 -8.94,-11.37 -18.04,-21.68 -1.37,-1.55 -1.54,-1.71 -4.26,-4.42 -3.47,-3.45 -11.61,-11.53 -32.71,-32.93l-0.07 -0.07c-5.36,-5.44 -13.25,-15.99 -26.26,-26.6 -15.7,-12.79 -26.97,-18.99 -28.69,-17.3 -1.31,1.28 4.13,7.89 9.32,15.57 1.48,2.18 3.14,4.64 4.95,7.39 7.29,11.1 9.22,17.98 12.38,24.11 3.13,6.09 6.54,12.77 14.11,24.83 7.25,11.52 13.45,19.68 23.26,33.58 5.97,8.44 12.63,15.81 18.83,23.9 -10.34,-1.49 -21.95,-2.96 -32.68,-2.54 -16.82,0.66 -29.4,1.78 -31.16,6.26 -1.83,4.65 7.47,11.75 19.31,21.22 -9.13,-2.41 -18.14,-5.17 -27.47,-6.46 -18.32,-2.53 -31.92,-1.25 -42.51,-1.2 -20.88,0.11 -34.26,-0.91 -35.66,3.24 -1.87,5.44 13.06,16.83 25.98,25.42 16.66,11.08 36.33,19.16 55.24,25.87 20.24,7.18 41.18,11.64 62.76,15.15 -9.99,12.15 -19.21,28.36 -21.05,47.98 -0.73,7.73 -1.33,22.24 7.18,36.35 7.38,12.24 21.57,20.31 38.65,24.46 5.04,1.23 10.16,1.83 15.36,1.83 18.04,0 38.49,-5.87 58.05,-20.46 4.97,-3.71 16.08,-13.11 25.78,-25.6 9.56,-12.31 14.28,-25.61 15.05,-38.92 2.29,9.8 7.32,17.56 10.32,21.35 15.87,20.05 44.42,30.26 72.94,30.26 6.92,0 16.18,-0.34 23.02,-1.79 13.6,-2.87 57.48,-15.37 64.79,-52.13 1.46,-7.29 1.43,-15.19 -0.01,-22.96 8.69,1.38 16.9,3.2 25.37,3.2 15.72,0 31.4,-3.49 45.84,-7.49 11,-3.05 35.65,-8.5 35.78,-16.91 0.16,-10.39 -34.72,-19.32 -44.46,-21.55z"/>
 </g>
</svg>
